<svg width="265" height="112" viewBox="0 0 265 112" fill="none" xmlns="http://www.w3.org/2000/svg">
<mask id="mask0" mask-type="alpha" maskUnits="userSpaceOnUse" x="0" y="0" width="265" height="112">
<rect width="265" height="112" fill="#C4C4C4"/>
</mask>
<g mask="url(#mask0)">
<path d="M152.889 88.2993C152.889 88.2993 158.027 57.4779 156.234 51.4272L146.683 51.6357L132.014 93.8507C132.014 93.8507 144.572 94.4485 152.889 88.2993Z" fill="#1E1E1E"/>
<path d="M92.8068 18.5847C92.8068 18.5847 90.6468 20.791 91.7701 22.2055C92.8947 23.6199 90.7632 24.5922 92.4766 26.5469C94.1899 28.5016 91.7295 28.9026 94.5161 30.5824C97.3014 32.2622 95.5636 34.0442 98.5789 34.3882C101.596 34.7323 99.3192 36.6094 103.352 36.0008C107.387 35.3922 107.434 36.941 111.567 36.2539C115.699 35.5666 112.642 16.5205 112.642 16.5205L92.8068 18.5847Z" fill="#2B1212"/>
<path d="M116.083 39.9248L112.021 56.0347L99.3936 47.9072L105.634 32.6682C105.634 32.6682 113.037 29.6202 116.083 39.9248Z" fill="#5A2D2B"/>
<path d="M147.123 51.5618L146.804 39.5436C146.804 39.5436 149.698 33.3696 151.4 32.8565C153.102 32.3435 153.59 32.1106 153.59 32.1106L155.137 33.4688C155.137 33.4688 157.183 33.9897 156.964 36.0411C156.964 36.0411 158.597 36.0106 158.256 38.1201C158.256 38.1201 159.268 38.9851 159.05 41.0366C159.05 41.0366 160.533 42.5749 159.43 43.4012C158.326 44.2275 155.191 47.0721 155.191 47.0721L153.888 51.413L147.123 51.5618Z" fill="#7E4A30"/>
<path d="M121.218 14.4557C121.218 14.4557 119.975 10.9188 118.169 10.9188C116.363 10.9188 116.928 8.64494 114.33 8.77121C111.733 8.89761 112.073 6.87648 109.024 8.01331C105.976 9.15029 105.186 7.50796 103.04 9.6555C100.895 11.8029 99.3146 9.90818 97.2832 13.4451C95.2504 16.982 94.4601 13.6978 92.4286 17.3611C90.3959 21.0244 111.395 31.3827 111.395 31.3827L121.218 14.4557Z" fill="#2B1212"/>
<path d="M100.811 11.6384C100.811 11.6384 104.108 8.59587 101.329 6.70114C98.5508 4.80627 102.34 2.78514 98.1718 2.40619C94.0021 2.02725 95.1389 -1.88876 91.8556 1.14295C88.571 4.17465 87.0484 -1.63473 84.1062 3.86825C82.6066 6.67421 81.1071 4.88423 80.1394 9.43185C79.8268 10.9009 82.4916 12.4296 81.7838 13.302C80.3329 15.092 80.8648 17.2663 82.9449 17.8979C84.2455 18.2924 85.5448 17.8679 86.0902 18.2365C88.1501 19.6309 88.5574 20.5103 90.8311 19.4945C96.0105 17.1801 92.1967 22.5181 94.2173 21.3812C96.2392 20.2443 92.9924 22.9965 93.7503 18.4489C93.7503 18.4489 102.692 17.7125 100.811 11.6384Z" fill="#2B1212"/>
<path d="M119.891 13.4805C119.891 13.4805 126.08 17.9017 125.323 23.9651C125.12 25.5879 124.402 26.3637 124.565 27.5022C124.753 28.8167 126.122 30.171 127.114 31.3038C127.998 32.3144 126.929 33.4 126.459 33.4392C124.944 33.5656 126.838 35.4603 126.838 35.4603C127.217 35.9657 126.334 37.4814 125.323 37.1025C125.186 37.3158 127.039 38.1937 125.448 39.3763C125.448 39.3763 124.691 38.8709 124.439 39.8815C124.186 40.8921 124.565 42.9132 121.912 43.2922C119.259 43.6711 112.65 40.665 109.786 37.1025C108.772 35.8417 108.634 33.5534 108.634 33.5534C108.634 33.5534 106.645 34.7548 105.634 32.1022C104.624 29.4493 103.88 25.3319 107.037 24.7003C110.195 24.0686 110.795 27.3757 110.795 27.3757C110.795 27.3757 110.923 14.87 119.891 13.4805Z" fill="#5A2D2B"/>
<path d="M110.182 47.7129L122.616 50.9567C122.616 50.9567 137.28 53.1192 140.592 67.0406C143.666 79.9622 145.593 104.48 145.593 104.48L134.375 105.966L110.182 47.7129Z" fill="#5A2D2B"/>
<path d="M98.4057 46.9199L81.7132 53.2724C81.7132 53.2724 72.1624 56.6965 69.9997 69.942C67.837 83.1875 68.1523 99.2265 68.1523 99.2265L76.1264 105.849L87.2092 73.8166L122.891 72.7354L112.079 47.0551L98.4057 46.9199Z" fill="#5A2D2B"/>
<path d="M113.452 45.503C113.452 45.503 110.817 46.8771 100.634 44.8047C98.9223 46.4841 97.5608 47.2948 93.9446 48.5272C90.9157 49.5592 111.74 50.3687 111.74 50.3687L113.452 45.503Z" fill="#5A2D2B"/>
<path d="M122.496 50.5412C122.496 50.5412 112.117 61.1737 87.6537 50.4736C85.4461 51.3522 72.9664 53.9203 70.2632 66.9405C67.3664 80.8933 55.9646 111.604 52 117.009C52 117.009 64.3683 138.832 70.2632 119.292C70.2632 128.558 81.2509 93.4459 81.3012 93.5217C81.5715 93.9277 70 172.807 71.0812 173.213C79.2243 176.266 136.942 176.906 151.54 172.401C151.54 172.401 144.781 94.017 143.519 80.8619C142.258 67.7064 139.374 60.3177 135.41 56.8937C131.445 53.4697 126.456 51.1269 122.496 50.5412Z" fill="#1E1E1E"/>
<path d="M176.619 100.862L176.855 100.766L169.201 81.9832L168.96 82.0798V81.4894C169.398 81.4353 169.801 81.2188 170.088 80.8825C170.375 80.5463 170.526 80.1147 170.511 79.6726C170.496 79.2305 170.317 78.81 170.008 78.4937C169.699 78.1775 169.283 77.9884 168.842 77.9637V78.5004C169.152 78.5177 169.444 78.6493 169.663 78.87C169.881 79.0906 170.01 79.3845 170.025 79.6948C170.04 80.0051 169.939 80.3099 169.742 80.5502C169.545 80.7905 169.267 80.9492 168.96 80.9957V80.4162H168.37V80.9528C168.133 80.8556 167.927 80.696 167.773 80.491C167.619 80.286 167.524 80.0432 167.496 79.7883L167.47 79.5629H166.81L154.804 78.9887C154.691 78.7248 154.525 78.4868 154.316 78.2893C154.108 78.0918 153.862 77.939 153.592 77.8403V63.351H154.772V62.1006H154.203V43.0391H154.772V41.8263H153.431C153.933 41.6897 154.367 41.3757 154.655 40.9424C154.942 40.5092 155.063 39.9862 154.994 39.4707C154.925 38.9552 154.672 38.4823 154.281 38.1397C153.89 37.7972 153.388 37.6084 152.869 37.6084C152.349 37.6084 151.847 37.7972 151.457 38.1397C151.066 38.4823 150.812 38.9552 150.744 39.4707C150.675 39.9862 150.795 40.5092 151.083 40.9424C151.37 41.3757 151.805 41.6897 152.306 41.8263H150.966V43.0391H151.534V62.1006H150.966V63.3134H152.145V77.8027C151.876 77.9015 151.629 78.0543 151.421 78.2517C151.213 78.4492 151.047 78.6872 150.934 78.9511L138.938 79.5522H138.284L138.257 79.7776C138.23 80.0325 138.134 80.2753 137.98 80.4803C137.826 80.6853 137.62 80.8448 137.383 80.9421V80.4054H136.794V80.985C136.487 80.9385 136.208 80.7798 136.011 80.5395C135.815 80.2992 135.714 79.9944 135.729 79.6841C135.743 79.3737 135.872 79.0798 136.091 78.8592C136.309 78.6386 136.602 78.5069 136.912 78.4896V77.953C136.47 77.9777 136.055 78.1668 135.746 78.483C135.437 78.7993 135.257 79.2198 135.242 79.6619C135.228 80.1039 135.379 80.5356 135.666 80.8718C135.953 81.208 136.355 81.4245 136.794 81.4787V82.069L136.552 81.9724L128.898 100.755L129.134 100.851H128.753V101.812C128.753 102.895 129.183 103.934 129.948 104.7C130.713 105.466 131.751 105.896 132.832 105.896H141.339C141.875 105.897 142.406 105.792 142.902 105.587C143.397 105.382 143.847 105.081 144.227 104.702C144.606 104.322 144.907 103.872 145.112 103.376C145.318 102.88 145.423 102.349 145.423 101.812V100.851H145.038L145.279 100.755L137.619 81.9724L137.383 82.069V81.468C137.718 81.3891 138.022 81.2148 138.26 80.9662C138.498 80.7177 138.659 80.4055 138.723 80.0673H139.356L150.944 80.604C151.105 80.9846 151.375 81.3094 151.719 81.5377C152.063 81.766 152.467 81.8877 152.879 81.8877C153.292 81.8877 153.696 81.766 154.04 81.5377C154.384 81.3094 154.654 80.9846 154.814 80.604L166.403 80.0673H167.036C167.1 80.4055 167.261 80.7177 167.498 80.9662C167.736 81.2148 168.041 81.3891 168.376 81.468V82.069L168.14 81.9724L160.48 100.755L160.721 100.851H160.335V101.812C160.335 102.349 160.441 102.88 160.646 103.376C160.852 103.872 161.153 104.322 161.532 104.702C161.911 105.081 162.362 105.382 162.857 105.587C163.353 105.792 163.884 105.897 164.42 105.896H172.921C174.003 105.896 175.04 105.466 175.805 104.7C176.57 103.934 177 102.895 177 101.812V100.851L176.619 100.862Z" fill="#E09427"/>
</g>
</svg>
