<svg width="265" height="112" viewBox="0 0 265 112" fill="none" xmlns="http://www.w3.org/2000/svg">
<mask id="mask0" mask-type="alpha" maskUnits="userSpaceOnUse" x="0" y="0" width="265" height="112">
<rect width="265" height="112" fill="#C4C4C4"/>
</mask>
<g mask="url(#mask0)">
<path d="M172.294 25.2554C173.208 24.6342 173.86 24.0443 174.329 23.4634C176.376 20.9228 174.881 18.557 176.219 14.5231C177.358 11.0902 180.94 8.18006 182.041 7.36827C182.146 7.29603 182.253 7.22605 182.36 7.15625C177.483 16.621 188.99 22.9948 188.99 22.9948C188.99 22.9948 190.522 18.7583 193.858 19.9099C196.259 20.7392 197.269 24.544 195.403 27.9478C193.936 30.6213 191.484 29.7067 191.484 29.7067C191.484 29.7067 191.014 35.0161 188.262 36.2876C187.301 36.7318 185.697 37.2164 184.018 37.6594C180.892 38.4843 177.915 39.0922 177.915 39.0922C175.439 39.4338 174.773 38.0822 174.609 37.096C174.532 36.6274 174.578 36.1471 174.702 35.6886L175.028 34.4859C175.018 34.5007 174.919 34.5221 174 34.0019C172.94 33.4018 174.343 31.8276 174.343 31.8276C172.959 31.6217 172.472 30.6725 173.369 29.9008C174.265 29.1291 173.64 28.2238 173.64 28.2238C170.758 26.7178 172.294 25.2554 172.294 25.2554Z" fill="#F79A8B"/>
<path d="M179.131 27.544C179.1 29.2371 180.446 30.6346 182.137 30.6656C183.828 30.6967 185.225 29.3493 185.255 27.6563C185.287 25.9633 183.941 24.5657 182.249 24.5347C180.558 24.5037 179.162 25.851 179.131 27.544Z" fill="#EF8E84"/>
<path d="M196.387 28.5832C196.387 28.5832 197.267 29.2466 197.759 25.3951C198.251 21.5434 196.394 19.9764 194.042 20.9378C191.691 21.8991 191.078 23.8722 191.078 23.8722C191.078 23.8722 178.853 19.5271 180.09 8.94997C179.851 7.04504 185.357 3.98346 192.185 4.00007C201.388 4.02237 207.481 10.3868 207.622 19.977C207.763 29.5672 203.496 35.586 194.294 35.7218C194.251 35.7224 193.617 33.3999 194.229 31.9646C195.5 28.9883 196.387 28.5832 196.387 28.5832Z" fill="#FAE9CD"/>
<path d="M186.086 52.2742C186.086 52.0055 183.728 36.9541 183.736 36.8367L192.28 26.2324L197.641 29.6131C197.699 36.7863 202.716 49.7981 205.149 51.5933C205.149 51.5933 198.795 68.3077 193.587 68.6955C190.291 68.9417 188.21 53.4787 186.086 52.2742Z" fill="#F79A8B"/>
<path d="M146.792 104.886C149.48 93.0072 153.706 73.4176 154.994 69.549C156.872 63.9108 162.717 55.7294 174.144 52.4462C183.529 49.7507 185.195 46.4735 185.195 46.4735C195.537 47.4829 201.988 46.2125 202.118 46.0654C202.118 46.0654 203.387 49.1577 213.027 51.6509C226.431 55.1174 229.52 60.949 232.239 66.2326C234.631 70.8817 248.488 97.738 250.816 107.617C252.753 115.834 238.855 112.02 234.033 118.948L221.893 136.39L222.196 143.103L165.091 130.118L147.847 132.299C144.763 135.683 146.872 134.078 142.41 132.571L141.051 127.129C140.643 120.325 142.682 123.047 146.792 104.886Z" fill="#E5E5E5"/>
<path d="M184.102 7.26077C184.125 7.24292 184.097 7.27821 184.12 7.26089C184.12 7.26084 184.121 7.25799 184.121 7.25295C184.167 6.96739 184.313 6.70857 184.536 6.53065C185.185 6.01119 184.734 5.18143 190.074 4.19404C201.557 2.79061 206.605 9.30531 208.637 13.9109C208.979 14.601 209.297 15.4221 209.544 16.3463C209.857 17.3524 210.048 18.1649 210.192 18.6296C211.043 21.385 216.723 22.0035 218.421 24.6869C219.555 26.48 219.876 28.122 219.592 30.9636C219.309 33.8054 219.713 34.6078 224.984 36.9047C230.202 39.1791 230.987 43.4913 231.072 44.455C231.429 46.4074 231.607 51.0274 228.602 53.3712C228.564 53.4008 228.516 53.4192 228.516 53.4192C228.516 53.4157 228.551 53.4246 228.549 53.4192L226.853 53.5829C218.496 56.4012 209.733 60.883 203.383 55.4772C203.383 55.4772 201.318 53.3226 201.329 50.6977C201.363 42.7713 195.382 44.6425 192.392 39.5059C189.007 33.6927 195.757 28.8168 189.638 24.1847C182.776 18.9906 184.102 7.26077 184.102 7.26077Z" fill="#FAE9CD"/>
<ellipse rx="3.97117" ry="6.1695" transform="matrix(-1 0 0 1 191.355 32.9732)" fill="#722282"/>
<path d="M90.4224 32.5991C90.4224 32.5991 89.5282 33.2733 89.0285 29.3591C88.5282 25.4448 90.4152 23.8523 92.8055 24.8294C95.1952 25.8063 89.8901 33.5962 89.8901 33.5962C89.8901 33.5962 108.264 23.4419 107.008 12.6929C106.725 10.7433 100.194 7.69737 94.6924 7.61636C85.3413 7.47865 79.1487 14.1069 79.0054 23.853C78.8621 33.599 83.1978 39.7156 92.5496 39.8536C92.5929 39.8542 93.2378 37.4941 92.6152 36.0354C91.3237 33.0107 90.4224 32.5991 90.4224 32.5991Z" fill="#2B1212"/>
<path d="M114.986 29.2146C114.056 28.5833 113.393 27.9838 112.917 27.3935C110.837 24.8116 112.356 22.4073 110.996 18.3078C109.838 14.8191 106.199 11.8617 105.08 11.0368C104.973 10.9633 104.864 10.8922 104.756 10.8213C109.711 20.4398 98.0179 26.9172 98.0179 26.9172C98.0179 26.9172 96.4603 22.6119 93.0705 23.7823C90.6302 24.625 89.6036 28.4917 91.5008 31.9507C92.991 34.6677 95.4831 33.7382 95.4831 33.7382C95.4831 33.7382 95.9611 39.1339 98.7573 40.4261C99.7345 40.8776 101.364 41.37 103.07 41.8202C106.247 42.6586 109.272 43.2763 109.272 43.2763C111.788 43.6235 112.466 42.2499 112.632 41.2476C112.711 40.7715 112.665 40.2833 112.538 39.8174L112.206 38.5951C112.217 38.6102 112.317 38.6319 113.252 38.1033C114.329 37.4934 112.903 35.8936 112.903 35.8936C114.309 35.6844 114.804 34.7197 113.893 33.9355C112.982 33.1513 113.618 32.2312 113.618 32.2312C116.546 30.7008 114.986 29.2146 114.986 29.2146Z" fill="#A6581E"/>
<path d="M107.596 31.3956C107.627 33.1162 106.26 34.5365 104.541 34.568C102.822 34.5995 101.403 33.2303 101.371 31.5098C101.34 29.7893 102.708 28.369 104.426 28.3374C106.145 28.3059 107.564 29.6751 107.596 31.3956Z" fill="#96492A"/>
<path d="M100.969 56.672C100.969 56.399 103.366 41.103 103.358 40.9836L94.675 30.207L89.2266 33.6426C89.1676 40.9324 84.0702 54.1557 81.5962 55.9801C81.5962 55.9801 88.0543 72.9661 93.3461 73.3603C96.6962 73.6104 98.8114 57.8961 100.969 56.672Z" fill="#A6581E"/>
<path d="M140.902 110.139C138.249 98.0495 133.876 78.159 132.567 74.2276C130.659 68.4977 124.718 60.1834 113.105 56.8468C103.567 54.1075 101.875 50.777 101.875 50.777C91.3644 51.8028 84.8088 50.5118 84.6763 50.3623C84.6763 50.3623 83.3872 53.5048 73.5899 56.0386C59.968 59.5614 56.8299 65.4878 54.0663 70.8573C51.635 75.5819 37.5537 102.875 35.1869 112.914C33.218 121.264 47.3433 117.389 52.2425 124.429L64.5801 142.155L64.273 148.977L122.305 135.781L132.784 135.094C135.92 138.532 142.064 136.071 146.598 134.54L144.664 133.158C149.865 131.401 144.526 126.659 140.902 110.139Z" fill="#2B1212"/>
<path d="M44.818 67.4098C44.818 68.1879 44.1857 68.8198 43.4084 68.8198C42.6311 68.8198 42.001 68.1879 42.001 67.4098C42.001 66.6318 42.6311 66.001 43.4084 66.001C44.1857 66.001 44.818 66.6318 44.818 67.4098Z" fill="#FF8271"/>
<path d="M44.817 79.5807C44.817 80.3588 44.1847 80.9907 43.4074 80.9907C42.6301 80.9907 42 80.3588 42 79.5807C42 78.8048 42.6301 78.1719 43.4074 78.1719C44.1847 78.1719 44.817 78.8048 44.817 79.5807Z" fill="#FF8271"/>
<path d="M44.817 91.743C44.817 92.5211 44.1847 93.1508 43.4074 93.1508C42.6301 93.1508 42 92.5211 42 91.743C42 90.965 42.6301 90.332 43.4074 90.332C44.1847 90.332 44.817 90.965 44.817 91.743Z" fill="#FF8271"/>
<path d="M44.817 103.912C44.817 104.691 44.1847 105.322 43.4074 105.322C42.6301 105.322 42 104.691 42 103.912C42 103.133 42.6301 102.502 43.4074 102.502C44.1847 102.502 44.817 103.133 44.817 103.912Z" fill="#FF8271"/>
<path d="M51.1643 73.8982C51.1643 74.6742 50.5331 75.306 49.7547 75.306C48.9774 75.306 48.3462 74.6742 48.3462 73.8982C48.3462 73.1201 48.9774 72.4883 49.7547 72.4883C50.5331 72.4883 51.1643 73.1201 51.1643 73.8982Z" fill="#FF8271"/>
<path d="M51.1643 86.0611C51.1643 86.8403 50.5331 87.47 49.7547 87.47C48.9785 87.47 48.3462 86.8403 48.3462 86.0611C48.3462 85.2841 48.9785 84.6533 49.7547 84.6533C50.5331 84.6533 51.1643 85.2841 51.1643 86.0611Z" fill="#FF8271"/>
<path d="M51.1643 98.2342C51.1643 99.0122 50.5331 99.6441 49.7547 99.6441C48.9785 99.6441 48.3462 99.0122 48.3462 98.2342C48.3462 97.4572 48.9785 96.8242 49.7547 96.8242C50.5331 96.8242 51.1643 97.4572 51.1643 98.2342Z" fill="#FF8271"/>
<path d="M51.1643 110.403C51.1643 111.182 50.5331 111.814 49.7547 111.814C48.9785 111.814 48.3462 111.182 48.3462 110.403C48.3462 109.626 48.9785 108.994 49.7547 108.994C50.5331 108.994 51.1643 109.626 51.1643 110.403Z" fill="#FF8271"/>
<path d="M57.9137 67.4089C57.9137 68.1869 57.2846 68.8188 56.5063 68.8188C55.7279 68.8188 55.0967 68.1869 55.0967 67.4089C55.0967 66.6308 55.7279 66 56.5063 66C57.2846 66 57.9137 66.6308 57.9137 67.4089Z" fill="#FF8271"/>
<path d="M57.9137 79.5788C57.9137 80.3569 57.2846 80.9887 56.5063 80.9887C55.7279 80.9887 55.0967 80.3569 55.0967 79.5788C55.0967 78.8028 55.7279 78.1699 56.5063 78.1699C57.2846 78.1699 57.9137 78.8028 57.9137 79.5788Z" fill="#FF8271"/>
<path d="M57.9137 91.743C57.9137 92.5211 57.2846 93.1508 56.5063 93.1508C55.7279 93.1508 55.0967 92.5211 55.0967 91.743C55.0967 90.965 55.7279 90.332 56.5063 90.332C57.2846 90.332 57.9137 90.965 57.9137 91.743Z" fill="#FF8271"/>
<path d="M57.9137 103.912C57.9137 104.691 57.2846 105.322 56.5063 105.322C55.7279 105.322 55.0967 104.691 55.0967 103.912C55.0967 103.133 55.7279 102.502 56.5063 102.502C57.2846 102.502 57.9137 103.133 57.9137 103.912Z" fill="#FF8271"/>
<path d="M64.5292 73.8982C64.5292 74.6742 63.898 75.306 63.1218 75.306C62.3434 75.306 61.7144 74.6742 61.7144 73.8982C61.7144 73.1201 62.3434 72.4883 63.1218 72.4883C63.898 72.4883 64.5292 73.1201 64.5292 73.8982Z" fill="#FF8271"/>
<path d="M64.5292 86.0611C64.5292 86.8403 63.898 87.47 63.1218 87.47C62.3434 87.47 61.7144 86.8403 61.7144 86.0611C61.7144 85.2841 62.3434 84.6533 63.1218 84.6533C63.898 84.6533 64.5292 85.2841 64.5292 86.0611Z" fill="#FF8271"/>
<path d="M64.5292 98.2342C64.5292 99.0122 63.898 99.6441 63.1218 99.6441C62.3434 99.6441 61.7144 99.0122 61.7144 98.2342C61.7144 97.4572 62.3434 96.8242 63.1218 96.8242C63.898 96.8242 64.5292 97.4572 64.5292 98.2342Z" fill="#FF8271"/>
<path d="M64.5292 110.403C64.5292 111.182 63.898 111.814 63.1218 111.814C62.3434 111.814 61.7144 111.182 61.7144 110.403C61.7144 109.626 62.3434 108.994 63.1218 108.994C63.898 108.994 64.5292 109.626 64.5292 110.403Z" fill="#FF8271"/>
<path d="M72.0943 67.4089C72.0943 68.1869 71.4641 68.8177 70.6868 68.8177C69.9085 68.8177 69.2783 68.1869 69.2783 67.4089C69.2783 66.6297 69.9085 66 70.6868 66C71.4641 66 72.0943 66.6297 72.0943 67.4089Z" fill="#FF8271"/>
<path d="M72.0943 79.5809C72.0943 80.3579 71.4641 80.9898 70.6868 80.9898C69.9085 80.9898 69.2783 80.3579 69.2783 79.5809C69.2783 78.8018 69.9085 78.1699 70.6868 78.1699C71.4641 78.1699 72.0943 78.8018 72.0943 79.5809Z" fill="#FF8271"/>
<path d="M72.0943 91.7398C72.0943 92.52 71.4641 93.1519 70.6868 93.1519C69.9085 93.1519 69.2783 92.52 69.2783 91.7398C69.2783 90.9607 69.9085 90.332 70.6868 90.332C71.4641 90.332 72.0943 90.9607 72.0943 91.7398Z" fill="#FF8271"/>
<path d="M72.0943 103.912C72.0943 104.689 71.4641 105.319 70.6868 105.319C69.9085 105.319 69.2783 104.689 69.2783 103.912C69.2783 103.132 69.9085 102.502 70.6868 102.502C71.4641 102.502 72.0943 103.132 72.0943 103.912Z" fill="#FF8271"/>
<path d="M78.3072 73.8993C78.3072 74.6763 77.676 75.306 76.8997 75.306C76.1203 75.306 75.4912 74.6763 75.4912 73.8993C75.4912 73.1201 76.1203 72.4883 76.8997 72.4883C77.676 72.4883 78.3072 73.1201 78.3072 73.8993Z" fill="#FF8271"/>
<path d="M78.3072 86.0622C78.3072 86.8403 77.676 87.4721 76.8997 87.4721C76.1203 87.4721 75.4912 86.8403 75.4912 86.0622C75.4912 85.2841 76.1203 84.6533 76.8997 84.6533C77.676 84.6533 78.3072 85.2841 78.3072 86.0622Z" fill="#FF8271"/>
<path d="M78.3072 98.2342C78.3072 99.0133 77.676 99.6452 76.8997 99.6452C76.1203 99.6452 75.4912 99.0133 75.4912 98.2342C75.4912 97.4572 76.1203 96.8242 76.8997 96.8242C77.676 96.8242 78.3072 97.4572 78.3072 98.2342Z" fill="#FF8271"/>
<path d="M78.3072 110.405C78.3072 111.182 77.676 111.813 76.8997 111.813C76.1203 111.813 75.4912 111.182 75.4912 110.405C75.4912 109.625 76.1203 108.994 76.8997 108.994C77.676 108.994 78.3072 109.625 78.3072 110.405Z" fill="#FF8271"/>
<path d="M85.1974 67.4089C85.1974 68.1869 84.5672 68.8177 83.7878 68.8177C83.0116 68.8177 82.3804 68.1869 82.3804 67.4089C82.3804 66.6297 83.0116 66 83.7878 66C84.5672 66 85.1974 66.6297 85.1974 67.4089Z" fill="#FF8271"/>
<path d="M85.1974 79.5809C85.1974 80.3579 84.5672 80.9898 83.7878 80.9898C83.0116 80.9898 82.3804 80.3579 82.3804 79.5809C82.3804 78.8018 83.0116 78.1699 83.7878 78.1699C84.5672 78.1699 85.1974 78.8018 85.1974 79.5809Z" fill="#FF8271"/>
<path d="M85.1974 91.7398C85.1974 92.52 84.5672 93.1519 83.7878 93.1519C83.0116 93.1519 82.3804 92.52 82.3804 91.7398C82.3804 90.9607 83.0116 90.332 83.7878 90.332C84.5672 90.332 85.1974 90.9607 85.1974 91.7398Z" fill="#FF8271"/>
<path d="M85.1974 103.912C85.1974 104.689 84.5672 105.319 83.7878 105.319C83.0116 105.319 82.3804 104.689 82.3804 103.912C82.3804 103.132 83.0116 102.502 83.7878 102.502C84.5672 102.502 85.1974 103.132 85.1974 103.912Z" fill="#FF8271"/>
<path d="M91.812 73.8993C91.812 74.6763 91.1818 75.306 90.4045 75.306C89.6262 75.306 88.9971 74.6763 88.9971 73.8993C88.9971 73.1201 89.6262 72.4883 90.4045 72.4883C91.1818 72.4883 91.812 73.1201 91.812 73.8993Z" fill="#FF8271"/>
<path d="M91.812 86.0622C91.812 86.8403 91.1818 87.4721 90.4045 87.4721C89.6262 87.4721 88.9971 86.8403 88.9971 86.0622C88.9971 85.2841 89.6262 84.6533 90.4045 84.6533C91.1818 84.6533 91.812 85.2841 91.812 86.0622Z" fill="#FF8271"/>
<path d="M91.812 98.2342C91.812 99.0133 91.1818 99.6452 90.4045 99.6452C89.6262 99.6452 88.9971 99.0133 88.9971 98.2342C88.9971 97.4572 89.6262 96.8242 90.4045 96.8242C91.1818 96.8242 91.812 97.4572 91.812 98.2342Z" fill="#FF8271"/>
<path d="M91.812 110.405C91.812 111.182 91.1818 111.813 90.4045 111.813C89.6262 111.813 88.9971 111.182 88.9971 110.405C88.9971 109.625 89.6262 108.994 90.4045 108.994C91.1818 108.994 91.812 109.625 91.812 110.405Z" fill="#FF8271"/>
<path d="M98.2965 67.4089C98.2965 68.1869 97.6663 68.8177 96.889 68.8177C96.1117 68.8177 95.4805 68.1869 95.4805 67.4089C95.4805 66.6297 96.1117 66 96.889 66C97.6663 66 98.2965 66.6297 98.2965 67.4089Z" fill="#FF8271"/>
<path d="M98.2965 79.5809C98.2965 80.3579 97.6663 80.9898 96.889 80.9898C96.1117 80.9898 95.4805 80.3579 95.4805 79.5809C95.4805 78.8018 96.1117 78.1699 96.889 78.1699C97.6663 78.1699 98.2965 78.8018 98.2965 79.5809Z" fill="#FF8271"/>
<path d="M98.2965 91.7398C98.2965 92.52 97.6663 93.1519 96.889 93.1519C96.1117 93.1519 95.4805 92.52 95.4805 91.7398C95.4805 90.9607 96.1117 90.332 96.889 90.332C97.6663 90.332 98.2965 90.9607 98.2965 91.7398Z" fill="#FF8271"/>
<path d="M98.2965 103.912C98.2965 104.689 97.6663 105.319 96.889 105.319C96.1117 105.319 95.4805 104.689 95.4805 103.912C95.4805 103.132 96.1117 102.502 96.889 102.502C97.6663 102.502 98.2965 103.132 98.2965 103.912Z" fill="#FF8271"/>
<path d="M104.642 73.8993C104.642 74.6763 104.012 75.306 103.234 75.306C102.458 75.306 101.827 74.6763 101.827 73.8993C101.827 73.1201 102.458 72.4883 103.234 72.4883C104.012 72.4883 104.642 73.1201 104.642 73.8993Z" fill="#FF8271"/>
<path d="M104.642 86.0622C104.642 86.8403 104.012 87.4721 103.234 87.4721C102.458 87.4721 101.827 86.8403 101.827 86.0622C101.827 85.2841 102.458 84.6533 103.234 84.6533C104.012 84.6533 104.642 85.2841 104.642 86.0622Z" fill="#FF8271"/>
<path d="M104.642 98.2342C104.642 99.0133 104.012 99.6452 103.234 99.6452C102.458 99.6452 101.827 99.0133 101.827 98.2342C101.827 97.4572 102.458 96.8242 103.234 96.8242C104.012 96.8242 104.642 97.4572 104.642 98.2342Z" fill="#FF8271"/>
<path d="M104.642 110.405C104.642 111.182 104.012 111.813 103.234 111.813C102.458 111.813 101.827 111.182 101.827 110.405C101.827 109.625 102.458 108.994 103.234 108.994C104.012 108.994 104.642 109.625 104.642 110.405Z" fill="#FF8271"/>
<path d="M111.532 67.4089C111.532 68.1869 110.902 68.8177 110.126 68.8177C109.349 68.8177 108.716 68.1869 108.716 67.4089C108.716 66.6297 109.349 66 110.126 66C110.902 66 111.532 66.6297 111.532 67.4089Z" fill="#FF8271"/>
<path d="M111.532 79.5809C111.532 80.3579 110.902 80.9898 110.126 80.9898C109.349 80.9898 108.716 80.3579 108.716 79.5809C108.716 78.8018 109.349 78.1699 110.126 78.1699C110.902 78.1699 111.532 78.8018 111.532 79.5809Z" fill="#FF8271"/>
<path d="M111.532 91.7398C111.532 92.52 110.902 93.1519 110.126 93.1519C109.349 93.1519 108.716 92.52 108.716 91.7398C108.716 90.9607 109.349 90.332 110.126 90.332C110.902 90.332 111.532 90.9607 111.532 91.7398Z" fill="#FF8271"/>
<path d="M111.532 103.912C111.532 104.689 110.902 105.319 110.126 105.319C109.349 105.319 108.716 104.689 108.716 103.912C108.716 103.132 109.349 102.502 110.126 102.502C110.902 102.502 111.532 103.132 111.532 103.912Z" fill="#FF8271"/>
<path d="M118.147 73.8993C118.147 74.6763 117.519 75.306 116.739 75.306C115.962 75.306 115.333 74.6763 115.333 73.8993C115.333 73.1201 115.962 72.4883 116.739 72.4883C117.519 72.4883 118.147 73.1201 118.147 73.8993Z" fill="#FF8271"/>
<path d="M118.147 86.0622C118.147 86.8403 117.519 87.4721 116.739 87.4721C115.962 87.4721 115.333 86.8403 115.333 86.0622C115.333 85.2841 115.962 84.6533 116.739 84.6533C117.519 84.6533 118.147 85.2841 118.147 86.0622Z" fill="#FF8271"/>
<path d="M118.147 98.2342C118.147 99.0133 117.519 99.6452 116.739 99.6452C115.962 99.6452 115.333 99.0133 115.333 98.2342C115.333 97.4572 115.962 96.8242 116.739 96.8242C117.519 96.8242 118.147 97.4572 118.147 98.2342Z" fill="#FF8271"/>
<path d="M118.147 110.405C118.147 111.182 117.519 111.813 116.739 111.813C115.962 111.813 115.333 111.182 115.333 110.405C115.333 109.625 115.962 108.994 116.739 108.994C117.519 108.994 118.147 109.625 118.147 110.405Z" fill="#FF8271"/>
<path d="M124.765 67.4089C124.765 68.1869 124.134 68.8177 123.358 68.8177C122.581 68.8177 121.95 68.1869 121.95 67.4089C121.95 66.6297 122.581 66 123.358 66C124.134 66 124.765 66.6297 124.765 67.4089Z" fill="#FF8271"/>
<path d="M124.765 79.5809C124.765 80.3579 124.134 80.9898 123.358 80.9898C122.581 80.9898 121.95 80.3579 121.95 79.5809C121.95 78.8018 122.581 78.1699 123.358 78.1699C124.134 78.1699 124.765 78.8018 124.765 79.5809Z" fill="#FF8271"/>
<path d="M124.765 91.7398C124.765 92.52 124.135 93.1519 123.358 93.1519C122.581 93.1519 121.95 92.52 121.95 91.7398C121.95 90.9607 122.581 90.332 123.358 90.332C124.135 90.332 124.765 90.9607 124.765 91.7398Z" fill="#FF8271"/>
<path d="M124.765 103.912C124.765 104.689 124.134 105.319 123.358 105.319C122.581 105.319 121.95 104.689 121.95 103.912C121.95 103.132 122.581 102.502 123.358 102.502C124.134 102.502 124.765 103.132 124.765 103.912Z" fill="#FF8271"/>
<path d="M131.112 73.8993C131.112 74.6763 130.481 75.306 129.704 75.306C128.925 75.306 128.296 74.6763 128.296 73.8993C128.296 73.1201 128.925 72.4883 129.704 72.4883C130.481 72.4883 131.112 73.1201 131.112 73.8993Z" fill="#FF8271"/>
<path d="M131.112 86.0622C131.112 86.8403 130.481 87.4721 129.704 87.4721C128.925 87.4721 128.296 86.8403 128.296 86.0622C128.296 85.2841 128.925 84.6533 129.704 84.6533C130.481 84.6533 131.112 85.2841 131.112 86.0622Z" fill="#FF8271"/>
<path d="M131.112 98.2342C131.112 99.0133 130.481 99.6452 129.704 99.6452C128.925 99.6452 128.296 99.0133 128.296 98.2342C128.296 97.4572 128.925 96.8242 129.704 96.8242C130.481 96.8242 131.112 97.4572 131.112 98.2342Z" fill="#FF8271"/>
<path d="M131.112 110.405C131.112 111.182 130.481 111.813 129.704 111.813C128.925 111.813 128.296 111.182 128.296 110.405C128.296 109.625 128.925 108.994 129.704 108.994C130.481 108.994 131.112 109.625 131.112 110.405Z" fill="#FF8271"/>
<path d="M138 67.4089C138 68.1869 137.369 68.8177 136.594 68.8177C135.816 68.8177 135.186 68.1869 135.186 67.4089C135.186 66.6297 135.816 66 136.594 66C137.369 66 138 66.6297 138 67.4089Z" fill="#FF8271"/>
<path d="M138 79.5809C138 80.3579 137.369 80.9898 136.594 80.9898C135.816 80.9898 135.186 80.3579 135.186 79.5809C135.186 78.8018 135.816 78.1699 136.594 78.1699C137.369 78.1699 138 78.8018 138 79.5809Z" fill="#FF8271"/>
<path d="M138 91.7398C138 92.52 137.369 93.1519 136.594 93.1519C135.816 93.1519 135.186 92.52 135.186 91.7398C135.186 90.9607 135.816 90.332 136.594 90.332C137.369 90.332 138 90.9607 138 91.7398Z" fill="#FF8271"/>
<path d="M138 103.912C138 104.689 137.369 105.319 136.594 105.319C135.816 105.319 135.186 104.689 135.186 103.912C135.186 103.132 135.816 102.502 136.594 102.502C137.369 102.502 138 103.132 138 103.912Z" fill="#FF8271"/>
<path d="M103.855 11.0784C103.832 11.0603 103.86 11.0961 103.837 11.0785C103.837 11.0785 103.836 11.0756 103.835 11.0705C103.789 10.7803 106.017 11.4289 105.791 11.2481C105.131 10.7202 103.213 8.96533 97.7856 7.96182C86.1169 6.53564 80.9858 13.1562 78.9212 17.8367C78.5732 18.538 78.2511 19.3724 78 20.3116C77.6809 21.334 77.4871 22.1598 77.3407 22.632C76.4755 25.4322 74.8113 26.9123 73.0863 29.6394C71.9333 31.4615 71.6925 33.8039 71.9809 36.6915C72.2693 39.5796 75.9607 40.858 70.6039 43.1929C65.3012 45.5036 64.504 49.8865 64.4179 50.8653C64.0542 52.8494 60.9649 55.626 64.0193 58.0073C64.0579 58.0375 64.1066 58.0561 64.1066 58.0561C64.1066 58.0525 66.0737 57.2322 66.0755 57.2262L65.7967 58.2225C74.2899 61.0871 77.8074 65.5719 84.2612 60.0782C84.2612 60.0782 86.359 57.8886 86.3475 55.221C86.3132 47.1665 92.3914 49.068 95.4308 43.848C98.8699 37.9397 92.0096 32.9848 98.2287 28.2774C105.203 22.9989 103.855 11.0784 103.855 11.0784Z" fill="#2B1212"/>
<path d="M100.502 8.54412C100.502 8.54412 85.9623 36.3039 98.1186 56.4929C122.354 96.7415 78.6083 116.178 73.5296 97.977L78.0881 76.1923C78.0881 76.1923 59.7584 71.2796 56.5191 58.0587C54.1974 48.5812 65.0021 54.2062 73.7048 22.4707C79.7601 0.391278 100.882 8.37126 100.502 8.54412Z" fill="#FF7044"/>
</g>
</svg>
