<svg width="265" height="112" viewBox="0 0 265 112" fill="none" xmlns="http://www.w3.org/2000/svg">
<mask id="mask0" mask-type="alpha" maskUnits="userSpaceOnUse" x="0" y="0" width="265" height="112">
<rect width="265" height="112" fill="#C4C4C4"/>
</mask>
<g mask="url(#mask0)">
<path d="M158.524 29.8182C159.581 29.2226 160.349 28.6372 160.914 28.0451C163.384 25.4549 161.965 22.7332 163.796 18.4465C165.354 14.7984 169.537 11.9441 170.816 11.1573C170.937 11.0879 171.061 11.0211 171.184 10.9546C164.988 20.8544 176.996 28.8685 176.996 28.8685C176.996 28.8685 179.058 24.3779 182.602 25.9406C185.154 27.0654 185.913 31.3159 183.56 34.8659C181.713 37.654 179.113 36.4312 179.113 36.4312C179.113 36.4312 178.116 42.1911 174.99 43.3299C173.898 43.7278 172.099 44.1115 170.222 44.4426C166.727 45.0592 163.415 45.4526 163.415 45.4526C160.959 45.5852 160.218 44.363 160.026 43.3212C159.91 42.6859 159.996 42.0295 160.216 41.4222L160.676 40.1553C160.664 40.1707 160.553 40.1853 159.594 39.5325C158.49 38.7802 160.168 37.1876 160.168 37.1876C158.673 36.8366 158.226 35.7548 159.277 34.9932C160.328 34.2314 159.726 33.1849 159.726 33.1849C156.711 31.2766 158.524 29.8182 158.524 29.8182Z" fill="#F9EACB"/>
<path d="M179.867 36.7731C179.867 36.7731 180.427 37.8444 182.724 34.2593C185.023 30.6738 183.918 28.2477 181.133 28.0943C178.348 27.9408 177.003 28.9025 177.003 28.9025C177.003 28.9025 164.995 20.8884 171.191 10.9886C176.01 8.38697 181.842 7.96959 187.249 10.4366C196.441 14.6304 200.352 25.7874 195.985 35.3572C191.619 44.9265 179.191 45.1938 170 41C169.957 40.9804 174.855 40.243 176.137 39.1091C178.796 36.7576 179.867 36.7731 179.867 36.7731Z" fill="#C9C9C9"/>
<path d="M169.595 38.9782C169.595 39.0035 171.268 52.2018 171.268 52.2018H188.888L180.766 28.7754L169.595 38.9782Z" fill="#F9EACB"/>
<path d="M172.789 10.7468C172.789 10.7468 165.332 18.6313 175.965 28.7491L173.487 10.0664C172.794 10.2624 173.488 10.381 172.789 10.7468Z" fill="#C9C9C9"/>
<path d="M174.807 9.55396C171.152 10.2881 163.678 13.1926 162.333 18.8322L166.914 19.3273C166.914 19.3273 167.706 12.4312 174.807 9.55396Z" fill="#C9C9C9"/>
<path d="M185.582 43.6237C185.582 43.6237 178.505 41.7417 176.247 38.279C177.001 38.4296 181.171 37.4578 183.238 35.2529C183.238 35.2529 191.228 38.1284 185.582 43.6237Z" fill="#C9C9C9"/>
<path d="M187.921 14.5972C187.414 19.5703 191.036 24.0118 196.009 24.5179C200.982 25.0238 205.422 21.4027 205.929 16.4296C206.436 11.4564 202.814 7.0148 197.841 6.50894C192.868 6.00288 188.426 9.62429 187.921 14.5972Z" fill="#C9C9C9"/>
<path d="M171.249 51.9871L169.324 60.8095C169.342 61.0436 172.23 61.9206 172.419 61.8074H192.337L188.887 51.9871C188.887 51.9871 172.225 48.1291 171.249 51.9871Z" fill="#F9EACB"/>
<path d="M196.546 53.0863C196.546 53.0863 187.355 66.6476 165.688 53C163.733 54.1203 152.68 57.3967 150.286 74.0031C148.266 88.0166 146.236 105.32 143.75 115.41C142.511 120.439 142.812 125.995 144.619 130.655C147.167 137.228 151.172 145.502 155.952 148.209C156.027 148.25 160.017 107.811 160.062 107.908C160.301 108.424 159.009 158.307 159.967 158.825C167.179 162.719 207.134 178.331 219 125.509C219 125.509 216.284 108.54 215.166 91.7608C214.049 74.9801 211.495 65.5566 207.984 61.1893C204.473 56.8219 200.053 53.8338 196.546 53.0863Z" fill="#E53589"/>
<path d="M118.067 32.471C116.982 31.8597 116.194 31.2589 115.615 30.6513C113.079 27.993 114.536 25.1996 112.657 20.8C111.058 17.056 106.764 14.1266 105.452 13.319C105.327 13.2478 105.201 13.1793 105.074 13.111C111.433 23.2713 99.1095 31.4963 99.1095 31.4963C99.1095 31.4963 96.9926 26.8876 93.3556 28.4914C90.7363 29.6458 89.9578 34.0082 92.3726 37.6515C94.2677 40.513 96.9365 39.258 96.9365 39.258C96.9365 39.258 97.9599 45.1695 101.168 46.3383C102.289 46.7466 104.134 47.1404 106.061 47.4803C109.649 48.1132 113.047 48.5169 113.047 48.5169C115.568 48.653 116.329 47.3986 116.525 46.3294C116.645 45.6773 116.557 45.0037 116.331 44.3804L115.859 43.0801C115.871 43.0959 115.985 43.111 116.969 42.4409C118.102 41.6688 116.38 40.0343 116.38 40.0343C117.914 39.6741 118.373 38.5638 117.294 37.7822C116.215 37.0003 116.833 35.9263 116.833 35.9263C119.928 33.9678 118.067 32.471 118.067 32.471Z" fill="#A6581E"/>
<path d="M96.1632 39.6083C96.1632 39.6083 95.5881 40.7078 93.2301 37.0282C90.8706 33.3485 92.0056 30.8584 94.8636 30.701C97.7217 30.5435 99.1021 31.5305 99.1021 31.5305C99.1021 31.5305 111.426 23.3055 105.067 13.1452C100.122 10.4751 94.1352 10.0467 88.5862 12.5787C79.1529 16.8828 75.1387 28.3335 79.6208 38.155C84.1013 47.9762 96.5668 48.3041 106 44C106.044 43.9799 101.306 43.1695 99.9906 42.0057C97.2618 39.5923 96.1632 39.6083 96.1632 39.6083Z" fill="#5A2803"/>
<path d="M106.705 41.8717C106.705 41.8977 101.5 57.5 101.5 57.5L88 56L95.2401 31.4004L106.705 41.8717Z" fill="#A6581E"/>
<path d="M105.259 13.6983C105.259 13.6983 112.913 21.7903 101.999 32.1744L104.543 13C105.254 13.2011 104.542 13.3229 105.259 13.6983Z" fill="#5A2803"/>
<path d="M101.356 11.6737C105.107 12.4271 112.778 15.4081 114.158 21.1961L109.456 21.7042C109.456 21.7042 108.644 14.6266 101.356 11.6737Z" fill="#5A2803"/>
<path d="M90.2975 46.6393C90.2975 46.6393 97.5602 44.7078 99.8779 41.1539C99.1043 41.3085 95.1209 39.2619 92.9995 36.999C92.9995 36.999 84.5031 40.9994 90.2975 46.6393Z" fill="#5A2803"/>
<path d="M87.0298 39.8494C87.5499 44.9533 83.833 49.5118 78.729 50.0311C73.6249 50.5503 69.0682 46.834 68.5481 41.73C68.0281 36.6259 71.7449 32.0674 76.8489 31.5483C81.953 31.0289 86.5119 34.7456 87.0298 39.8494Z" fill="#5A2803"/>
<path d="M101.5 57.4994L105 65.3089C104.984 65.5601 102.475 66.5014 102.31 66.38L96.5466 75.9996L85 66.38L87.9982 55.84C87.9982 55.84 100.652 53.3586 101.5 57.4994Z" fill="#A6581E"/>
<path d="M88.024 56C88.024 56 85.9685 60.4029 77.9084 63.2538C68.2856 66.6579 63.0789 73.0873 61.4664 77.9223C60.5306 80.7285 57.9533 91.4082 55.9546 99.881C54.2913 106.929 55.7052 114.351 59.8442 120.293L71.1583 136.532L78.5428 130.237C78.5428 130.237 71.3144 110.55 72.5504 106.934C80.4979 83.6944 109.834 95.0181 88.024 56Z" fill="#805AD5"/>
<path d="M101.613 57.8916C101.613 57.8916 101.895 60.2292 111.272 63.292C120.976 66.4613 126.103 73.1255 127.714 77.9606C128.82 81.2788 132.534 98.0634 134.757 108.271C135.742 112.802 129.885 124.09 125.492 125.571C121.069 127.063 119.481 118.578 117.015 114.616L107.847 99.8902C107.847 99.8902 106.45 83.8077 103.065 82.0342C99.6804 80.2607 88.2332 84.8124 101.613 57.8916Z" fill="#805AD5"/>
<path d="M79.2743 79.9848L86.6092 79.1205V77.3252L94.2249 78.2222L101.842 77.3252V79.1205L109.177 79.9848C109.177 79.9848 132.066 105.373 135.451 160.261H52.9999C56.3847 105.373 79.2743 79.9848 79.2743 79.9848Z" fill="#805AD5"/>
</g>
</svg>
