<svg width="265" height="112" viewBox="0 0 265 112" fill="none" xmlns="http://www.w3.org/2000/svg">
<mask id="mask0" mask-type="alpha" maskUnits="userSpaceOnUse" x="0" y="0" width="265" height="112">
<rect width="265" height="112" fill="#C4C4C4"/>
</mask>
<g mask="url(#mask0)">
<path d="M162.812 17.742C162.812 17.742 179.77 11.5449 186.753 21.8447C193.736 32.145 189.092 41.5717 197.213 50.2332C202.45 55.8199 207.655 59.955 208.178 66.5889C208.702 73.2229 203.532 78.298 203.532 78.298L179.746 71.6869L171.89 58.768C171.89 58.768 180.347 52.6776 174.286 39.6616C168.224 26.6456 162.812 17.742 162.812 17.742Z" fill="#FEDBC4"/>
<path d="M173.711 39.7385C173.898 39.7132 174.084 39.6953 174.272 39.6666C179.692 38.8387 175.407 22.1365 175.407 22.1365C175.407 22.1365 163.313 12.4166 155.292 19.9294C153.002 22.0739 151.442 25.6039 151.539 27.9095C151.624 29.9312 151.055 31.9049 150.067 33.6709C147.979 37.3999 146.5 43.8799 149.181 50.3935C151.874 56.9323 157.002 58.3232 155.175 67.3272C155.175 67.3272 151.853 69.4125 163.089 72.216C180.632 76.5919 184.97 59.995 184.97 59.995C184.97 59.995 179.888 49.4554 173.711 39.7385Z" fill="#FEDBC4"/>
<path d="M150.633 37.437C152.573 35.7832 153.74 34.6927 154.426 34.0075C154.983 33.4518 155.33 32.7229 155.402 31.9396C155.842 27.079 160.544 22.543 160.544 22.543C194.963 37.2599 169.394 45.8752 169.394 45.8752C169.394 45.8752 169.434 47.2879 167.981 49.8566C166.527 52.4247 161.324 52.4689 161.324 52.4689C161.324 52.4689 153.63 52.5053 151.906 51.2848C150.946 50.6049 152.351 46.8677 152.351 46.8677L151.999 46.0985C152.282 45.4099 152.081 45.2861 152.006 44.712C153.019 44.9988 154.628 44.232 154.628 44.232L152.276 43.4687C152.072 42.6951 151.583 42.3423 151.583 42.3423C153.064 40.1969 151.985 40.012 150.879 39.0162C149.841 38.0786 150.633 37.437 150.633 37.437Z" fill="#F7985C"/>
<path d="M154.577 44.1826C154.577 44.1826 153.515 43.2896 152.781 42.6199C152.202 42.0905 151.532 42.2929 151.532 42.2929C151.532 42.2929 151.636 43.3877 152.319 43.6988C153.003 44.0098 154.577 44.1826 154.577 44.1826Z" fill="#E77849"/>
<path d="M154.675 44.1553C154.675 44.1553 153.333 46.1862 151.93 46.0202C150.528 45.8548 151.879 44.4712 151.879 44.4712C151.879 44.4712 154.07 44.4387 154.675 44.1553Z" fill="#E77849"/>
<path d="M160.782 19.4071C160.782 19.4071 159.066 27.5129 165.102 31.8048C170.224 35.4469 170.461 38.2543 169.652 41.5334C170.564 40.9889 171.088 39.5961 172.081 39.1652C173.143 38.7032 172.733 39.1579 173.565 39.4539C174.776 39.8844 176.055 40.0256 177.378 40.0795C179.064 40.1479 180.828 40.0198 182.289 39.1725C186.07 36.9794 184.344 29.819 182.771 26.6568C177.336 15.73 165.232 15.452 160.782 19.4071Z" fill="#FEDBC4"/>
<path d="M157.054 29.8489C157.054 29.8489 156.433 29.9512 156.708 31.0451C156.891 31.2906 158.327 30.6515 159.908 30.9373C160.698 31.08 161.733 32.0302 162.177 32.5689C162.177 32.5689 162.557 32.7179 162.632 32.4709C162.678 32.3165 161.518 30.8359 159.966 30.0789C159.035 29.6246 157.803 29.5455 157.054 29.8489Z" fill="#E77849"/>
<path d="M173.743 59.3371V45.3428L161.538 47.5115L160.912 59.7263C160.912 59.7263 168.533 64.7029 173.743 59.3371Z" fill="#F7985C"/>
<path d="M166.769 39.9457C165.476 42.3416 165.895 45.0757 167.705 46.0521C169.515 47.0295 172.03 45.8793 173.323 43.4835C174.616 41.0881 174.197 38.3544 172.387 37.377C170.577 36.4006 168.062 37.5508 166.769 39.9457Z" fill="#F7985C"/>
<path d="M169.755 39.1518C169.755 39.1518 170.881 37.5872 172.219 38.5059C173.559 39.424 172.912 42.0519 172.074 42.7376C171.236 43.4233 170.916 43.5451 170.916 43.5451C170.916 43.5451 172.456 41.5297 172.068 40.0287C171.679 38.5282 169.994 39.6832 169.994 39.6832C169.994 39.6832 169.49 40.5718 170.035 40.6567C170.581 40.7421 171.807 41.5574 170.762 42.4683C169.717 43.3796 170.394 44.0008 170.394 44.0008C170.394 44.0008 169.786 45.002 169.519 43.8213C169.252 42.6405 170.118 42.6041 169.865 41.7476C169.612 40.892 169.161 40.4771 169.755 39.1518Z" fill="#E77849"/>
<path d="M169.676 55.9771C170.545 52.9542 169.846 51.2406 168.456 49.0757C166.652 46.2101 167.868 42.6738 167.594 40.7651C166.226 34.3253 163.729 34.9902 161.563 23.9848L161.44 23.9678C159.86 33.1485 165.179 35.6172 166.64 41.0437C167.295 44.0772 165.989 47.0089 167.908 49.3907C169.292 51.213 169.957 52.9954 169.288 55.9319L169.676 55.9771Z" fill="#FEDBC4"/>
<path d="M124.295 105.755C125.844 98.3845 127.423 74.2641 143.482 71.249C159.423 68.2572 161.017 58.8096 161.017 58.8096C161.017 58.8096 162.618 60.4668 166.988 60.4668C171.367 60.4668 173.808 58.6543 173.808 58.6543C175.518 64.8723 176.45 68.2951 193.014 71.249C209.317 74.1554 213.651 94.6657 213.651 94.6657C213.651 94.6657 222.015 135.225 222.086 135.368C226.644 147.35 259.004 146.903 232.485 158.384C225.138 161.566 207.187 148.006 207.187 148.006C207.46 135.098 202.726 129.235 199.033 106.074L197.648 106.162C193.475 114.317 195.664 158.786 195.664 158.786L145.235 158.538C145.235 158.538 147.12 107.776 141.28 97.0199L136.427 150.887C136.427 150.887 116.412 154.06 109.064 150.878C82.78 139.497 117.822 129.611 124.295 105.755Z" fill="#1C1C1C"/>
<path d="M168.55 52.3117C169.005 52.5136 169.498 52.6133 169.995 52.6037C170.492 52.5942 170.982 52.4757 171.428 52.2566C171.874 52.0375 172.267 51.7231 172.579 51.3356C172.891 50.9481 173.114 50.4969 173.232 50.0139C173.351 49.5309 173.362 49.0278 173.264 48.54C173.167 48.0523 172.964 47.5918 172.67 47.1911C172.375 46.7903 171.996 46.4591 171.56 46.2207C171.123 45.9823 170.64 45.8426 170.143 45.8114L169.93 49.2045L168.55 52.3117Z" fill="#C4C4C4"/>
<path d="M118.502 164.26L142.839 140.732C141.977 131.248 128.393 77.0959 121.839 70.989C119.03 68.3723 113.523 66.2254 109.889 65.4329C96.1335 62.4333 93.279 56.687 91.8542 50.8984L81.1997 51.0431C81.1997 51.0431 77.4275 62.6473 64.15 65.4329C49.3685 68.5344 46.9173 78.0296 45.1824 89.6765C44.3627 95.1807 41.8955 120.16 42.8904 122.016C44.5472 125.108 53.4833 129.45 53.4833 129.45L58.8113 96.3672L64.0573 132.658L111.657 143.296L110.634 130.286C110.852 120.199 113.754 108.888 115.071 98.9058L115.226 96.4653C117.736 101.791 118.622 116.012 122.616 128.675C124.275 133.936 123.304 154.474 117.662 160.078L118.502 164.26Z" fill="#FFA409"/>
<path d="M92.7995 34.2744L93.046 54.6081C91.5265 59.2276 82.3735 60.7975 76.534 56.9899L75.5503 55.8087L77.0872 36.6611L92.7995 34.2744Z" fill="#D04C27"/>
<path d="M92.8975 53.2301L92.9688 45.1563C92.9688 45.1563 86.1088 45.6256 82.141 35.551C81.5349 34.6207 80.8623 41.108 83.6915 45.3834C85.9719 48.8285 92.8975 53.2301 92.8975 53.2301Z" fill="#D04C27"/>
<path d="M73.0352 13.376C68.7001 16.74 87.3542 6.07139 96.0021 19.101C96.0021 19.101 99.1642 23.6724 98.4722 26.0309L98.5688 26.9088L102.391 30.9998C102.391 30.9998 102.814 32.2281 101.724 32.7628C100.634 33.2976 100.51 33.7184 100.51 33.7184L101.928 35.5984L101.565 37.4551C101.565 37.4551 102.599 38.7581 101.871 39.5108C101.142 40.263 100.412 41.0977 100.412 41.0977L100.933 42.9336C100.933 42.9336 100.941 45.0941 99.3646 45.8477C97.7889 46.6014 88.5849 46.8697 86.9111 44.784C85.6406 43.2 83.2845 41.5684 82.559 38.3757L82.163 37.8899L82.0441 38.6218C80.3752 39.702 75.2899 35.1878 74.1557 33.3806C71.7235 29.5041 64.7435 34.4487 64.1267 30.1515C63.2513 24.0538 64.8474 17.8537 73.0352 13.376Z" fill="#D75A37"/>
<path d="M101.942 35.701C101.942 35.701 101.323 35.635 100.695 36.1537C99.9649 36.756 99.9343 37.3126 98.23 38.1784L101.607 37.4325L101.942 35.701Z" fill="#9C2E20"/>
<path d="M93.7627 16.0488C93.7821 16.0857 93.8661 16.0105 93.7948 15.8644C84.5146 3.21437 62.0873 19.1125 61.751 20.1588C59.1931 21.5579 68.4175 15.1355 67.0582 17.0034L67.0344 17.0044C64.0377 21.1114 63.5908 26.0089 64.192 30.1994C65.0675 36.2966 65.0758 46.3091 65.0758 46.3091L75.9909 44.4058C75.5527 43.2751 76.4976 37.8753 75.6619 36.8299C74.205 35.0077 72.936 30.4353 75.3644 28.8154C78.824 26.5073 80.4007 30.213 81.5252 31.5544L82.9563 31.251C82.9563 31.251 81.6251 29.7564 84.4568 27.0567C84.7077 26.817 84.9057 26.4656 85.059 26.0958C85.3944 25.2868 85.4648 24.4017 85.3997 23.5281C85.128 19.8657 87.9887 16.5899 93.5356 16.109L93.7627 16.0488Z" fill="#00061D"/>
<path d="M101.877 39.6233C101.877 39.6233 99.5308 40.1765 98.3486 38.3314L101.598 37.5996C101.598 37.5996 102.761 38.8153 101.877 39.6233Z" fill="#C24026"/>
<path d="M74.086 13.0064C74.086 13.0064 73.875 13.0063 72.5792 12.5352C71.1752 12.7879 71.0752 12.7879 69.8752 13.0063C69.2972 13.3509 68.7753 13.3879 67.2157 13.8547C65.3754 14.6878 64.3273 15.0695 63.8755 15.6877C63.4242 16.306 63.3755 16.3877 61.8756 17.2877C60.7757 18.6876 60.5757 18.5876 58.6758 20.2875C57.5293 21.4417 57.5293 21.4417 57.5293 21.4417C57.5293 21.4417 57.2479 21.7875 56.6758 23.3874C56.1929 24.7383 56.1929 24.7873 55.8764 26.4048C54.93 27.5872 54.8811 28.4396 54.8811 28.4396C54.8811 28.4396 54.3421 29.135 54.8812 30.1871C54.8812 31.2349 55.8396 31.5522 55.6183 31.8206C55.397 32.089 54.7156 33.1183 54.9301 33.9122C55.1441 34.7061 55.8434 35.0851 56.1929 35.2647C56.5423 35.4443 57.0795 35.9072 57.046 36.4998C57.0125 37.0923 56.5219 38.6506 57.2479 39.5401C57.9739 40.4296 59.239 40.3525 59.239 40.3525C59.239 40.3525 60.6503 40.5184 60.2426 42.198C59.835 43.8781 61.2273 44.1669 61.2273 44.1669L62.1474 44.2367C64.304 44.3425 73.376 34.5081 76.0257 24.4738C77.1322 20.2838 74.992 16.6834 74.086 13.0064Z" fill="#00061D"/>
<path d="M68.2841 21.6188C68.2841 21.6188 67.5722 21.8129 66.719 21.4106C65.8654 21.0078 65.105 21.2732 64.5939 21.7105C64.0829 22.1477 63.5321 23.7138 62.2146 23.8331C60.897 23.9525 59.9352 23.9749 59.595 24.6611C59.2548 25.3473 59.1888 27.0103 57.4568 27.5806C55.7238 28.1508 55.7755 28.0866 54.9828 29.9865C53.8389 31.5592 53.7756 32.4864 53.7756 32.4864C53.7756 32.4864 52.8286 33.5986 53.2071 34.858C53.5856 36.1168 53.1683 36.3862 53.1683 38.1259C52.2074 39.2173 52.5325 40.2995 52.5325 40.2995C52.5325 40.2995 52.4447 41.1344 52.5326 41.8859C52.4445 43.3859 52.1757 42.2859 52.4447 44.6502C52.1598 44.8491 53.1629 44.9389 53.5089 45.6848C53.8549 46.4307 54.6086 46.6855 54.9828 46.8029C55.3579 46.9208 55.9655 47.2858 56.0334 47.8754C56.1009 48.4655 55.8815 50.0844 56.7478 50.8376C57.6145 51.5913 58.8481 51.3001 58.8481 51.3001C58.8481 51.3001 60.2671 51.2244 60.1501 52.9491C60.0337 54.6738 61.4546 54.7224 61.4546 54.7224L62.3733 54.635C64.5168 54.3734 71.7889 43.1424 72.6978 32.8047C73.0778 28.4871 69.8011 25.0896 68.2841 21.6188Z" fill="#00061D"/>
<path d="M61.3799 68.0201C61.3799 68.0201 61.7759 68.4874 63.0769 68.4874C64.3758 68.784 64.4758 68.784 65.4694 68.4777C66.1003 68.072 67.0756 67.5841 68.6756 67.0841C70.2755 66.5841 71.6959 65.2908 72.1754 64.5842C72.6549 63.8781 72.4754 64.0842 74.2415 63.0745C76.2482 61.9272 76.2482 61.8843 76.669 60.4437C78.1751 58.7845 78.9217 57.6693 78.9217 57.6693C78.9217 57.6693 79.4011 57.1846 80.0364 55.6801C80.6716 54.1756 80.0364 53.7847 80.5736 52.0763C81.8004 51.016 81.6048 49.7717 81.6048 49.7717C81.6048 49.7717 81.5874 48.9064 80.8997 48.3464C80.2126 47.7859 80.4183 46.3402 80.6547 46.033C80.891 45.7258 81.1293 44.566 80.8599 43.6895C80.5911 42.8136 79.7976 42.4176 79.4011 42.2312C79.0051 42.0449 78.8707 41.5353 78.8853 40.8739C78.8998 40.2124 79.3871 38.4576 78.5441 37.4943C77.7017 36.531 76.2482 35.8468 76.2482 35.8468C76.2482 35.8468 74.9195 35.1009 75.3097 33.2136C75.6998 31.3263 73.9334 32.4915 73.9334 32.4915L72.906 32.4483C70.4995 32.4133 60.767 43.7167 58.1978 54.9978C57.1253 59.7085 60.2302 63.9577 61.3799 68.0201Z" fill="#00061D"/>
<path d="M57.321 41.0606C57.321 41.0606 56.8027 41.3984 56.0185 41.2965C55.2338 41.1946 54.6951 41.6017 54.3996 42.0822C54.1045 42.5626 52.5802 40.1381 52.9253 41.1922C53.808 43.887 50.4629 42.6786 51.169 45.7219C51.3141 46.3474 51.6058 47.2146 50.3697 48.1148C49.1337 49.0155 48.9545 50.6303 48.9545 52.1858C48.9546 53.7413 48.9546 53.7413 48.9546 53.7413C48.9546 53.7413 48.3295 55.4781 48.9546 56.3856C49.0758 57.4855 48.75 57.252 48.9758 58.3855C48.75 59.6519 49.553 60.0171 49.553 60.0171C49.553 60.0171 49.8471 60.5975 50.4954 60.7542C50.6757 61.5854 50.6362 62.0286 50.7757 62.3853C50.7155 62.6707 51.2491 63.5572 51.7169 64.0634C52.1847 64.57 52.7465 64.5881 53.0755 64.5852C53.4051 64.5828 53.5755 64.7852 54.2943 65.1635C54.4755 65.9851 54.7412 66.9649 55.6259 67.3435C56.5111 67.7215 57.1754 67.7851 57.1754 67.7851C57.1754 67.7851 57.8753 67.3851 58.8842 68.1534C59.9752 69.085 60.3808 69.2327 60.3808 69.2327C61.5057 68.9619 61.843 67.8467 62.8689 68.234C64.5116 67.474 65.651 57.3363 63.7186 48.852C62.9121 45.3094 59.4238 43.44 57.321 41.0606Z" fill="#00061D"/>
<path d="M76.2609 28.2379C72.5091 29.2123 73.5185 32.7234 74.8764 34.4219C75.6557 35.3964 75.7256 35.9273 76.5982 36.9474C79.1775 40.1872 82.1819 37.9481 81.6826 34.9329C81.5845 31.6451 80.0127 27.2634 76.2609 28.2379Z" fill="#D75A37"/>
<path d="M78.1879 29.6447C78.1879 29.6447 76.1769 28.5562 74.9816 30.1722C73.7859 31.7882 75.6668 34.3137 76.9242 34.7771C78.1816 35.2406 78.6053 35.2542 78.6053 35.2542C78.6053 35.2542 75.9886 33.5183 75.8372 31.6058C75.6853 29.6932 77.8104 30.3906 77.8104 30.3906C77.8104 30.3906 78.7591 31.2258 78.1554 31.5461C77.5517 31.8664 76.7592 33.2883 78.35 33.9318C79.9408 34.5753 79.4002 35.5759 79.4002 35.5759C79.4002 35.5759 80.5159 36.5014 80.3509 35.0125C80.1859 33.5231 79.1585 33.8303 79.1085 32.7263C79.0585 31.6223 79.4186 30.9555 78.1879 29.6447Z" fill="#C24026"/>
<path d="M82.9081 31.0907C82.9081 31.0907 82.3273 29.4873 84.1854 28.3726C86.0441 27.2574 85.6724 25.5846 85.6724 24.0977C85.6724 22.6112 84.9624 21.5897 87.1282 20.6905C88.77 20.0091 89.0179 19.3583 89.3897 18.1505C89.7614 16.9421 91.0935 16.9421 92.3014 16.9421C93.5093 16.9421 93.8189 15.8579 93.8189 15.8579C93.8189 15.8579 81.7842 10.3548 79.7251 15.7342C77.5471 21.4257 81.7832 31.66 82.9081 31.0907Z" fill="#00061D"/>
<path d="M79.9276 37.3613L77.4497 47.2734H84.1404L79.9276 37.3613Z" fill="#722282"/>
<path d="M173.443 122.206L167.002 93.586C166.993 93.5117 166.992 93.4385 166.979 93.3632C165.899 86.7274 165.759 72.7966 147.973 70.6264C132.361 68.7212 130.187 64.1313 130.187 64.1313L120.327 62.2217C118.629 68.3946 115.184 68.8299 100.316 71.0292C85.7724 73.1805 83.8807 93.5559 83.8807 93.5559L77.4322 122.206C76.4407 126.613 76.862 131.221 78.6362 135.375L85.7573 146.084L100.626 159.651L104.529 152.403L91.3503 133.7C90.4894 129.911 90.8713 129.705 92.0763 126.012L98.6433 100.735L98.3958 101.974L104.591 143.358L94.9264 164.174L147.647 158.722L152.665 99.6196L151.55 98.5044L159.931 122.969C161.136 126.663 161.318 130.614 160.457 134.403L158.985 140.88L159.914 143.296L166.791 148.128L172.239 135.375C174.013 131.221 174.434 126.613 173.443 122.206Z" fill="#93B0C6"/>
<path d="M140.241 42.1604C140.241 18.3986 124.383 20.6921 124.383 20.6921C124.383 20.6921 108.526 17.9624 108.526 42.1604C108.526 42.1604 108.397 53.3463 112.083 58.3254H117.902C117.902 58.3254 108.268 39.7039 123.333 38.7338L124.383 34.5501L125.434 38.7338C140.499 39.7039 130.38 58.3254 130.38 58.3254H136.684C140.37 53.3463 140.241 42.1604 140.241 42.1604Z" fill="#00061D"/>
<path d="M135.222 67.8031C129.662 65.6693 129.985 61.3371 129.985 61.3371L129.606 56.4876L124.428 57.1442L119.135 56.2227L118.87 61.3371C118.87 61.3371 119.193 65.6693 113.632 67.8031C108.072 69.9365 101.994 70.5183 101.994 70.5183C104.213 77.1751 117.184 81.7679 124.195 82.059L124.366 82.3512L124.428 82.3434L124.489 82.3512L124.195 82.059C131.205 81.7679 144.642 77.1751 146.861 70.5183C146.861 70.5183 140.783 69.9365 135.222 67.8031Z" fill="#D04C27"/>
<path d="M132.304 38.6805H125.514L124.071 32.4736L121.616 38.6805H116.269C116.269 38.6805 112.777 39.801 112.087 42.0858L113.3 50.0208C113.529 51.5218 113.976 52.9844 114.656 54.3428C114.9 54.8319 115.18 55.3197 115.493 55.7501C116.01 56.464 117.834 58.1698 119.119 59.3393C120.413 60.5171 122.065 61.2431 123.813 61.3436L123.812 61.3538H124.087C124.153 61.3552 124.22 61.3547 124.286 61.3542C124.353 61.3547 124.419 61.3552 124.486 61.3538H124.76V61.3436C126.507 61.2431 128.16 60.5171 129.454 59.3393C130.738 58.1698 132.562 56.464 133.08 55.7501C133.392 55.3197 133.673 54.8319 133.917 54.3428C134.596 52.9844 135.044 51.5218 135.273 50.0208L136.485 42.0858C135.795 39.801 132.304 38.6805 132.304 38.6805Z" fill="#DD6236"/>
<path d="M128.188 53.9823L128.102 53.8445C127.219 53.7154 125.818 52.1634 125.236 52.1848C124.886 52.1984 124.593 52.3891 124.413 52.5405C124.233 52.3891 123.939 52.1984 123.589 52.1848C123.007 52.1634 121.606 53.7154 120.723 53.8445L120.637 53.9823L124.413 53.8459L128.188 53.9823Z" fill="#B53F25"/>
<path d="M128.222 54.0862H120.627C120.627 54.0862 120.433 54.0644 120.562 54.3881L122.136 55.5732C122.136 55.5732 123.257 56.026 124.313 56.0691C124.353 56.0706 124.39 56.0682 124.425 56.0638C124.459 56.0682 124.496 56.0706 124.536 56.0691C125.592 56.026 126.713 55.5732 126.713 55.5732L128.287 54.3881C128.416 54.0644 128.222 54.0862 128.222 54.0862Z" fill="#B53F25"/>
<ellipse cx="123.293" cy="16.8997" rx="6.69968" ry="5.89972" fill="#00061D"/>
</g>
</svg>
