<svg width="246" height="246" viewBox="0 0 246 246" fill="none" xmlns="http://www.w3.org/2000/svg">
<g filter="url(#filter0_d)">
<path d="M246.036 0.82019H0.5V246.357H246.036V0.82019Z" fill="#FFE963"/>
<path d="M120.936 140.424C121.458 142.06 121.747 143.761 121.924 145.468C122.174 147.865 122.382 150.292 122.454 152.701C122.597 157.542 121.807 165.132 116.053 165.03C117.701 163.783 118.203 161.285 118.584 159.38C120.046 152.094 118.096 145.427 116.075 138.471C118.047 138.146 120.224 138.191 120.936 140.424Z" fill="#DB9600"/>
<path d="M107.314 135.247C107.713 133.733 109.049 133.503 110.399 133.37C110.7 135.11 110.177 136.897 110.2 138.658C109.258 138.876 108.311 139.141 107.396 139.447C107.334 138.077 106.961 136.576 107.314 135.247Z" fill="#DB9600"/>
<path d="M143.56 230.204C143.113 230.483 142.646 230.733 142.182 230.984C140.058 232.125 136.083 233.438 133.702 233.805C128.972 234.538 123.893 231.913 119.844 229.837C116.998 227.285 114.155 224.362 112.288 221.048C110.34 217.594 108.239 214.201 106.425 210.673C103.81 205.589 101.742 200.151 100.071 194.652L100.098 194.643C99.9869 194.317 99.8841 193.986 99.7756 193.659C99.6791 193.327 99.5758 192.997 99.4822 192.666L99.4551 192.674C97.7083 187.198 96.3229 181.548 95.5884 175.878C95.0796 171.945 94.8798 167.959 94.523 164.008C94.1782 160.22 94.8579 156.199 95.7518 152.483C97.9069 148.476 100.595 143.43 104.906 141.349C106.312 140.669 108.49 139.939 110.505 139.434C110.669 139.477 110.854 139.44 110.972 139.323C111.893 139.105 112.767 138.936 113.489 138.857C114.012 138.799 114.538 138.738 115.065 138.715C115.445 138.698 115.72 140.286 115.786 140.51C116.122 141.646 116.465 142.78 116.776 143.922C118.105 148.799 118.86 153.719 117.855 158.734C117.52 160.392 117.212 162.994 115.874 164.187C115.468 164.547 114.999 164.754 114.496 164.86C114.343 164.826 114.004 165.1 113.614 164.94C112.082 164.92 109.92 163.779 108.685 163.287C106.468 168.212 106.52 176.032 108.096 182.133C108.718 184.545 109.278 186.994 109.976 189.398L109.97 189.399C110.066 189.729 110.179 190.056 110.282 190.386C110.384 190.716 110.477 191.049 110.588 191.377L110.593 191.375C111.383 193.747 112.311 196.083 113.169 198.423C115.336 204.337 119.734 210.804 124.354 213.601C125.091 212.494 126.223 210.327 127.473 209.442C127.704 209.087 128.138 209.121 128.246 209.007C128.719 208.808 129.224 208.713 129.762 208.778C131.542 209 133.271 210.966 134.488 212.144C138.164 215.699 140.336 220.177 142.01 224.947C142.404 226.064 142.767 227.19 143.134 228.316C143.206 228.538 143.882 230.002 143.56 230.204Z" fill="#FCB315"/>
<path d="M144.605 229.822C142.319 222.948 140.14 216.354 134.799 211.187C133.402 209.835 131.571 208.062 129.506 207.972C134.185 204.622 139.145 210.422 141.777 214.486C143.086 216.509 144.292 218.626 145.446 220.74C146.27 222.247 147 223.81 147.497 225.454C148.179 227.698 146.413 228.97 144.605 229.822Z" fill="#DB9600"/>
<path d="M213.186 72.1366C213.709 73.7732 213.997 75.4738 214.175 77.1814C214.424 79.5784 214.633 82.0061 214.705 84.4135C214.847 89.2544 214.057 96.8452 208.303 96.7424C209.951 95.4968 210.453 92.9976 210.834 91.0931C212.296 83.8055 210.346 77.1404 208.325 70.1842C210.297 69.8597 212.474 69.9036 213.186 72.1366Z" fill="#1B001D"/>
<path d="M199.563 66.9308C199.963 65.4167 201.299 65.1868 202.649 65.0529C202.95 66.7933 202.427 68.5806 202.45 70.3413C201.508 70.559 200.561 70.8235 199.646 71.1301C199.584 69.7604 199.212 68.2589 199.563 66.9308Z" fill="#401044"/>
<path d="M235.81 161.888C235.363 162.166 234.896 162.416 234.433 162.667C232.309 163.808 228.333 165.121 225.952 165.488C221.222 166.222 216.144 163.596 212.094 161.521C209.249 158.969 206.405 156.045 204.538 152.731C202.59 149.277 200.49 145.884 198.675 142.357C196.06 137.272 193.993 131.834 192.321 126.335L192.348 126.327C192.237 126 192.134 125.67 192.026 125.342C191.929 125.01 191.825 124.68 191.732 124.348L191.706 124.357C189.958 118.88 188.573 113.231 187.839 107.561C187.33 103.629 187.13 99.6428 186.773 95.6918C186.428 91.903 187.109 87.8827 188.003 84.1661C190.157 80.1591 192.846 75.1132 197.157 73.032C198.562 72.3524 200.741 71.6219 202.755 71.1172C202.92 71.1605 203.105 71.1229 203.223 71.0057C204.143 70.7886 205.018 70.6194 205.739 70.5397C206.263 70.4814 206.789 70.4213 207.315 70.3982C207.695 70.3809 207.97 71.9689 208.036 72.193C208.373 73.3288 208.716 74.463 209.026 75.6058C210.355 80.4831 211.111 85.4025 210.105 90.4166C209.77 92.0757 209.462 94.6777 208.124 95.8702C207.719 96.2305 207.249 96.4384 206.747 96.543C206.593 96.5095 206.254 96.7838 205.864 96.6226C204.332 96.603 202.171 95.4625 200.935 94.9699C198.719 99.8951 198.771 107.716 200.346 113.816C200.968 116.229 201.529 118.678 202.227 121.081L202.22 121.082C202.316 121.413 202.429 121.739 202.532 122.07C202.634 122.4 202.727 122.732 202.838 123.06L202.844 123.058C203.632 125.431 204.561 127.766 205.419 130.106C207.586 136.021 211.984 142.488 216.604 145.284C217.341 144.177 218.473 142.01 219.723 141.124C219.954 140.77 220.388 140.804 220.496 140.691C220.97 140.491 221.474 140.396 222.012 140.461C223.793 140.683 225.521 142.649 226.738 143.827C230.413 147.381 232.587 151.86 234.261 156.63C234.655 157.747 235.017 158.873 235.384 160C235.456 160.222 236.133 161.686 235.81 161.888Z" fill="#8534B2"/>
<path d="M236.855 161.535C234.569 154.662 232.39 148.068 227.049 142.9C225.652 141.549 223.821 139.775 221.756 139.686C226.436 136.335 231.395 142.136 234.027 146.2C235.336 148.222 236.542 150.339 237.696 152.453C238.52 153.96 239.25 155.523 239.748 157.167C240.429 159.411 238.663 160.684 236.855 161.535Z" fill="#1B001D"/>
<path d="M41.4182 123.367C41.9408 125.003 42.229 126.704 42.4074 128.412C42.6569 130.809 42.8653 133.236 42.9364 135.643C43.079 140.485 42.289 148.075 36.5352 147.973C38.1832 146.726 38.6851 144.228 39.0662 142.323C40.5289 135.036 38.5782 128.371 36.5571 121.414C38.5291 121.089 40.7062 121.134 41.4182 123.367Z" fill="#94144B"/>
<path d="M27.796 118.191C28.1961 116.677 29.5318 116.447 30.8814 116.313C31.1822 118.053 30.6596 119.841 30.6821 121.601C29.7409 121.82 28.7932 122.084 27.8791 122.39C27.8162 121.02 27.4437 119.519 27.796 118.191Z" fill="#EB3279"/>
<path d="M64.0423 213.118C63.5954 213.397 63.1282 213.647 62.6651 213.897C60.5406 215.038 56.5653 216.352 54.1844 216.718C49.4538 217.452 44.375 214.826 40.3258 212.75C37.4806 210.199 34.6372 207.275 32.7697 203.961C30.8219 200.507 28.7211 197.114 26.9078 193.587C24.2925 188.503 22.2246 183.065 20.5534 177.565L20.58 177.557C20.4691 177.231 20.3663 176.9 20.2577 176.572C20.1613 176.24 20.0574 175.91 19.965 175.579L19.9378 175.588C18.1904 170.111 16.8051 164.461 16.0711 158.791C15.5612 154.858 15.362 150.873 15.0051 146.922C14.661 143.133 15.3406 139.113 16.2345 135.397C18.3891 131.389 21.0777 126.343 25.3885 124.263C26.7941 123.582 28.9729 122.852 30.9865 122.348C31.1511 122.39 31.337 122.353 31.4548 122.236C32.3753 122.018 33.2496 121.849 33.9708 121.77C34.4946 121.712 35.0212 121.652 35.5473 121.628C35.9273 121.611 36.2021 123.199 36.268 123.423C36.6046 124.559 36.9476 125.693 37.2577 126.836C38.5876 131.712 39.343 136.633 38.337 141.647C38.0027 143.306 37.6943 145.908 36.3563 147.1C35.9509 147.461 35.4809 147.668 34.9779 147.774C34.8255 147.739 34.4859 148.013 34.0961 147.853C32.5641 147.833 30.4027 146.692 29.1669 146.2C26.9506 151.126 27.0025 158.946 28.5779 165.045C29.2004 167.459 29.7611 169.907 30.4592 172.311L30.4529 172.312C30.5488 172.643 30.6608 172.969 30.7641 173.3C30.8658 173.629 30.9588 173.963 31.0696 174.29L31.0748 174.288C31.8642 176.661 32.7934 178.996 33.6515 181.336C35.8181 187.251 40.2155 193.718 44.8364 196.514C45.5738 195.407 46.7057 193.241 47.9553 192.354C48.1857 192 48.6199 192.034 48.7285 191.921C49.2015 191.722 49.7062 191.626 50.2444 191.691C52.0241 191.913 53.753 193.879 54.9698 195.057C58.6459 198.611 60.8189 203.09 62.4924 207.86C62.8868 208.978 63.2495 210.103 63.6167 211.23C63.6883 211.452 64.3645 212.916 64.0423 213.118Z" fill="#EB3279"/>
<path d="M65.0878 212.765C62.8022 205.891 60.6223 199.297 55.2819 194.129C53.885 192.778 52.0533 191.005 49.9883 190.916C54.6675 187.565 59.6273 193.365 62.26 197.429C63.568 199.452 64.7749 201.569 65.9292 203.682C66.7532 205.19 67.482 206.753 67.9804 208.397C68.6618 210.641 66.8965 211.913 65.0878 212.765Z" fill="#94144B"/>
<path d="M159.148 23.9427C160.499 24.0761 161.835 24.306 162.234 25.8201C162.586 27.1488 162.214 28.6497 162.151 30.02C161.236 29.7128 160.289 29.4489 159.348 29.2306C159.371 27.4699 158.847 25.6827 159.148 23.9427Z" fill="#EB3279"/>
<path d="M147.298 43.2734C147.37 40.8659 147.578 38.4383 147.828 36.0412C148.006 34.3342 148.294 32.6336 148.816 30.9971C149.529 28.7634 151.705 28.7195 153.677 29.0441C151.656 36.0002 149.706 42.6659 151.169 49.9529C151.55 51.858 152.052 54.3567 153.7 55.6029C147.946 55.7057 147.155 48.1149 147.298 43.2734Z" fill="#94144B"/>
<path d="M125.101 120.395C123.293 119.543 121.527 118.271 122.208 116.027C122.706 114.383 123.436 112.82 124.259 111.313C125.414 109.199 126.621 107.082 127.929 105.059C130.561 100.995 135.52 95.1945 140.2 98.5461C138.135 98.635 136.304 100.408 134.907 101.76C129.566 106.927 127.387 113.521 125.101 120.395Z" fill="#94144B"/>
<path d="M175.025 54.5817C174.669 58.5327 174.469 62.5189 173.96 66.4509C173.226 72.121 171.84 77.7703 170.093 83.247L170.066 83.2389C169.973 83.5693 169.87 83.9007 169.773 84.2322C169.665 84.5596 169.562 84.8905 169.451 85.2168L169.478 85.2248C167.807 90.7246 165.739 96.1626 163.123 101.246C161.31 104.774 159.209 108.167 157.262 111.621C155.394 114.935 152.55 117.858 149.705 120.411C145.656 122.486 140.577 125.112 135.847 124.378C133.466 124.011 129.491 122.699 127.366 121.557C126.903 121.306 126.436 121.056 125.989 120.778C125.667 120.575 126.343 119.112 126.414 118.889C126.782 117.763 127.144 116.638 127.538 115.52C129.212 110.75 131.385 106.271 135.061 102.717C136.278 101.539 138.007 99.5731 139.787 99.3514C140.324 99.2861 140.829 99.3808 141.303 99.5806C141.411 99.6938 141.845 99.6603 142.076 100.014C143.326 100.901 144.457 103.067 145.195 104.174C149.815 101.378 154.213 94.9107 156.38 88.9963C157.238 86.6564 158.167 84.3211 158.956 81.9477L158.961 81.9495C159.072 81.622 159.165 81.2894 159.267 80.9603C159.37 80.6294 159.483 80.3025 159.578 79.9722L159.572 79.9705C160.27 77.5677 160.831 75.1186 161.453 72.7054C163.029 66.6056 163.081 58.785 160.864 53.8604C159.629 54.3524 157.467 55.4929 155.936 55.5131C155.545 55.6736 155.206 55.3999 155.053 55.4328C154.55 55.3283 154.08 55.121 153.675 54.7601C152.337 53.5676 152.029 50.9656 151.694 49.3071C150.688 44.293 151.443 39.373 152.773 34.4957C153.084 33.3529 153.427 32.2199 153.763 31.0829C153.829 30.8588 154.104 29.2713 154.484 29.2881C155.01 29.3112 155.536 29.3718 156.06 29.4302C156.782 29.5093 157.656 29.6785 158.576 29.8962C158.694 30.0128 158.88 30.0509 159.044 30.0076C161.058 30.5123 163.237 31.2422 164.643 31.9225C168.953 34.0037 171.642 39.0496 173.797 43.0572C174.691 46.7732 175.37 50.7929 175.025 54.5817Z" fill="#EB3279"/>
<path d="M70.7274 40.2761C71.25 41.9127 71.5381 43.6133 71.7154 45.3209C71.9655 47.7179 72.1739 50.145 72.2455 52.5525C72.3876 57.3939 71.5976 64.9841 65.8438 64.8813C67.4918 63.6357 67.9937 61.1371 68.3748 59.232C69.8381 51.945 67.8874 45.2793 65.8663 38.3231C67.8383 37.9986 70.0148 38.0425 70.7274 40.2761Z" fill="#1B001D"/>
<path d="M57.1042 35.0991C57.5044 33.585 58.8406 33.3552 60.1907 33.2218C60.4916 34.9623 59.9684 36.749 59.9909 38.5102C59.0496 38.7279 58.102 38.9924 57.1879 39.299C57.125 37.9293 56.7525 36.4273 57.1042 35.0991Z" fill="#401044"/>
<path d="M93.3511 130.026C92.9042 130.305 92.437 130.555 91.9733 130.806C89.8494 131.947 85.8741 133.26 83.4932 133.627C78.7626 134.361 73.6844 131.735 69.6352 129.659C66.7895 127.107 63.9466 124.183 62.0791 120.869C60.1313 117.416 58.0305 114.023 56.2166 110.495C53.6013 105.412 51.534 99.9725 49.8622 94.4733L49.8888 94.4652C49.7779 94.139 49.6751 93.8081 49.5671 93.4806C49.4701 93.1486 49.3667 92.8183 49.2732 92.4874L49.2466 92.4961C47.4992 87.0194 46.1139 81.3689 45.3794 75.6999C44.8706 71.7668 44.6708 67.7811 44.3139 63.8301C43.9692 60.0414 44.6494 56.0216 45.5428 52.3051C47.6979 48.298 50.3866 43.2521 54.6973 41.1709C56.1029 40.4913 58.2822 39.7608 60.2959 39.2567C60.4604 39.2994 60.6452 39.2618 60.7642 39.1452C61.6847 38.9269 62.5584 38.7577 63.2802 38.6786C63.804 38.6203 64.3306 38.5602 64.8561 38.5371C65.2361 38.5198 65.5115 40.1078 65.5774 40.3319C65.9134 41.4678 66.2564 42.6019 66.5671 43.7447C67.8965 48.6214 68.6518 53.5414 67.6458 58.555C67.3115 60.214 67.0037 62.8161 65.6651 64.008C65.2597 64.3689 64.7903 64.5768 64.2867 64.6813C64.1343 64.6484 63.7953 64.9221 63.4049 64.7616C61.8735 64.7414 59.7115 63.6009 58.4757 63.1083C56.26 68.0341 56.3108 75.8547 57.8867 81.9544C58.5092 84.3671 59.0699 86.8161 59.7681 89.2195L59.7617 89.2207C59.8576 89.5516 59.9702 89.8778 60.073 90.2081C60.1752 90.5379 60.2681 90.8711 60.379 91.1985L60.3842 91.1962C61.1736 93.5696 62.1022 95.9048 62.9603 98.2447C65.1269 104.16 69.5249 110.626 74.1452 113.423C74.8826 112.316 76.0145 110.149 77.2647 109.263C77.4951 108.909 77.9288 108.942 78.0373 108.829C78.5108 108.629 79.0155 108.535 79.5526 108.6C81.3335 108.822 83.0624 110.787 84.2791 111.965C87.9547 115.52 90.1277 119.998 91.8018 124.768C92.1956 125.886 92.5571 127.012 92.9255 128.138C92.9971 128.36 93.6733 129.824 93.3511 130.026Z" fill="#8534B2"/>
<path d="M94.3959 129.674C92.1097 122.8 89.9303 116.206 84.5899 111.038C83.193 109.687 81.3619 107.914 79.2969 107.825C83.9761 104.474 88.9354 110.274 91.5674 114.338C92.876 116.36 94.0829 118.477 95.2372 120.591C96.0613 122.099 96.79 123.662 97.289 125.306C97.9698 127.549 96.2039 128.822 94.3959 129.674Z" fill="#1B001D"/>
<path d="M144.558 229.83C142.272 222.956 140.093 216.361 134.752 211.194C133.355 209.843 131.524 208.07 129.459 207.98C134.138 204.63 139.098 210.43 141.73 214.494C143.038 216.516 144.245 218.634 145.399 220.747C146.223 222.254 146.953 223.818 147.45 225.462C148.132 227.705 146.366 228.977 144.558 229.83ZM143.64 230.191C143.193 230.469 142.726 230.72 142.262 230.971C140.138 232.112 136.163 233.425 133.782 233.792C129.052 234.525 123.973 231.9 119.924 229.824C117.079 227.271 114.235 224.348 112.368 221.034C110.42 217.58 108.319 214.188 106.505 210.66C103.89 205.576 101.822 200.138 100.151 194.638L100.178 194.63C100.067 194.304 99.9642 193.973 99.8556 193.646C99.7592 193.314 99.6558 192.983 99.5623 192.652L99.5351 192.661C97.7883 187.184 96.4029 181.535 95.6684 175.864C95.1597 171.932 94.9599 167.946 94.603 163.995C94.2582 160.206 94.9379 156.186 95.8318 152.47C97.9869 148.462 100.675 143.417 104.986 141.336C106.392 140.656 108.57 139.925 110.585 139.421C110.749 139.464 110.934 139.426 111.052 139.31C111.973 139.092 112.847 138.923 113.569 138.844C114.092 138.785 114.619 138.725 115.145 138.702C115.525 138.685 115.8 140.272 115.866 140.496C116.203 141.633 116.545 142.766 116.856 143.909C118.186 148.786 118.94 153.706 117.935 158.721C117.6 160.379 117.292 162.981 115.954 164.174C115.548 164.534 115.079 164.741 114.576 164.846C114.423 164.813 114.084 165.087 113.694 164.927C112.162 164.906 110 163.765 108.765 163.273C106.548 168.199 106.6 176.019 108.176 182.119C108.798 184.532 109.358 186.981 110.057 189.385L110.05 189.386C110.146 189.716 110.259 190.043 110.362 190.373C110.464 190.702 110.557 191.036 110.668 191.364L110.673 191.362C111.463 193.734 112.391 196.069 113.249 198.41C115.416 204.324 119.814 210.791 124.434 213.587C125.171 212.481 126.303 210.314 127.553 209.428C127.784 209.073 128.218 209.107 128.326 208.994C128.799 208.794 129.304 208.7 129.842 208.765C131.622 208.987 133.351 210.953 134.568 212.13C138.244 215.685 140.416 220.163 142.09 224.933C142.484 226.051 142.847 227.177 143.214 228.303C143.286 228.525 143.962 229.988 143.64 230.191ZM107.362 135.24C107.762 133.726 109.097 133.496 110.447 133.362C110.748 135.103 110.226 136.889 110.248 138.651C109.307 138.869 108.359 139.134 107.445 139.44C107.382 138.07 107.01 136.568 107.362 135.24ZM120.968 140.431C121.49 142.066 121.779 143.768 121.956 145.475C122.206 147.872 122.414 150.299 122.486 152.707C122.629 157.548 121.839 165.139 116.085 165.036C117.733 163.789 118.235 161.291 118.616 159.386C120.078 152.1 118.128 145.433 116.107 138.478C118.079 138.152 120.256 138.197 120.968 140.431ZM106.771 6.35C107.483 6.26453 109.72 6.99618 107.535 7.83986C106.669 8.17363 105.803 7.99577 105.071 7.53784C105.45 6.92227 106.021 6.43951 106.771 6.35ZM106.173 12.8546C107.146 12.1131 109.097 11.7614 108.775 13.5729C108.48 15.2216 106.474 14.3525 105.462 13.5302C105.674 13.2854 105.909 13.0555 106.173 12.8546ZM106.87 20.0486C108.223 19.8904 108.812 21.8382 107.014 21.8497C106.194 21.8555 105.601 21.4848 105.164 20.9454C105.504 20.4765 106.051 20.1445 106.87 20.0486ZM107.452 25.683C108.255 25.3619 109.449 26.3649 108.479 27.0989C107.817 27.5996 106.99 27.219 106.279 26.4302C106.617 26.1097 107.017 25.8556 107.452 25.683ZM107.243 31.5483C108.228 31.2105 110.138 32.843 108.301 33.4377C107.202 33.7929 106.384 33.3309 105.835 32.5814C106.167 32.109 106.639 31.755 107.243 31.5483ZM107.956 38.0448L106.869 38.4132C106.749 38.3416 106.655 38.2451 106.55 38.1591C106.912 37.6862 107.549 37.424 107.956 38.0448ZM107.883 44.2779C108.423 44.2202 108.788 45.1909 108.308 45.2284C107.684 45.2764 107.191 45.0234 106.793 44.6475C107.106 44.4535 107.471 44.3224 107.883 44.2779ZM110.02 49.5311C110.58 50.8911 108.7 50.6416 108.232 50.5619C107.806 50.4897 107.457 50.328 107.141 50.1219C107.815 48.7914 109.192 47.5187 110.02 49.5311ZM107.868 54.6036C108.06 54.4673 108.253 54.3316 108.445 54.1947C110.697 54.3524 110.704 54.6965 108.464 55.2267C108.21 55.1002 107.995 54.9039 107.804 54.6752C107.825 54.6515 107.845 54.6267 107.868 54.6036ZM108.486 60.2142C110.032 59.5946 109.607 61.0342 108.956 60.6681C108.761 60.5584 108.582 60.4158 108.414 60.2541C108.438 60.2425 108.459 60.2246 108.486 60.2142ZM108.775 64.4055C109.53 64.1756 109.545 64.3535 109.178 64.8189C108.716 65.4033 108.27 65.2411 107.913 64.8513C108.169 64.6665 108.448 64.506 108.775 64.4055ZM109.541 71.6342C110.158 73.2216 108.329 72.8215 107.892 72.6107C107.612 72.4756 107.392 72.2347 107.208 71.9818C107.87 71.0192 108.947 70.1039 109.541 71.6342ZM108.25 76.7476C109.032 76.8741 108.367 79.1505 107.118 77.3072C107.04 77.1934 106.982 77.0601 106.925 76.9267C107.27 76.7344 107.702 76.6587 108.25 76.7476ZM106.99 83.549C106.686 83.5202 106.422 83.4278 106.19 83.2828C106.542 83.0207 106.919 82.9716 106.99 83.549ZM107.869 89.2971C107.92 89.7348 107.652 89.9156 107.064 89.8376C106.644 89.7568 106.386 89.5599 106.202 89.3023C106.8 88.6752 107.716 88.1416 107.869 89.2971ZM108.479 122.303C109.396 121.143 109.738 122.899 109.474 122.849C109.067 122.772 108.736 122.573 108.472 122.313C108.474 122.31 108.477 122.306 108.479 122.303ZM108.68 127.521C109.539 125.908 110.478 127.871 108.92 127.963C108.765 127.972 108.631 127.959 108.503 127.936C108.555 127.801 108.604 127.667 108.68 127.521ZM142.403 214.061C139.318 209.204 133.21 202.867 127.913 208.257C126.222 209.007 124.904 211.012 124.018 212.581C119.561 208.861 116.397 204.31 114.271 198.873C113.146 196.004 112.045 193.078 111.128 190.135C110.212 187.191 109.457 184.157 108.753 181.157C107.418 175.474 107.437 169.932 108.992 164.338C110.613 165.126 112.836 166.03 114.655 165.687C122.075 167.116 123.505 158.43 123.285 152.681C123.152 149.204 122.996 145.558 122.251 142.154C121.971 140.877 121.621 138.566 120.18 137.995C118.617 137.38 116.966 137.489 115.343 137.809C115.259 137.824 115.202 137.864 115.156 137.91C113.985 137.979 112.6 138.161 111.16 138.453C111.162 136.54 111.726 134.632 111.262 132.735C111.243 132.659 111.195 132.592 111.134 132.537C110.42 132.643 109.716 132.783 109.016 132.941C109.018 132.76 108.924 132.583 108.694 132.524C108.488 132.472 108.496 131.398 108.789 130.705C109.268 130.865 109.882 130.924 110.695 130.807C111.072 130.753 111.088 130.272 110.898 130.041C110.005 128.955 109.198 128.983 108.609 129.498C108.45 129.317 108.363 129.086 108.346 128.814C108.407 128.823 108.462 128.84 108.527 128.847C109.448 128.925 110.307 128.766 110.809 127.932C111.149 127.367 110.749 126.271 110.188 125.973C109.294 125.496 108.279 126.393 107.788 127.542C107.185 126.853 107.28 125.482 107.405 124.649C107.492 124.074 107.72 123.511 108.017 122.999C108.26 123.219 108.534 123.417 108.842 123.581C110.193 124.301 110.898 123.091 110.393 121.922C109.82 120.591 108.805 120.92 108.01 121.64C107.775 121.085 107.76 120.433 108.022 119.868C108.062 119.781 108.314 119.484 108.627 119.193C109.187 119.473 109.843 119.629 110.574 119.62C110.821 119.617 111.035 119.414 111.032 119.162C111.006 117.377 109.641 117.363 108.5 118.057C108.458 118.023 108.412 117.999 108.371 117.962C107.84 117.546 107.532 116.085 107.756 115.194C107.961 115.339 108.187 115.472 108.445 115.585C109.415 116.01 111.226 115.776 110.098 114.452C109.405 113.638 108.422 113.406 107.706 113.852C107.469 113.474 107.322 113.017 107.277 112.511C107.239 111.863 107.428 111.32 107.795 110.86C108.837 111.294 110.173 111.508 109.82 110.296C109.476 109.117 108.112 108.681 107.344 109.568C106.369 108.759 106.484 107.132 106.701 106.036C106.752 105.69 106.814 105.345 106.889 105.003C106.909 104.99 106.929 104.978 106.949 104.967C107.466 105.155 108.165 105.192 109.094 104.998C109.299 104.956 109.421 104.752 109.431 104.557C109.492 103.394 107.538 102.593 106.679 103.378C106.608 103.002 106.662 102.571 106.718 102.264C106.819 101.717 107.119 100.952 107.566 100.38C108.29 100.824 109.164 100.836 110.097 100.078C110.302 99.9115 110.244 99.6054 110.097 99.4311C109.345 98.5406 108.433 98.6549 107.64 99.259C107.112 98.6399 106.689 97.7425 106.569 97.388C106.454 96.732 106.499 96.1083 106.673 95.5118C107.362 95.7185 108.145 95.6648 108.624 95.1867C109.938 93.8718 107.509 92.3409 106.247 94.1524C106.242 94.16 106.238 94.1703 106.233 94.1784C106.05 94.0092 105.889 93.8117 105.773 93.5611C105.168 92.5667 105.236 91.1623 105.665 90.1102C106.942 91.2316 109.591 90.7402 108.634 88.6417C107.926 87.0866 106.764 87.5485 105.845 88.5146C105.823 88.4511 105.803 88.3882 105.782 88.3235C105.482 87.41 105.428 86.4242 105.421 85.4703C105.426 85.0337 105.472 84.6006 105.56 84.1715C105.569 84.1271 105.593 84.0786 105.61 84.0312C106.184 84.5342 106.872 84.9459 107.391 84.5671C108.674 83.6322 107.248 81.2265 105.83 82.1619C105.683 82.259 105.553 82.3825 105.429 82.5188C104.728 81.6324 104.618 80.5295 105.253 79.5582H105.537C105.701 78.8444 105.899 78.1463 106.234 77.6202C106.51 78.1497 106.894 78.5978 107.436 78.7959C108.233 79.0887 109.219 78.9224 109.517 78.0031C110.129 76.1119 108.119 75.4506 106.659 76.0275C106.599 75.7128 106.555 75.3993 106.524 75.125C106.449 74.4528 106.526 73.7639 106.645 73.1044C106.659 73.0334 106.692 72.9358 106.736 72.8295C107.008 73.109 107.319 73.3487 107.684 73.5237C109.874 74.5752 111.339 72.0321 109.816 70.399C109.094 69.6234 107.77 69.9861 107.106 70.623C106.955 70.7674 106.826 70.9181 106.701 71.07C106.472 70.4827 106.371 69.8313 106.317 69.2244C106.212 68.0077 106.453 66.6016 107.172 65.5933C108.441 66.791 111.1 65.4657 110.311 63.7275C109.958 62.9526 108.287 63.5837 107.776 63.8072C107.639 63.8673 107.51 63.9406 107.387 64.0209C107.301 63.8361 107.234 63.6623 107.194 63.5318C106.924 62.6725 107.1 61.4968 107.734 60.7622C108.892 61.9674 110.395 62.0731 110.484 59.9111C110.492 59.7095 110.338 59.5213 110.148 59.4699C109.301 59.2377 108.548 59.3376 107.923 59.6495C107.196 58.5604 106.884 57.0145 107.09 55.9219C107.129 55.7112 107.208 55.5252 107.303 55.3497C108.242 56.4601 109.502 57.0272 110.704 55.9035C111.288 55.3577 111.18 54.0879 110.628 53.5664C109.707 52.6974 108.469 52.9422 107.531 53.7039C107.455 53.7657 107.388 53.8338 107.319 53.8985C106.953 53.116 106.777 52.1834 106.741 51.491C106.734 51.3444 106.76 51.1636 106.811 50.9684C108.709 51.7688 112.415 51.528 110.655 48.6869C109.287 46.4781 107.439 47.7929 106.469 49.5583C106.301 49.3729 106.141 49.1719 105.989 48.9508C105.2 47.8103 105.329 46.2159 106.157 45.2111C106.834 45.8307 107.731 46.1888 108.857 46.1021C109.054 46.0871 109.252 45.9745 109.299 45.7655C109.809 43.4735 107.941 42.8758 106.237 43.9707C106.188 43.8962 106.14 43.8211 106.095 43.7455C105.281 42.3682 105.561 40.5244 106.12 39.0547C106.639 39.4561 107.249 39.6749 107.905 39.5369C110.228 39.0507 108.136 35.5634 106.402 36.9845C106.23 37.126 106.073 37.286 105.927 37.4552C105.899 37.4095 105.86 37.3743 105.835 37.327C105.124 36.2211 105.126 34.7082 105.414 33.4822C105.418 33.4683 105.426 33.4568 105.429 33.4429C106.24 34.2901 107.418 34.6856 108.948 34.1902C111.646 33.3171 108.546 29.1062 105.935 31.1706C105.717 31.3415 105.532 31.5286 105.365 31.725C105.187 31.2907 105.074 30.8311 105.026 30.4066C104.904 29.3054 105.184 28.1851 105.681 27.2086C105.965 27.4806 106.28 27.7168 106.622 27.9074C108.553 28.9843 110.736 26.902 109.134 25.165C108.01 23.9465 106.744 24.6141 105.767 25.7644C104.99 24.5754 104.499 22.944 104.806 21.7233C106.206 22.8955 108.486 23.6185 109.123 21.5674C109.794 19.4053 106.519 18.6032 105.235 19.8049C105.057 19.9718 104.904 20.1543 104.763 20.3449C104.612 20.0561 104.489 19.7449 104.389 19.4296C103.845 17.7099 104.026 15.7309 104.952 14.2191C105.245 14.498 105.566 14.7527 105.941 14.9589C107.637 15.892 109.813 15.2228 109.716 13.0555C109.599 10.398 106.607 11.3803 105.307 12.3701C105.137 12.4994 104.982 12.6449 104.833 12.798C104.082 11.5218 104.275 9.71027 104.694 8.37921C105.233 8.70606 105.858 8.90586 106.579 8.93242C107.772 8.97631 109.44 8.30472 109.556 6.98579C109.653 5.87359 107.542 5.46417 106.771 5.43356C105.73 5.39256 104.924 6.13922 104.381 6.96962C103.113 5.65184 103.3 3.25074 103.719 1.58244C105.468 2.80667 107.89 3.3004 109.187 1.32836C109.299 1.15859 109.377 0.989388 109.437 0.82019H108.24C108.063 1.0737 107.775 1.30064 107.315 1.46175C105.887 1.96242 104.747 1.67426 103.91 0.941458C103.924 0.899881 103.943 0.86119 103.957 0.82019H102.815C102.831 0.836359 102.842 0.853106 102.858 0.86812C102.31 2.71659 102.372 4.88555 102.976 6.30611C103.222 6.88415 103.546 7.38655 103.943 7.79424C103.101 9.6658 103.207 11.8556 104.296 13.4522C102.928 15.4439 102.804 18.5339 103.84 20.5874C103.942 20.7913 104.091 21.0014 104.272 21.2088C103.565 22.9244 103.984 25.0934 105.15 26.6075C104.595 27.4864 104.216 28.4415 104.154 29.0467C104.029 30.279 104.257 31.5783 104.813 32.5918C104.272 33.7195 104.241 35.0633 104.489 36.3562C104.605 36.9545 104.919 37.6688 105.368 38.2734C104.344 40.149 104.417 42.8302 105.572 44.5245C104.021 46.1622 104.24 49.0749 106.047 50.5111C105.934 50.8472 105.855 51.1798 105.825 51.491C105.748 52.3203 106.123 53.5387 106.75 54.5707C105.66 56.2211 106.088 58.4841 107.23 60.1363C106.043 61.2294 105.658 63.2373 106.571 64.8103C106.118 65.4149 105.813 66.1575 105.619 66.8395C105.185 68.3588 105.259 70.4827 106.116 71.9986C105.593 73.0963 105.522 74.3425 105.669 75.666C105.699 75.9432 105.753 76.251 105.832 76.564C105.766 76.631 105.701 76.6991 105.645 76.7759C105.206 77.3776 104.998 78.0533 104.842 78.7457C104.744 78.7705 104.649 78.8202 104.576 78.9166C103.698 80.0658 103.565 81.9333 104.645 83.0547C104.711 83.1223 104.799 83.2199 104.903 83.3319C104.103 85.0626 104.224 87.8933 105.129 89.4369C104.799 89.956 104.559 90.4902 104.482 90.8955C104.218 92.2924 104.669 93.7494 105.558 94.8235C105.635 94.9176 105.728 95.0036 105.829 95.0845C105.384 96.6638 105.923 98.771 106.982 99.9C105.916 101.189 105.313 103.268 106.134 104.377C105.399 106.277 105.295 108.766 106.747 110.253C106.783 110.29 106.831 110.33 106.887 110.372C106.268 111.826 106.198 113.428 107.084 114.562C107.015 114.7 106.949 114.84 106.903 115.01C106.504 116.467 106.894 117.77 107.793 118.617C106.649 119.754 106.66 121.186 107.41 122.307C107.222 122.563 107.071 122.822 106.976 123.05C106.347 124.565 105.887 127.549 107.52 128.53C107.441 129.192 107.573 129.832 108.034 130.277C107.539 131.267 107.461 132.63 108.052 133.186C107.843 133.242 107.63 133.286 107.422 133.347C107.223 133.506 107.049 133.692 106.915 133.922C105.888 135.682 106.521 137.85 106.542 139.762C105.049 140.327 103.692 141.01 102.678 141.812C99.6344 144.222 97.1837 148.198 95.3982 151.585C95.2873 151.625 94.8149 152.866 94.8987 152.97C94.1572 156.528 93.4556 160.402 93.802 164.022C94.2045 168.222 94.3408 172.48 94.9749 176.65C95.8653 182.487 97.2755 188.261 99.098 193.881C100.788 199.543 102.907 205.097 105.489 210.405C107.334 214.201 109.64 217.783 111.693 221.468C113.464 224.644 116.24 227.435 118.872 229.941C118.863 230.076 119.956 230.829 120.07 230.796C123.462 232.572 127.736 234.455 131.612 234.709C135.36 234.956 140.929 232.763 144.098 230.836C144.162 230.849 144.232 230.848 144.309 230.815C145.829 230.155 147.248 229.308 148.185 227.914C149.049 226.625 148.023 224.523 147.529 223.315C146.21 220.089 144.268 216.999 142.403 214.061Z" fill="#190400"/>
<path d="M236.809 161.528C234.522 154.654 232.343 148.06 227.002 142.892C225.605 141.541 223.774 139.768 221.709 139.678C226.389 136.328 231.348 142.128 233.98 146.192C235.289 148.215 236.495 150.332 237.649 152.445C238.473 153.952 239.203 155.515 239.701 157.159C240.382 159.403 238.617 160.676 236.809 161.528ZM235.89 161.889C235.443 162.167 234.976 162.418 234.513 162.669C232.389 163.81 228.413 165.122 226.032 165.489C221.302 166.223 216.224 163.597 212.174 161.522C209.329 158.97 206.485 156.046 204.618 152.732C202.67 149.278 200.57 145.886 198.755 142.358C196.14 137.274 194.073 131.836 192.402 126.336L192.428 126.328C192.317 126.001 192.214 125.671 192.106 125.344C192.009 125.012 191.906 124.681 191.813 124.35L191.786 124.359C190.038 118.882 188.653 113.232 187.919 107.562C187.41 103.63 187.21 99.6441 186.853 95.6931C186.509 91.9044 187.189 87.8841 188.083 84.1675C190.237 80.1605 192.926 75.1146 197.237 73.0334C198.642 72.3537 200.821 71.6232 202.835 71.1185C203 71.1618 203.185 71.1243 203.303 71.0071C204.223 70.7899 205.098 70.6207 205.819 70.541C206.343 70.4827 206.869 70.4227 207.395 70.3996C207.775 70.3822 208.05 71.9703 208.116 72.1943C208.453 73.3302 208.796 74.4643 209.106 75.6072C210.435 80.4844 211.191 85.4039 210.185 90.418C209.85 92.077 209.542 94.6791 208.204 95.8716C207.799 96.2319 207.329 96.4398 206.827 96.5443C206.673 96.5108 206.334 96.7851 205.944 96.624C204.412 96.6044 202.251 95.4639 201.015 94.9713C198.799 99.8965 198.851 107.717 200.426 113.817C201.048 116.23 201.609 118.679 202.307 121.083L202.3 121.083C202.396 121.414 202.509 121.74 202.612 122.071C202.714 122.401 202.808 122.734 202.918 123.062L202.924 123.059C203.712 125.433 204.641 127.768 205.499 130.108C207.666 136.023 212.064 142.49 216.684 145.285C217.421 144.178 218.553 142.012 219.803 141.126C220.034 140.771 220.468 140.805 220.576 140.692C221.05 140.492 221.554 140.398 222.092 140.463C223.873 140.685 225.601 142.65 226.818 143.828C230.493 147.383 232.667 151.861 234.341 156.631C234.735 157.749 235.097 158.875 235.464 160.001C235.536 160.223 236.213 161.687 235.89 161.889ZM199.612 66.9382C200.012 65.4241 201.348 65.1943 202.698 65.0603C202.999 66.8008 202.476 68.5881 202.499 70.3488C201.557 70.5665 200.61 70.8309 199.695 71.1376C199.633 69.7678 199.261 68.2664 199.612 66.9382ZM213.218 72.1279C213.741 73.7645 214.029 75.4651 214.207 77.1727C214.456 79.5697 214.665 81.9974 214.736 84.4048C214.879 89.2457 214.089 96.8365 208.334 96.7337C209.983 95.4881 210.485 92.9889 210.866 91.0844C212.328 83.7968 210.378 77.1317 208.357 70.1755C210.329 69.851 212.506 69.8949 213.218 72.1279ZM201.792 3.33216C202.408 4.91962 200.58 4.51943 200.141 4.30866C199.862 4.17469 199.642 3.93273 199.458 3.6798C200.12 2.71774 201.198 1.80246 201.792 3.33216ZM200.501 8.4462C201.282 8.57208 200.618 10.849 199.368 9.00518C199.291 8.892 199.233 8.75803 199.175 8.62463C199.521 8.43234 199.952 8.35669 200.501 8.4462ZM199.24 15.2476C198.936 15.2187 198.672 15.1257 198.441 14.9814C198.792 14.7192 199.17 14.6695 199.24 15.2476ZM200.119 20.9951C200.171 21.4328 199.903 21.6136 199.314 21.5356C198.895 21.4553 198.635 21.2578 198.453 21.0009C199.05 20.3732 199.966 19.8402 200.119 20.9951ZM200.729 54.0007C201.647 52.8412 201.989 54.5972 201.724 54.5476C201.317 54.4708 200.986 54.271 200.722 54.0105C200.725 54.0076 200.727 54.0036 200.729 54.0007ZM200.931 59.2198C201.789 57.6064 202.728 59.5686 201.17 59.6616C201.016 59.6703 200.881 59.657 200.753 59.6345C200.804 59.4993 200.854 59.3642 200.931 59.2198ZM234.653 145.759C231.569 140.903 225.46 134.565 220.164 139.955C218.472 140.705 217.155 142.71 216.269 144.28C211.812 140.559 208.648 136.008 206.522 130.57C205.396 127.702 204.296 124.775 203.377 121.833C202.463 118.889 201.707 115.855 201.004 112.855C199.667 107.171 199.687 101.63 201.243 96.0361C202.864 96.8238 205.086 97.7275 206.906 97.3839C214.326 98.8143 215.755 90.1275 215.535 84.3789C215.403 80.9019 215.247 77.2558 214.501 73.8522C214.221 72.5755 213.872 70.2633 212.43 69.6939C210.868 69.0783 209.217 69.1875 207.593 69.5068C207.51 69.523 207.452 69.5617 207.406 69.6084C206.236 69.6766 204.851 69.8591 203.41 70.1513C203.412 68.2375 203.976 66.329 203.513 64.4326C203.494 64.357 203.445 64.29 203.384 64.2345C202.67 64.3414 201.966 64.4805 201.266 64.6399C201.268 64.458 201.174 64.2807 200.944 64.223C200.738 64.1704 200.747 63.0969 201.039 62.404C201.519 62.5628 202.132 62.6217 202.946 62.505C203.323 62.4508 203.339 61.9709 203.148 61.7399C202.255 60.6531 201.448 60.6814 200.86 61.1959C200.7 61.0152 200.614 60.7836 200.596 60.5122C200.658 60.5214 200.712 60.5388 200.777 60.544C201.699 60.6231 202.557 60.4643 203.059 59.6298C203.399 59.0639 203 57.969 202.439 57.6705C201.545 57.1941 200.529 58.0909 200.038 59.2406C199.436 58.5517 199.53 57.1808 199.656 56.3469C199.742 55.7735 199.97 55.2093 200.267 54.6966C200.51 54.9166 200.785 55.1152 201.092 55.2792C202.443 55.9993 203.148 54.7884 202.643 53.6196C202.071 52.2891 201.055 52.6177 200.26 53.3378C200.025 52.784 200.01 52.1315 200.272 51.5655C200.313 51.4795 200.563 51.1827 200.878 50.8911C201.437 51.1706 202.094 51.3276 202.824 51.3178C203.071 51.3143 203.286 51.1116 203.282 50.8599C203.256 49.0755 201.892 49.0611 200.75 49.7552C200.708 49.7217 200.662 49.6974 200.621 49.6605C200.089 49.2441 199.782 47.7831 200.007 46.8921C200.211 47.0371 200.437 47.1704 200.695 47.2836C201.665 47.7075 203.477 47.4742 202.348 46.1501C201.654 45.3364 200.673 45.1037 199.955 45.5501C199.719 45.1718 199.573 44.7145 199.527 44.2086C199.489 43.5613 199.678 43.0185 200.045 42.5582C201.088 42.9919 202.423 43.2056 202.071 41.9946C201.726 40.8149 200.363 40.38 199.594 41.267C198.619 40.4568 198.734 38.8307 198.952 37.7335C199.003 37.3876 199.064 37.0434 199.14 36.7016C199.16 36.6883 199.179 36.6762 199.199 36.6646C199.717 36.8535 200.416 36.8904 201.345 36.6964C201.55 36.6542 201.672 36.4498 201.681 36.2546C201.743 35.0928 199.789 34.2912 198.929 35.0766C198.859 34.6995 198.912 34.2687 198.969 33.9621C199.07 33.4152 199.369 32.6501 199.816 32.0784C200.541 32.5219 201.415 32.534 202.347 31.777C202.552 31.6101 202.495 31.304 202.347 31.129C201.595 30.238 200.684 30.3529 199.89 30.957C199.362 30.3385 198.939 29.4405 198.82 29.086C198.705 28.4294 198.749 27.8069 198.923 27.2098C199.612 27.4165 200.395 27.3634 200.874 26.8847C202.188 25.5698 199.76 24.0395 198.497 25.8504C198.492 25.8585 198.488 25.8689 198.483 25.877C198.3 25.7072 198.139 25.5097 198.024 25.2591C197.418 24.2647 197.486 22.8597 197.915 21.8087C199.192 22.9296 201.841 22.4382 200.885 20.3391C200.177 18.7846 199.015 19.2465 198.095 20.2132C198.074 20.1497 198.054 20.0862 198.032 20.0215C197.732 19.1085 197.678 18.1222 197.672 17.1682C197.676 16.7317 197.722 16.2986 197.811 15.8695C197.819 15.8256 197.843 15.7765 197.86 15.7298C198.434 16.2327 199.123 16.6439 199.642 16.2662C200.923 15.3302 199.498 12.925 198.08 13.8605C197.933 13.957 197.803 14.0805 197.68 14.2168C196.977 13.331 196.868 12.228 197.503 11.2556H197.787C197.952 10.543 198.149 9.84482 198.484 9.31875C198.76 9.84771 199.145 10.2964 199.686 10.4945C200.484 10.7867 201.47 10.6209 201.767 9.70103C202.38 7.80983 200.369 7.14921 198.909 7.72552C198.849 7.4108 198.805 7.09724 198.774 6.82352C198.699 6.15077 198.777 5.46243 198.896 4.80239C198.909 4.73136 198.943 4.63377 198.986 4.52752C199.258 4.80759 199.57 5.04724 199.934 5.22221C202.124 6.27377 203.589 3.73062 202.066 2.09639C201.344 1.32201 200.021 1.68408 199.356 2.3216C199.206 2.46539 199.076 2.61553 198.952 2.76856C198.723 2.1807 198.62 1.52932 198.568 0.922402C198.565 0.889486 198.569 0.854261 198.567 0.82019H197.623C197.663 1.82902 197.89 2.85633 198.367 3.69712C197.843 4.79431 197.771 6.04106 197.919 7.36403C197.95 7.64179 198.004 7.94958 198.083 8.26199C198.017 8.32955 197.952 8.39769 197.895 8.47449C197.456 9.07621 197.248 9.75069 197.092 10.4442C196.994 10.4685 196.899 10.5176 196.826 10.614C195.948 11.7649 195.815 13.6318 196.895 14.7527C196.961 14.8208 197.049 14.9184 197.154 15.0299C196.354 16.7605 196.474 19.5913 197.379 21.1354C197.049 21.6546 196.81 22.1881 196.733 22.5935C196.468 23.9904 196.92 25.4474 197.807 26.522C197.885 26.6156 197.978 26.7016 198.079 26.7825C197.635 28.3618 198.173 30.4696 199.232 31.5979C198.166 32.8868 197.564 34.9663 198.384 36.075C197.649 37.9755 197.546 40.4643 198.997 41.9507C199.034 41.9877 199.082 42.0287 199.138 42.0703C198.519 43.5249 198.449 45.1262 199.333 46.2604C199.265 46.3978 199.2 46.5381 199.153 46.7079C198.754 48.1648 199.145 49.4688 200.043 50.3153C198.9 51.4518 198.911 52.8845 199.66 54.0053C199.473 54.2611 199.321 54.5204 199.226 54.7479C198.597 56.2621 198.138 59.2464 199.771 60.2281C199.691 60.8899 199.823 61.5297 200.284 61.9743C199.789 62.9641 199.712 64.3281 200.303 64.8842C200.093 64.9402 199.88 64.9841 199.672 65.0447C199.474 65.2035 199.299 65.3895 199.165 65.6199C198.138 67.38 198.772 69.5478 198.792 71.4598C197.299 72.0246 195.941 72.7083 194.928 73.5104C191.884 75.9201 189.434 79.896 187.648 83.2834C187.538 83.3221 187.065 84.5642 187.15 84.6687C186.407 88.2259 185.706 92.0996 186.052 95.7203C186.455 99.919 186.591 104.178 187.226 108.349C188.116 114.184 189.526 119.959 191.348 125.579C193.039 131.241 195.157 136.795 197.739 142.103C199.585 145.899 201.89 149.482 203.943 153.166C205.714 156.341 208.49 159.133 211.122 161.639C211.114 161.774 212.206 162.527 212.32 162.495C215.713 164.27 219.985 166.153 223.862 166.407C227.61 166.654 233.179 164.461 236.348 162.534C236.413 162.546 236.482 162.546 236.56 162.512C238.079 161.853 239.498 161.006 240.435 159.612C241.299 158.324 240.273 156.221 239.779 155.013C238.46 151.787 236.519 148.698 234.653 145.759Z" fill="#190400"/>
<path d="M65.0402 212.771C62.7546 205.897 60.5747 199.303 55.2343 194.135C53.8374 192.784 52.0057 191.011 49.9407 190.922C54.6199 187.571 59.5797 193.371 62.2124 197.435C63.5204 199.457 64.7273 201.574 65.8816 203.688C66.7057 205.196 67.4344 206.759 67.9328 208.402C68.6142 210.646 66.8489 211.919 65.0402 212.771ZM64.1221 213.132C63.6751 213.411 63.2079 213.661 62.7448 213.912C60.6203 215.053 56.6451 216.366 54.2642 216.732C49.5336 217.466 44.4548 214.841 40.4056 212.765C37.5604 210.213 34.717 207.289 32.8494 203.975C30.9016 200.522 28.8008 197.129 26.9876 193.601C24.3723 188.517 22.3043 183.079 20.6332 177.579L20.6597 177.571C20.5489 177.245 20.4461 176.914 20.3375 176.587C20.2411 176.255 20.1371 175.924 20.0447 175.594L20.0176 175.602C18.2702 170.126 16.8848 164.475 16.1509 158.805C15.641 154.873 15.4418 150.888 15.0849 146.936C14.7407 143.147 15.4204 139.128 16.3143 135.411C18.4688 131.404 21.1575 126.358 25.4683 124.277C26.8738 123.597 29.0526 122.866 31.0662 122.362C31.2308 122.405 31.4167 122.367 31.5346 122.251C32.455 122.032 33.3293 121.864 34.0506 121.784C34.5743 121.726 35.101 121.666 35.627 121.643C36.007 121.626 36.2819 123.213 36.3477 123.437C36.6844 124.574 37.0274 125.707 37.3375 126.85C38.6674 131.727 39.4227 136.648 38.4168 141.661C38.0824 143.32 37.7741 145.922 36.4361 147.114C36.0307 147.475 35.5606 147.683 35.0577 147.788C34.9052 147.754 34.5657 148.028 34.1759 147.868C32.6439 147.847 30.4824 146.706 29.2466 146.214C27.0303 151.14 27.0823 158.96 28.6576 165.06C29.2801 167.474 29.8408 169.922 30.539 172.326L30.5327 172.327C30.6285 172.658 30.7405 172.984 30.8439 173.314C30.9455 173.643 31.0385 173.977 31.1494 174.305L31.1546 174.303C31.944 176.676 32.8731 179.011 33.7312 181.351C35.8979 187.266 40.2953 193.732 44.9162 196.529C45.6536 195.422 46.7854 193.255 48.035 192.369C48.2655 192.015 48.6997 192.048 48.8083 191.935C49.2812 191.736 49.7859 191.641 50.3241 191.706C52.1039 191.928 53.8328 193.894 55.0495 195.071C58.7257 198.626 60.8987 203.105 62.5722 207.874C62.9666 208.992 63.3292 210.118 63.6965 211.245C63.7681 211.466 64.4443 212.93 64.1221 213.132ZM27.844 118.181C28.2442 116.667 29.5798 116.437 30.9294 116.303C31.2302 118.044 30.7076 119.831 30.7301 121.591C29.7889 121.81 28.8413 122.075 27.9271 122.381C27.8642 121.011 27.4917 119.51 27.844 118.181ZM41.4496 123.372C41.9722 125.008 42.2604 126.708 42.4388 128.416C42.6883 130.813 42.8968 133.24 42.9678 135.647C43.1104 140.489 42.3204 148.08 36.5666 147.977C38.2147 146.731 38.7165 144.233 39.0976 142.327C40.5603 135.04 38.6097 128.375 36.5885 121.419C38.5606 121.094 40.7376 121.138 41.4496 123.372ZM27.3514 2.9903C28.7044 2.83208 29.2934 4.77929 27.4963 4.79084C26.6758 4.79604 26.0827 4.42646 25.6456 3.88653C25.9863 3.41763 26.5331 3.08616 27.3514 2.9903ZM27.9341 8.62406C28.7373 8.30299 29.9309 9.30604 28.9608 10.0394C28.299 10.5407 27.4715 10.1607 26.7612 9.37072C27.0996 9.0508 27.4992 8.79672 27.9341 8.62406ZM27.7244 14.4888C28.7096 14.1516 30.6198 15.784 28.7835 16.3788C27.6846 16.734 26.8657 16.272 26.3177 15.5225C26.6492 15.0501 27.121 14.6955 27.7244 14.4888ZM28.4376 20.9864L27.3508 21.3537C27.2307 21.2827 27.1372 21.1862 27.0321 21.1002C27.3941 20.6267 28.0311 20.3651 28.4376 20.9864ZM28.3654 27.219C28.9059 27.1613 29.2697 28.1326 28.7904 28.1695C28.1656 28.218 27.673 27.9645 27.2746 27.588C27.5887 27.3946 27.9531 27.2629 28.3654 27.219ZM30.502 32.4722C31.0616 33.8321 29.1825 33.5827 28.7142 33.503C28.2875 33.4308 27.9387 33.2691 27.6228 33.063C28.2973 31.7325 29.6745 30.4598 30.502 32.4722ZM28.3498 37.5447C28.5427 37.4084 28.735 37.2721 28.9261 37.1364C31.1794 37.2935 31.1852 37.6371 28.9458 38.1678C28.6917 38.0413 28.4769 37.8444 28.2857 37.6169C28.3071 37.5932 28.3267 37.5678 28.3498 37.5447ZM28.9671 43.1553C30.5136 42.5363 30.0897 43.9759 29.4389 43.6098C29.2432 43.5001 29.0642 43.3569 28.8955 43.1952C28.9209 43.1842 28.9417 43.1657 28.9671 43.1553ZM29.2576 47.3471C30.0124 47.1173 30.0279 47.2946 29.6601 47.7606C29.1987 48.3444 28.7517 48.1827 28.3949 47.7924C28.6518 47.6082 28.9302 47.4465 29.2576 47.3471ZM30.0233 54.5753C30.6395 56.1627 28.8118 55.7625 28.3735 55.5518C28.0934 55.4172 27.8734 55.1758 27.6898 54.9229C28.3521 53.9609 29.4291 53.0456 30.0233 54.5753ZM28.7321 59.6887C29.5134 59.8158 28.8488 62.0916 27.5991 60.2483C27.5223 60.1345 27.4646 60.0006 27.4074 59.8677C27.7527 59.6749 28.1835 59.5998 28.7321 59.6887ZM27.4715 66.4907C27.1683 66.4613 26.9044 66.3689 26.6723 66.2245C27.024 65.9623 27.4016 65.9127 27.4715 66.4907ZM28.351 72.2376C28.403 72.6759 28.135 72.8567 27.546 72.7781C27.1262 72.6979 26.8675 72.501 26.6838 72.244C27.2815 71.6163 28.198 71.0827 28.351 72.2376ZM28.9608 105.244C29.8784 104.084 30.2197 105.841 29.9558 105.79C29.5492 105.714 29.2183 105.514 28.9539 105.254C28.9567 105.251 28.9585 105.247 28.9608 105.244ZM29.1623 110.463C30.021 108.85 30.96 110.811 29.4014 110.905C29.2472 110.913 29.1121 110.9 28.985 110.878C29.0364 110.742 29.0861 110.607 29.1623 110.463ZM62.8851 197.003C59.8009 192.146 53.6913 185.808 48.396 191.198C46.7034 191.948 45.3868 193.954 44.501 195.522C40.0435 191.803 36.8796 187.251 34.7539 181.814C33.6279 178.945 32.5278 176.019 31.6096 173.076C30.6943 170.132 29.939 167.098 29.2351 164.098C27.8994 158.415 27.919 152.873 29.4747 147.279C31.0951 148.067 33.3178 148.971 35.1379 148.628C42.5572 150.057 43.987 141.371 43.767 135.623C43.6348 132.145 43.4783 128.499 42.7328 125.095C42.4527 123.819 42.1039 121.507 40.6614 120.937C39.0993 120.321 37.4484 120.43 35.8245 120.75C35.7414 120.766 35.6842 120.805 35.6374 120.852C34.4675 120.92 33.0822 121.102 31.642 121.394C31.6437 119.481 32.2079 117.573 31.7448 115.676C31.7245 115.6 31.6766 115.534 31.616 115.478C30.9017 115.584 30.1977 115.724 29.4978 115.882C29.4996 115.701 29.406 115.524 29.1756 115.466C28.97 115.413 28.9787 114.34 29.2703 113.647C29.7502 113.806 30.364 113.865 31.1771 113.748C31.5542 113.694 31.5704 113.214 31.3798 112.982C30.4865 111.896 29.6797 111.924 29.0907 112.439C28.9313 112.258 28.8459 112.027 28.8274 111.755C28.8892 111.765 28.944 111.781 29.0099 111.787C29.9304 111.866 30.789 111.707 31.2909 110.873C31.631 110.308 31.2308 109.212 30.6701 108.914C29.7762 108.437 28.761 109.335 28.2696 110.484C27.6673 109.795 27.7626 108.423 27.8873 107.589C27.9739 107.016 28.2014 106.452 28.4982 105.94C28.7425 106.16 29.0168 106.358 29.3246 106.522C30.6747 107.242 31.3798 106.032 30.8751 104.863C30.3028 103.532 29.2871 103.861 28.4913 104.581C28.2569 104.027 28.2418 103.375 28.504 102.809C28.5444 102.722 28.7956 102.426 29.1098 102.134C29.6688 102.414 30.3259 102.571 31.0558 102.561C31.3024 102.557 31.5172 102.355 31.5138 102.103C31.4878 100.318 30.1232 100.304 28.9816 100.998C28.9394 100.964 28.8944 100.94 28.8534 100.904C28.3215 100.487 28.0137 99.0263 28.2384 98.1352C28.4428 98.2802 28.6686 98.413 28.9273 98.5262C29.8969 98.9506 31.7089 98.7167 30.5794 97.3932C29.8865 96.5795 28.9048 96.3468 28.1876 96.7926C27.9508 96.4149 27.8041 95.9576 27.7585 95.4517C27.721 94.8038 27.9098 94.2616 28.2765 93.8013C29.3194 94.235 30.6551 94.4487 30.3028 93.2377C29.9575 92.0574 28.5941 91.6226 27.8255 92.5101C26.8507 91.6994 26.9662 90.0732 27.1834 88.9766C27.2347 88.6301 27.296 88.286 27.3716 87.9441C27.3912 87.932 27.4103 87.9193 27.4311 87.9077C27.9485 88.096 28.6472 88.1335 29.5769 87.9395C29.7819 87.8968 29.9038 87.6929 29.913 87.4977C29.9737 86.3353 28.0201 85.5344 27.1614 86.3197C27.0904 85.9426 27.1441 85.5118 27.2001 85.2052C27.3012 84.6578 27.6014 83.8926 28.0472 83.3215C28.7725 83.765 29.6468 83.7771 30.5788 83.0195C30.7838 82.8526 30.7267 82.5465 30.5788 82.3716C29.8264 81.4817 28.9157 81.596 28.1217 82.1995C27.5945 81.5816 27.1706 80.6836 27.0511 80.3291C26.9362 79.6725 26.9812 79.0494 27.1545 78.4535C27.844 78.6596 28.6276 78.6065 29.1052 78.1284C30.4206 76.8129 27.9912 75.2826 26.7289 77.0935C26.7237 77.1016 26.7196 77.1115 26.7144 77.1201C26.5325 76.9503 26.3709 76.7534 26.2554 76.5022C25.6496 75.5072 25.7177 74.1034 26.1462 73.0519C27.4242 74.1721 30.0724 73.6813 29.1161 71.5828C28.4082 70.0277 27.2457 70.4891 26.3258 71.4563C26.3056 71.3928 26.2848 71.3293 26.2635 71.2646C25.9637 70.3511 25.9106 69.3653 25.9031 68.4113C25.9077 67.9748 25.9539 67.5417 26.0429 67.1126C26.0509 67.0682 26.0752 67.0197 26.0919 66.9729C26.6665 67.4753 27.3549 67.887 27.8734 67.5088C29.1554 66.5733 27.7302 64.1681 26.312 65.1036C26.1653 65.2001 26.0348 65.3236 25.9112 65.4599C25.2096 64.5735 25.0999 63.4711 25.7345 62.4987H26.0186C26.1832 61.7861 26.3807 61.0874 26.7156 60.5619C26.9922 61.0908 27.3768 61.5389 27.9185 61.7376C28.7148 62.0298 29.7011 61.8635 29.9997 60.9441C30.6112 59.0529 28.6005 58.3929 27.1406 58.9681C27.0806 58.6539 27.0367 58.3404 27.0061 58.0666C26.931 57.3945 27.0078 56.7055 27.1268 56.0455C27.1406 55.9745 27.1747 55.8775 27.2174 55.7712C27.4906 56.0507 27.8012 56.2904 28.1656 56.4653C30.3559 57.5169 31.821 54.9737 30.2982 53.3401C29.5758 52.5651 28.2528 52.9278 27.5876 53.5647C27.4374 53.7085 27.3075 53.8586 27.1834 54.0111C26.9547 53.4244 26.8525 52.773 26.7999 52.1655C26.6937 50.9494 26.9345 49.5427 27.654 48.535C28.9227 49.7327 31.5819 48.4068 30.7931 46.6692C30.4403 45.8942 28.7691 46.5254 28.2574 46.7489C28.1212 46.8089 27.9924 46.8817 27.87 46.962C27.7828 46.7766 27.7164 46.6034 27.6754 46.4729C27.4051 45.6136 27.5824 44.4385 28.2159 43.7033C29.3737 44.9085 30.8774 45.0142 30.9663 42.8527C30.975 42.6506 30.8202 42.4629 30.6297 42.4104C29.7837 42.1794 29.0301 42.2793 28.4047 42.5911C27.6782 41.5015 27.3658 39.9562 27.5714 38.8636C27.6107 38.6522 27.6898 38.4663 27.7845 38.2908C28.724 39.4012 29.9841 39.9683 31.1863 38.8445C31.7696 38.2994 31.6622 37.029 31.1095 36.5081C30.1885 35.6385 28.9516 35.8833 28.0126 36.6456C27.9364 36.7068 27.8705 36.7749 27.8007 36.8396C27.4357 36.0565 27.259 35.1239 27.2238 34.4321C27.2157 34.2849 27.2428 34.1047 27.2931 33.9095C29.1912 34.7099 32.8962 34.4691 31.1373 31.628C29.7692 29.4192 27.9208 30.734 26.9506 32.4994C26.7826 32.314 26.6232 32.1125 26.4713 31.8924C25.6819 30.7514 25.8107 29.1576 26.6394 28.1522C27.3156 28.7718 28.213 29.1298 29.339 29.0432C29.5365 29.0282 29.7346 28.9162 29.7808 28.7066C30.2913 26.4152 28.4226 25.8169 26.7191 26.9118C26.6694 26.8373 26.6215 26.7628 26.5764 26.6872C25.7628 25.3093 26.0434 23.4661 26.6018 21.9958C27.121 22.3978 27.7314 22.616 28.3879 22.478C30.7105 21.9918 28.6184 18.5045 26.8848 19.9256C26.7121 20.0671 26.5551 20.2271 26.4084 20.3963C26.3807 20.3506 26.3426 20.316 26.3166 20.2686C25.6069 19.1628 25.6074 17.6493 25.8956 16.4233C25.8996 16.4094 25.9077 16.3985 25.9112 16.384C26.7214 17.2306 27.8994 17.6267 29.4303 17.1319C32.1288 16.2576 29.0284 12.0473 26.4165 14.1117C26.1999 14.2826 26.014 14.4697 25.8465 14.6661C25.6698 14.2318 25.5561 13.7722 25.5081 13.3477C25.3863 12.2465 25.6658 11.1256 26.1624 10.1497C26.4471 10.4211 26.7618 10.6585 27.1037 10.8485C29.0353 11.9254 31.2175 9.84366 29.6151 8.10607C28.4925 6.8882 27.2261 7.55517 26.249 8.70548C25.4717 7.51648 24.9809 5.88572 25.2887 4.66438C26.6879 5.83721 28.9671 6.55962 29.6052 4.50788C30.2768 2.34643 27.0009 1.54433 25.7172 2.74604C25.5387 2.9135 25.3863 3.0954 25.2454 3.28597C25.0941 2.99723 24.9711 2.68656 24.8706 2.37068C24.7118 1.87002 24.6234 1.34742 24.5876 0.82019H23.6498C23.7001 1.79495 23.9241 2.73911 24.3226 3.5285C24.4242 3.73235 24.5726 3.94255 24.7545 4.14986C24.0466 5.8655 24.4664 8.03446 25.6323 9.54858C25.0773 10.4275 24.6974 11.3826 24.6362 11.9872C24.5108 13.2201 24.7389 14.5194 25.2956 15.5323C24.7545 16.6606 24.7228 18.0044 24.9717 19.2973C25.0872 19.8962 25.4013 20.6093 25.8506 21.2151C24.8267 23.0896 24.8995 25.7713 26.0544 27.4656C24.5028 29.1033 24.7222 32.016 26.5285 33.4522C26.4159 33.7883 26.3374 34.1215 26.3079 34.4321C26.2294 35.2614 26.6047 36.4798 27.2319 37.5112C26.1416 39.1627 26.5701 41.4258 27.7123 43.0774C26.525 44.1711 26.1399 46.1784 27.0528 47.7514C26.6001 48.3566 26.2958 49.0986 26.1006 49.7812C25.6669 51.2999 25.7408 53.4244 26.5978 54.9402C26.0752 56.038 26.003 57.2842 26.1508 58.6071C26.1809 58.8843 26.2352 59.1921 26.3143 59.5051C26.2484 59.5727 26.1832 59.6402 26.1272 59.7176C25.6883 60.3193 25.4798 60.9944 25.3245 61.6873C25.2257 61.7116 25.131 61.7613 25.0571 61.8577C24.18 63.0074 24.0466 64.8744 25.1276 65.9958C25.1928 66.0634 25.2812 66.161 25.3851 66.273C24.5853 68.0037 24.706 70.8344 25.6115 72.378C25.2812 72.8977 25.0415 73.4318 24.9647 73.8366C24.6997 75.2335 25.1518 76.6905 26.0388 77.7651C26.1168 77.8593 26.2103 77.9447 26.3108 78.025C25.8662 79.6049 26.4049 81.7127 27.4634 82.8411C26.3974 84.13 25.7945 86.2094 26.6163 87.3181C25.8812 89.2186 25.7778 91.7075 27.229 93.1939C27.2654 93.2314 27.3133 93.2712 27.3693 93.3128C26.7503 94.7674 26.681 96.3688 27.5656 97.5035C27.4975 97.6415 27.4311 97.7812 27.3849 97.951C26.9859 99.408 27.3768 100.712 28.2748 101.558C27.1314 102.695 27.1424 104.128 27.8919 105.248C27.7042 105.504 27.5529 105.762 27.4582 105.991C26.8288 107.506 26.3686 110.49 28.0022 111.471C27.9225 112.133 28.0547 112.773 28.5156 113.218C28.0207 114.208 27.9427 115.571 28.534 116.128C28.325 116.183 28.1125 116.227 27.9035 116.288C27.706 116.447 27.5304 116.633 27.3964 116.863C26.3697 118.623 27.0038 120.791 27.024 122.703C25.5306 123.267 24.173 123.951 23.1596 124.753C20.1158 127.163 17.665 131.14 15.88 134.527C15.7698 134.565 15.2968 135.807 15.3811 135.912C14.6391 139.469 13.938 143.343 14.2845 146.963C14.687 151.163 14.8227 155.421 15.4568 159.591C16.3472 165.427 17.7574 171.202 19.5799 176.822C21.2701 182.484 23.3888 188.038 25.9707 193.346C27.8157 197.142 30.1215 200.724 32.175 204.409C33.946 207.585 36.7219 210.376 39.3534 212.882C39.3453 213.017 40.4379 213.77 40.5517 213.738C43.9443 215.514 48.2175 217.396 52.0935 217.65C55.8424 217.897 61.4115 215.704 64.58 213.777C64.6441 213.79 64.7134 213.789 64.7919 213.755C66.3107 213.096 67.7301 212.249 68.6667 210.855C69.5312 209.566 68.5056 207.464 68.0107 206.256C66.6924 203.03 64.7504 199.941 62.8851 197.003Z" fill="#190400"/>
<path d="M175.013 54.5683C174.657 58.5194 174.457 62.5056 173.948 66.4376C173.214 72.1077 171.828 77.757 170.081 83.2337L170.054 83.2256C169.961 83.556 169.858 83.8874 169.761 84.2189C169.653 84.5463 169.55 84.8772 169.439 85.2035L169.466 85.2115C167.795 90.7113 165.727 96.1493 163.111 101.233C161.297 104.761 159.197 108.154 157.249 111.607C155.382 114.922 152.538 117.845 149.693 120.398C145.644 122.472 140.565 125.098 135.835 124.364C133.454 123.998 129.479 122.686 127.354 121.544C126.891 121.293 126.424 121.043 125.977 120.764C125.655 120.562 126.331 119.098 126.402 118.876C126.77 117.75 127.132 116.624 127.526 115.507C129.2 110.737 131.373 106.258 135.049 102.704C136.266 101.526 137.994 99.5598 139.775 99.3381C140.312 99.2728 140.817 99.3675 141.291 99.5673C141.399 99.6805 141.833 99.647 142.064 100.001C143.314 100.887 144.445 103.053 145.183 104.16C149.803 101.365 154.201 94.8974 156.368 88.983C157.226 86.6431 158.155 84.3078 158.944 81.9344L158.949 81.9362C159.06 81.6087 159.153 81.2761 159.255 80.947C159.358 80.6161 159.471 80.2892 159.566 79.9589L159.56 79.9572C160.258 77.5544 160.819 75.1053 161.441 72.6921C163.017 66.5923 163.069 58.7717 160.852 53.8471C159.616 54.3391 157.454 55.4796 155.924 55.4998C155.533 55.6603 155.194 55.3866 155.041 55.4195C154.538 55.315 154.068 55.1077 153.663 54.7468C152.325 53.5543 152.016 50.9523 151.682 49.2938C150.676 44.2796 151.431 39.3596 152.761 34.4824C153.071 33.3396 153.415 32.2066 153.751 31.0696C153.817 30.8455 154.092 29.258 154.472 29.2748C154.998 29.2979 155.524 29.3585 156.048 29.4168C156.77 29.496 157.644 29.6652 158.564 29.8829C158.682 29.9995 158.868 30.0376 159.032 29.9943C161.046 30.499 163.225 31.2289 164.631 31.9092C168.941 33.9904 171.63 39.0363 173.785 43.0439C174.679 46.7599 175.358 50.7796 175.013 54.5683ZM125.059 120.403C123.251 119.551 121.485 118.278 122.166 116.034C122.664 114.39 123.394 112.828 124.217 111.32C125.372 109.207 126.579 107.089 127.886 105.067C130.519 101.003 135.478 95.2023 140.158 98.5539C138.093 98.6428 136.261 100.416 134.865 101.767C129.524 106.935 127.345 113.529 125.059 120.403ZM147.131 43.2801C147.202 40.8726 147.411 38.4449 147.661 36.0479C147.839 34.3409 148.126 32.6403 148.648 31.0037C149.361 28.7701 151.538 28.7262 153.51 29.0507C151.488 36.0069 149.538 42.6726 151.001 49.9596C151.382 51.8647 151.884 54.3633 153.532 55.6095C147.778 55.7123 146.988 48.1215 147.131 43.2801ZM159.169 23.9361C160.52 24.0695 161.855 24.2993 162.255 25.8135C162.607 27.1422 162.235 28.643 162.172 30.0134C161.257 29.7062 160.31 29.4423 159.369 29.224C159.391 27.4633 158.868 25.676 159.169 23.9361ZM160.697 18.5368C159.138 18.4439 160.078 16.4816 160.936 18.0951C161.013 18.2394 161.062 18.3746 161.113 18.5103C160.986 18.5328 160.851 18.5461 160.697 18.5368ZM160.143 13.4228C159.879 13.4725 160.221 11.7164 161.138 12.8759C161.14 12.8788 161.142 12.8834 161.145 12.8863C160.881 13.1468 160.55 13.346 160.143 13.4228ZM174.218 42.1592C172.433 38.7718 169.983 34.7954 166.939 32.3862C165.925 31.5841 164.568 30.8998 163.074 30.335C163.095 28.423 163.729 26.2552 162.702 24.4951C162.568 24.2653 162.393 24.0793 162.195 23.92C161.987 23.8593 161.774 23.8154 161.564 23.76C162.156 23.2033 162.078 21.8399 161.583 20.8501C162.044 20.4055 162.176 19.7657 162.097 19.1039C163.73 18.1216 163.27 15.1379 162.641 13.6232C162.546 13.3957 162.395 13.1364 162.206 12.8806C162.957 11.7597 162.967 10.327 161.824 9.19055C162.722 8.34341 163.113 7.04007 162.714 5.58312C162.667 5.41335 162.601 5.2736 162.533 5.13559C163.419 4.00145 163.349 2.40014 162.729 0.9455C162.786 0.903923 162.833 0.8635 162.869 0.825965C162.872 0.824233 162.872 0.8225 162.874 0.82019H159.818C159.812 0.837514 159.802 0.851951 159.797 0.869852C159.444 2.08137 160.78 1.86713 161.822 1.43346C162.189 1.89428 162.377 2.43652 162.34 3.08385C162.294 3.59029 162.148 4.04707 161.911 4.42531C161.194 3.9795 160.212 4.21222 159.519 5.02587C158.39 6.34942 160.201 6.58272 161.172 6.15886C161.43 6.04567 161.656 5.91228 161.861 5.76733C162.085 6.65836 161.777 8.11993 161.246 8.5357C161.205 8.57208 161.159 8.59634 161.117 8.62983C159.975 7.93629 158.611 7.95073 158.585 9.7351C158.582 9.98745 158.796 10.1901 159.042 10.193C159.773 10.2028 160.43 10.0458 160.989 9.76628C161.303 10.0579 161.554 10.3547 161.595 10.4408C161.857 11.0067 161.842 11.6592 161.608 12.2136C160.812 11.4923 159.797 11.1643 159.224 12.4948C158.719 13.6642 159.424 14.8745 160.774 14.1544C161.082 13.9904 161.357 13.7918 161.6 13.5718C161.897 14.0846 162.124 14.6482 162.211 15.2222C162.337 16.056 162.431 17.4275 161.829 18.1164C161.338 16.9667 160.322 16.0699 159.428 16.5463C158.868 16.8443 158.467 17.9391 158.808 18.5051C159.309 19.3395 160.169 19.4983 161.089 19.4198C161.154 19.414 161.209 19.3972 161.271 19.3874C161.253 19.6588 161.167 19.8904 161.008 20.0711C160.419 19.5572 159.612 19.5289 158.719 20.6151C158.529 20.8467 158.545 21.3266 158.921 21.3803C159.734 21.4981 160.349 21.4386 160.828 21.2792C161.121 21.9722 161.129 23.0462 160.923 23.0982C160.693 23.1565 160.599 23.3338 160.6 23.5152C159.901 23.3563 159.197 23.2172 158.483 23.1103C158.422 23.1658 158.374 23.2322 158.354 23.3084C157.89 25.2048 158.455 27.1128 158.457 29.0265C157.017 28.7343 155.631 28.5518 154.461 28.4842C154.415 28.4369 154.358 28.3982 154.274 28.382C152.65 28.0627 151 27.9535 149.437 28.5691C147.995 29.1391 147.646 31.4513 147.366 32.7275C146.621 36.131 146.464 39.7772 146.331 43.2541C146.111 49.0027 147.541 57.6895 154.962 56.2597C156.781 56.6033 159.004 55.7002 160.624 54.9119C162.18 60.5053 162.199 66.0472 160.864 71.7306C160.16 74.7305 159.405 77.7645 158.489 80.7079C157.571 83.6507 156.47 86.5778 155.345 89.4461C153.219 94.8829 150.055 99.4345 145.598 103.155C144.712 101.586 143.395 99.58 141.703 98.8305C136.408 93.4398 130.298 99.7781 127.214 104.635C125.349 107.572 123.407 110.662 122.088 113.888C121.593 115.097 120.568 117.198 121.432 118.487C122.369 119.881 123.788 120.728 125.308 121.388C125.385 121.422 125.455 121.422 125.518 121.409C128.687 123.336 134.257 125.53 138.005 125.282C141.881 125.028 146.155 123.146 149.547 121.37C149.661 121.402 150.754 120.649 150.745 120.513C153.376 118.009 156.153 115.217 157.924 112.041C159.977 108.356 162.283 104.774 164.128 100.978C166.71 95.6694 168.828 90.116 170.519 84.4545C172.341 78.8346 173.752 73.0594 174.642 67.2235C175.276 63.053 175.412 58.7942 175.814 54.5955C176.161 50.9748 175.459 47.1011 174.718 43.544C174.802 43.4394 174.33 42.1973 174.218 42.1592Z" fill="#190400"/>
<path d="M94.3491 129.675C92.0629 122.802 89.8836 116.208 84.5432 111.04C83.1463 109.689 81.3151 107.916 79.2501 107.826C83.9293 104.475 88.8886 110.276 91.5207 114.339C92.8292 116.362 94.0361 118.479 95.1905 120.593C96.0145 122.1 96.7433 123.663 97.2422 125.307C97.923 127.551 96.1572 128.823 94.3491 129.675ZM93.4309 130.037C92.984 130.316 92.5168 130.566 92.0531 130.816C89.9292 131.957 85.9539 133.271 83.573 133.637C78.8424 134.371 73.7642 131.745 69.715 129.669C66.8693 127.118 64.0264 124.194 62.1589 120.88C60.2111 117.427 58.1103 114.033 56.2965 110.506C53.6811 105.422 51.6138 99.9831 49.942 94.4839L49.9686 94.4758C49.8577 94.1496 49.7549 93.8187 49.6469 93.4912C49.5499 93.1592 49.4466 92.8289 49.353 92.498L49.3265 92.5067C47.579 87.03 46.1937 81.3795 45.4592 75.7105C44.9504 71.7774 44.7506 67.7917 44.3937 63.8407C44.049 60.052 44.7293 56.0322 45.6226 52.3157C47.7777 48.3086 50.4664 43.2627 54.7771 41.1815C56.1827 40.5019 58.3621 39.7714 60.3757 39.2673C60.5403 39.31 60.725 39.2724 60.844 39.1558C61.7645 38.9375 62.6382 38.7683 63.36 38.6892C63.8838 38.6309 64.4104 38.5708 64.9359 38.5477C65.3159 38.5304 65.5913 40.1184 65.6572 40.3425C65.9933 41.4784 66.3363 42.6125 66.6469 43.7553C67.9763 48.632 68.7316 53.552 67.7257 58.5656C67.3913 60.2246 67.0835 62.8267 65.7449 64.0186C65.3396 64.3795 64.8701 64.5874 64.3665 64.6919C64.2141 64.659 63.8751 64.9327 63.4847 64.7722C61.9533 64.752 59.7913 63.6115 58.5555 63.1189C56.3398 68.0447 56.3906 75.8653 57.9665 81.965C58.589 84.3777 59.1497 86.8267 59.8479 89.2301L59.8415 89.2313C59.9374 89.5622 60.05 89.8884 60.1528 90.2188C60.255 90.5485 60.348 90.8817 60.4588 91.2091L60.464 91.2068C61.2534 93.5802 62.182 95.9154 63.0401 98.2553C65.2067 104.17 69.6047 110.637 74.225 113.433C74.9624 112.326 76.0943 110.16 77.3445 109.273C77.5749 108.919 78.0086 108.953 78.1171 108.84C78.5907 108.64 79.0954 108.545 79.6324 108.61C81.4133 108.832 83.1422 110.798 84.359 111.976C88.0345 115.531 90.2075 120.009 91.8816 124.779C92.2754 125.897 92.6369 127.022 93.0053 128.149C93.077 128.371 93.7532 129.835 93.4309 130.037ZM57.1523 35.0858C57.5524 33.5717 58.8887 33.3419 60.2388 33.2085C60.5397 34.949 60.0165 36.7356 60.039 38.4969C59.0977 38.7146 58.1501 38.9791 57.236 39.2857C57.173 37.916 56.8006 36.414 57.1523 35.0858ZM70.7591 40.2761C71.2817 41.9126 71.5698 43.6133 71.7471 45.3208C71.9972 47.7179 72.2056 50.145 72.2772 52.5524C72.4193 57.3939 71.6293 64.9841 65.8755 64.8813C67.5235 63.6357 68.0254 61.137 68.4065 59.232C69.8698 51.9449 67.9191 45.2792 65.898 38.3231C67.87 37.9986 70.0465 38.0424 70.7591 40.2761ZM58.2697 22.1489C59.1878 20.9887 59.5291 22.7454 59.2652 22.6952C58.8581 22.6183 58.5272 22.4191 58.2627 22.1593C58.2656 22.1552 58.2673 22.1512 58.2697 22.1489ZM58.4712 27.3674C59.3299 25.7546 60.2694 27.7162 58.7108 27.8098C58.5567 27.8178 58.4215 27.8051 58.2945 27.782C58.3453 27.6475 58.3944 27.5124 58.4712 27.3674ZM92.1934 113.907C89.1098 109.05 83.0008 102.713 77.7048 108.103C76.0129 108.853 74.6957 110.859 73.8098 112.427C69.3524 108.707 66.1884 104.156 64.0628 98.7185C62.9367 95.8496 61.8367 92.923 60.9191 89.9803C60.0032 87.0369 59.2485 84.0029 58.544 81.003C57.2077 75.3196 57.2273 69.7782 58.7842 64.1837C60.404 64.972 62.6266 65.8757 64.4468 65.5321C71.8667 66.9619 73.2965 58.2757 73.0764 52.527C72.9436 49.0495 72.7871 45.4034 72.0422 42.0004C71.7616 40.7236 71.4133 38.4114 69.9708 37.8415C68.4082 37.2265 66.7578 37.335 65.134 37.655C65.0508 37.6706 64.9931 37.7098 64.9469 37.756C63.7758 37.8247 62.3916 38.0066 60.9503 38.2988C60.9526 36.3851 61.5173 34.4772 61.0542 32.5802C61.034 32.5051 60.9855 32.4381 60.9248 32.3833C60.2111 32.489 59.5066 32.6287 58.8073 32.7875C58.8084 32.6056 58.7149 32.4289 58.4845 32.3712C58.2789 32.318 58.2876 31.2445 58.5798 30.5521C59.0596 30.7109 59.6735 30.7698 60.4865 30.6526C60.8636 30.5989 60.8798 30.1185 60.6887 29.8875C59.7953 28.8013 58.988 28.829 58.4002 29.3435C58.2408 29.1628 58.1547 28.9318 58.1368 28.6598C58.1986 28.6696 58.2529 28.6864 58.3187 28.6921C59.2398 28.7707 60.0985 28.6119 60.5997 27.7774C60.9404 27.2121 60.5403 26.1172 59.979 25.8187C59.085 25.3423 58.0693 26.2391 57.5784 27.3882C56.9767 26.6993 57.0708 25.3284 57.1961 24.4945C57.2828 23.9211 57.5103 23.3569 57.8077 22.8447C58.0502 23.0642 58.3257 23.2634 58.634 23.4268C59.9836 24.1469 60.6887 22.9365 60.184 21.7672C59.6117 20.4367 58.5959 20.7658 57.8002 21.4859C57.5657 20.9316 57.5507 20.2796 57.8129 19.7131C57.8533 19.6271 58.1045 19.3303 58.4192 19.0386C58.9782 19.3187 59.6348 19.4758 60.3653 19.4654C60.6119 19.4625 60.8267 19.2598 60.8232 19.0075C60.7972 17.2231 59.4327 17.2087 58.2904 17.9028C58.2483 17.8693 58.2027 17.845 58.1617 17.8081C57.6304 17.3923 57.3226 15.9307 57.5472 15.0397C57.7517 15.1846 57.9775 15.318 58.2362 15.4318C59.2063 15.8557 61.0184 15.6218 59.8889 14.2982C59.1953 13.4846 58.2136 13.2519 57.4959 13.6977C57.2603 13.3194 57.113 12.8621 57.0674 12.3568C57.0298 11.7089 57.2187 11.1661 57.5854 10.7064C58.6283 11.1401 59.9639 11.3532 59.6117 10.1422C59.2669 8.96245 57.903 8.52762 57.1349 9.41461C56.1596 8.60442 56.2745 6.97828 56.4922 5.8811C56.543 5.53519 56.6048 5.19103 56.6799 4.84917C56.7001 4.83646 56.7197 4.82433 56.74 4.81221C57.2574 5.00104 57.9561 5.038 58.8858 4.84455C59.0908 4.80181 59.2121 4.59739 59.2225 4.40221C59.2831 3.24035 57.3284 2.4394 56.4697 3.22418C56.3992 2.84767 56.4529 2.41688 56.509 2.11025C56.5783 1.73663 56.7457 1.26542 56.9813 0.82019H56.0811C55.4961 2.00399 55.3067 3.38818 55.9251 4.22262C55.1889 6.12305 55.0867 8.61193 56.5378 10.0983C56.5742 10.1359 56.6216 10.1763 56.6787 10.2179C56.0591 11.6725 55.9892 13.2738 56.8739 14.4079C56.8064 14.546 56.74 14.6863 56.6938 14.8555C56.2942 16.3124 56.6857 17.6163 57.5842 18.4629C56.4402 19.5994 56.4506 21.0326 57.2008 22.1529C57.0131 22.4093 56.8618 22.6674 56.7671 22.8955C56.1377 24.4102 55.678 27.3946 57.3111 28.3768C57.2314 29.038 57.3636 29.6779 57.8244 30.1225C57.3295 31.1123 57.2516 32.4757 57.8429 33.0324C57.6333 33.0884 57.4208 33.1323 57.2123 33.1929C57.0148 33.3517 56.8393 33.5376 56.7053 33.7681C55.6791 35.5276 56.3121 37.6954 56.3328 39.6074C54.8395 40.1721 53.4819 40.8564 52.4684 41.6585C49.4246 44.0677 46.9744 48.0441 45.1889 51.4316C45.078 51.4702 44.6057 52.7118 44.69 52.8163C43.9485 56.3741 43.2469 60.2471 43.5928 63.8679C43.9959 68.0666 44.1316 72.326 44.7662 76.4959C45.6561 82.3317 47.0663 88.107 48.8887 93.7274C50.579 99.3883 52.6977 104.942 55.2795 110.25C57.1245 114.047 59.4309 117.629 61.4838 121.314C63.2549 124.489 66.0314 127.281 68.6629 129.786C68.6542 129.922 69.7468 130.674 69.8605 130.642C73.2531 132.418 77.5264 134.3 81.4023 134.555C85.1518 134.802 90.7203 132.609 93.8889 130.681C93.953 130.694 94.0223 130.693 94.1002 130.66C95.6201 130 97.0389 129.154 97.9756 127.76C98.8395 126.471 97.8145 124.369 97.3196 123.161C96.0007 119.935 94.0592 116.845 92.1934 113.907Z" fill="#190400"/>
</g>
<defs>
<filter id="filter0_d" x="-3.5" y="0.82019" width="253.536" height="253.536" filterUnits="userSpaceOnUse" color-interpolation-filters="sRGB">
<feFlood flood-opacity="0" result="BackgroundImageFix"/>
<feColorMatrix in="SourceAlpha" type="matrix" values="0 0 0 0 0 0 0 0 0 0 0 0 0 0 0 0 0 0 127 0"/>
<feOffset dy="4"/>
<feGaussianBlur stdDeviation="2"/>
<feColorMatrix type="matrix" values="0 0 0 0 0 0 0 0 0 0 0 0 0 0 0 0 0 0 0.25 0"/>
<feBlend mode="normal" in2="BackgroundImageFix" result="effect1_dropShadow"/>
<feBlend mode="normal" in="SourceGraphic" in2="effect1_dropShadow" result="shape"/>
</filter>
</defs>
</svg>
