<svg width="110" height="45" viewBox="0 0 110 45" fill="none" xmlns="http://www.w3.org/2000/svg">
<path d="M105.905 37.8233H106.681L109.591 44.709H108.621L107.942 42.9633H104.45L103.772 44.709H102.802L105.905 37.8233ZM106.293 38.8901L104.838 42.2845H107.651L106.293 38.8901ZM105.226 36.6595C105.226 36.5625 105.226 36.3685 105.323 36.2715C105.323 36.1745 105.42 36.0776 105.517 35.9806C105.614 35.8836 105.711 35.7866 105.808 35.7866C105.905 35.6896 106.099 35.6896 106.196 35.6896C106.487 35.6896 106.681 35.7866 106.875 35.9806C107.069 36.1746 107.166 36.3685 107.166 36.6595C107.166 36.9504 107.069 37.1444 106.875 37.3383C106.681 37.5323 106.487 37.6293 106.196 37.6293C105.905 37.6293 105.711 37.5323 105.517 37.3383C105.323 37.1444 105.226 36.9504 105.226 36.6595ZM105.614 36.6595C105.614 36.8534 105.711 36.9504 105.808 37.0474C105.905 37.1444 106.002 37.2414 106.196 37.2414C106.293 37.2414 106.487 37.1444 106.584 37.0474C106.681 36.9504 106.778 36.8534 106.778 36.6595C106.778 36.4655 106.681 36.3685 106.584 36.2715C106.487 36.1745 106.293 36.0776 106.196 36.0776C106.099 36.0776 105.905 36.1745 105.808 36.2715C105.711 36.3685 105.614 36.4655 105.614 36.6595Z" fill="white"/>
<path d="M97.6616 37.8233H102.026V38.5991H98.5344V40.7328H101.832V41.5087H98.5344V43.9332H102.22V44.7091H97.6616V37.8233Z" fill="white"/>
<path d="M92.8125 37.8233H93.6853V43.9332H96.7888V44.7091H92.8125V37.8233Z" fill="white"/>
<path d="M91.1638 42.0906C91.1638 42.4785 91.1638 42.8664 91.0668 43.1574C90.9698 43.4483 90.7759 43.8363 90.5819 44.0302C90.388 44.3212 90.097 44.5151 89.8061 44.6121C89.5151 44.8061 89.0302 44.8061 88.6423 44.8061C88.1574 44.8061 87.7694 44.7091 87.4785 44.6121C87.1875 44.4182 86.8966 44.2242 86.7026 44.0302C86.5087 43.7393 86.3147 43.4483 86.2177 43.1574C86.1207 42.8664 86.1207 42.4785 86.1207 42.0906V37.8233H86.8966V41.9936C86.8966 42.2845 86.8966 42.5755 86.9936 42.7694C87.0906 43.0604 87.1875 43.2544 87.2845 43.4483C87.3815 43.6423 87.5755 43.8363 87.8664 43.9332C88.1574 44.0302 88.3513 44.1272 88.7393 44.1272C89.1272 44.1272 89.4181 44.0302 89.6121 43.9332C89.8061 43.8363 90 43.6423 90.194 43.4483C90.291 43.2544 90.3879 43.0604 90.4849 42.7694C90.5819 42.4785 90.5819 42.2845 90.5819 41.9936V37.8233H91.3578V42.0906H91.1638Z" fill="white"/>
<path d="M81.3685 37.8233H82.2414V43.9332H85.3448V44.7091H81.3685V37.8233Z" fill="white"/>
<path d="M76.5194 39.0841C76.4224 38.8901 76.2284 38.6961 75.9375 38.5992C75.7435 38.5022 75.4526 38.4052 75.2586 38.4052C75.0646 38.4052 74.8707 38.4052 74.6767 38.5022C74.4827 38.5022 74.3857 38.5992 74.1918 38.6961C74.0948 38.7931 73.9008 38.8901 73.9008 39.0841C73.8038 39.278 73.8038 39.375 73.8038 39.569C73.8038 39.7629 73.8038 39.8599 73.9008 39.9569C73.9978 40.0539 73.9978 40.1509 74.0948 40.2478C74.1918 40.3448 74.3857 40.4418 74.5797 40.5388C74.7737 40.6358 74.9676 40.7328 75.2586 40.8297C75.5495 40.9267 75.7435 41.0237 76.0345 41.1207C76.3254 41.2177 76.5194 41.3147 76.7133 41.5086C76.9073 41.7026 77.1013 41.7996 77.1982 42.0905C77.2952 42.2845 77.3922 42.5754 77.3922 42.9634C77.3922 43.3513 77.2952 43.6422 77.1982 43.8362C77.1013 44.1271 76.9073 44.3211 76.6163 44.4181C76.4224 44.6121 76.1314 44.709 75.8405 44.806C75.5495 44.903 75.1616 44.903 74.8707 44.903C74.6767 44.903 74.4827 44.903 74.2888 44.806C74.0948 44.806 73.9008 44.709 73.7069 44.612C73.5129 44.5151 73.3189 44.4181 73.2219 44.3211C73.125 44.2241 72.931 44.0302 72.834 43.8362L73.5129 43.2543C73.7069 43.5452 73.9008 43.7392 74.0948 43.8362C74.3857 43.9332 74.6767 44.0302 74.9676 44.0302C75.1616 44.0302 75.3556 44.0302 75.4525 43.9332C75.6465 43.8362 75.7435 43.8362 75.9375 43.7392C76.0344 43.6422 76.2284 43.5452 76.3254 43.3513C76.4224 43.1573 76.4224 43.0603 76.4224 42.8664C76.4224 42.6724 76.4224 42.4784 76.3254 42.3815C76.2284 42.2845 76.1314 42.0905 76.0345 41.9935C75.8405 41.8965 75.7435 41.7996 75.4525 41.7026C75.2586 41.6056 74.9676 41.5086 74.6767 41.4116C74.3857 41.3147 74.1918 41.2177 73.9978 41.1207C73.8038 41.0237 73.6099 40.9267 73.4159 40.7328C73.2219 40.5388 73.125 40.4418 73.028 40.2478C72.931 40.0539 72.931 39.7629 72.931 39.472C72.931 39.181 73.028 38.8901 73.125 38.5992C73.2219 38.3082 73.4159 38.1142 73.6099 38.0173C73.8038 37.8233 74.0948 37.7263 74.3857 37.6293C74.6767 37.5323 74.9676 37.5323 75.2586 37.5323C75.6465 37.5323 76.0344 37.6293 76.3254 37.7263C76.6163 37.8233 76.9073 38.0173 77.1982 38.3082L76.5194 39.0841Z" fill="white"/>
<path d="M71.5733 37.8233H70.7974V44.7091H71.5733V37.8233Z" fill="white"/>
<path d="M64.8815 37.8233H66.6272C66.9181 37.8233 67.306 37.8233 67.597 37.9203C67.8879 37.9203 68.1789 38.0172 68.4698 38.2112C68.7608 38.3082 68.9548 38.5022 69.1487 38.7931C69.3427 39.084 69.4397 39.375 69.4397 39.8599C69.4397 40.3448 69.3427 40.8297 68.9548 41.1207C68.3729 41.6056 67.2091 41.6056 66.6272 41.7026L69.6336 44.903H68.6638L65.7543 41.7996V44.903H64.9785V37.8233H64.8815ZM65.6573 40.8297H66.4332C66.6272 40.8297 66.9181 40.8297 67.1121 40.8297C67.403 40.8297 67.597 40.7328 67.791 40.7328C67.9849 40.6358 68.1789 40.5388 68.2759 40.4418C68.3729 40.2478 68.4698 40.0539 68.4698 39.7629C68.4698 39.472 68.3729 39.278 68.2759 39.181C68.1789 38.9871 68.0819 38.8901 67.888 38.7931C67.694 38.6961 67.597 38.6961 67.3061 38.5991C67.1121 38.5991 66.9181 38.5991 66.7241 38.5991H65.5603V40.8297H65.6573Z" fill="white"/>
<path d="M63.1357 37.8233H62.3598V44.7091H63.1357V37.8233Z" fill="white"/>
<path d="M97.8555 18.3297V16.584L107.942 26.5733V16.681H109.59V28.6099V30.4526L99.6012 20.4633H99.5042V30.4526H97.8555V18.3297Z" fill="white"/>
<path d="M85.8297 16.584H94.4612V18.1357H87.4784V22.5H94.0733V23.9547H87.4784V28.9009H94.8491V30.3556H85.8297V16.584Z" fill="white"/>
<path d="M73.125 16.584H76.6164C77.2953 16.584 77.9741 16.584 78.556 16.681C79.2349 16.778 79.8168 16.9719 80.3017 17.1659C80.7867 17.4569 81.2716 17.8448 81.5625 18.3297C81.8535 18.8146 82.0474 19.4935 82.0474 20.3664C82.0474 21.3362 81.7565 22.209 81.1746 22.7909C80.1078 23.8577 77.5862 23.7608 76.5194 23.9547L82.5323 30.2586H80.4957L74.6767 24.0517V30.3556H73.028V16.584H73.125ZM74.7737 22.6939H76.2285C76.7134 22.6939 77.1983 22.6939 77.6832 22.6939C78.1681 22.6939 78.653 22.597 79.041 22.403C79.4289 22.306 79.8168 22.0151 80.0108 21.7241C80.3017 21.4332 80.3987 20.9483 80.3987 20.3664C80.3987 19.8814 80.3017 19.4935 80.1078 19.2026C79.9138 18.9116 79.6229 18.7176 79.3319 18.5237C79.041 18.3297 78.653 18.2327 78.2651 18.2327C77.8772 18.1357 77.4892 18.1357 77.1013 18.1357H74.7737V22.6939Z" fill="white"/>
<path d="M69.7307 25.1185C69.7307 25.8944 69.6337 26.5732 69.4397 27.2521C69.2458 27.931 68.9548 28.5129 68.5669 28.9978C68.1789 29.4827 67.597 29.8707 66.9182 30.2586C66.2393 30.5495 65.4634 30.7435 64.4936 30.7435C63.5238 30.7435 62.7479 30.5495 62.069 30.2586C61.3901 29.9676 60.9052 29.5797 60.4203 28.9978C60.0324 28.5129 59.7414 27.931 59.5475 27.2521C59.3535 26.5732 59.2565 25.8944 59.2565 25.1185V16.584H60.9052V24.8276C60.9052 25.4095 61.0022 25.8944 61.0992 26.4763C61.1962 26.9612 61.3901 27.4461 61.6811 27.834C61.972 28.222 62.36 28.5129 62.7479 28.8039C63.2328 28.9978 63.8147 29.1918 64.4936 29.1918C65.1725 29.1918 65.7544 29.0948 66.2393 28.8039C66.7242 28.6099 67.0151 28.222 67.3061 27.834C67.597 27.4461 67.791 26.9612 67.888 26.4763C67.985 25.9913 68.082 25.4095 68.082 24.8276V16.584H69.7307V25.1185Z" fill="white"/>
<path d="M49.8491 30.7435C48.7823 30.7435 47.8125 30.5495 46.9396 30.1616C46.0668 29.7737 45.2909 29.2888 44.709 28.6099C44.0302 27.931 43.5452 27.1551 43.2543 26.2823C42.8664 25.4095 42.6724 24.4396 42.6724 23.3728C42.6724 22.306 42.8664 21.3362 43.2543 20.4633C43.6422 19.5905 44.1271 18.8146 44.709 18.1358C45.3879 17.4569 46.0668 16.972 46.9396 16.584C47.8125 16.1961 48.7823 16.0021 49.8491 16.0021C50.9159 16.0021 51.8858 16.1961 52.7586 16.584C53.6314 16.972 54.4073 17.4569 54.9892 18.1358C55.6681 18.8146 56.153 19.5905 56.4439 20.4633C56.8319 21.3362 57.0258 22.306 57.0258 23.3728C57.0258 24.4396 56.8319 25.4095 56.4439 26.2823C56.056 27.1551 55.5711 27.931 54.9892 28.6099C54.3103 29.2888 53.6314 29.7737 52.7586 30.1616C51.7888 30.5495 50.8189 30.7435 49.8491 30.7435ZM49.8491 29.1918C50.625 29.1918 51.4008 28.9978 52.0797 28.7069C52.7586 28.4159 53.3405 28.028 53.8254 27.4461C54.3103 26.9612 54.6983 26.2823 54.9892 25.6034C55.2801 24.9245 55.3771 24.1487 55.3771 23.3728C55.3771 22.597 55.2801 21.8211 54.9892 21.1422C54.6983 20.4633 54.3103 19.8814 53.8254 19.2995C53.3405 18.8146 52.7586 18.3297 52.0797 18.0388C51.4008 17.7478 50.722 17.5539 49.8491 17.5539C49.0733 17.5539 48.2974 17.7478 47.6185 18.0388C46.9396 18.3297 46.3577 18.7177 45.8728 19.2995C45.3879 19.7845 45 20.4633 44.709 21.1422C44.4181 21.8211 44.3211 22.597 44.3211 23.3728C44.3211 24.1487 44.4181 24.9245 44.709 25.6034C45 26.2823 45.3879 26.8642 45.8728 27.4461C46.3577 27.931 46.9396 28.4159 47.6185 28.7069C48.2974 29.0948 48.9763 29.1918 49.8491 29.1918Z" fill="white"/>
<path d="M39.6659 26.8642C39.6659 27.3491 39.5689 27.834 39.4719 28.222C39.375 28.7069 39.084 29.0948 38.7931 29.4827C38.5021 29.8707 38.1142 30.1616 37.6293 30.3556C37.1444 30.5495 36.4655 30.7435 35.7866 30.7435C34.8168 30.7435 34.0409 30.4526 33.362 29.9676C32.6832 29.4827 32.2952 28.7069 32.1013 27.737L33.75 27.4461C33.8469 28.028 34.0409 28.4159 34.4288 28.7069C34.8168 28.9978 35.2047 29.1918 35.7866 29.1918C36.2715 29.1918 36.6594 29.0948 36.9504 28.9008C37.2413 28.7069 37.4353 28.5129 37.6293 28.222C37.8232 27.931 37.9202 27.6401 38.0172 27.2521C38.1142 26.8642 38.1142 26.5732 38.1142 26.1853V16.584H39.7629V26.8642H39.6659Z" fill="white"/>
<path d="M102.414 14.7414C101.347 14.7414 100.377 14.5474 99.5043 14.1595C98.6314 13.7715 97.8556 13.2866 97.2737 12.6078C96.5948 11.9289 96.1099 11.153 95.8189 10.2802C95.431 9.40732 95.237 8.4375 95.237 7.37069C95.237 6.30388 95.431 5.33405 95.8189 4.4612C96.2069 3.58836 96.6918 2.8125 97.2737 2.13362C97.9525 1.45474 98.6314 0.969826 99.5043 0.581895C100.377 0.193964 101.347 0 102.414 0C103.481 0 104.45 0.193964 105.323 0.581895C106.196 0.969826 106.972 1.45474 107.554 2.13362C108.233 2.8125 108.718 3.58836 109.009 4.4612C109.396 5.33405 109.59 6.30388 109.59 7.37069C109.59 8.4375 109.396 9.40732 109.009 10.2802C108.621 11.153 108.136 11.9289 107.554 12.6078C106.875 13.2866 106.196 13.7715 105.323 14.1595C104.45 14.5474 103.481 14.7414 102.414 14.7414ZM102.414 13.2866C103.19 13.2866 103.965 13.0927 104.644 12.8017C105.323 12.5108 105.905 12.1228 106.39 11.5409C106.875 11.056 107.263 10.3772 107.554 9.69827C107.845 9.01939 107.942 8.24353 107.942 7.46767C107.942 6.69181 107.845 5.91594 107.554 5.23707C107.263 4.55819 106.875 3.97629 106.39 3.3944C105.905 2.90948 105.323 2.42457 104.644 2.13362C103.965 1.84267 103.287 1.64871 102.414 1.64871C101.638 1.64871 100.862 1.84267 100.183 2.13362C99.5043 2.42457 98.9224 2.8125 98.4375 3.3944C97.9525 3.87931 97.5646 4.55819 97.2737 5.23707C96.9827 5.91594 96.8857 6.69181 96.8857 7.46767C96.8857 8.24353 96.9827 9.01939 97.2737 9.69827C97.5646 10.3772 97.9525 10.959 98.4375 11.5409C98.9224 12.0259 99.5043 12.5108 100.183 12.8017C100.862 13.0927 101.638 13.2866 102.414 13.2866Z" fill="white"/>
<path d="M81.7564 2.23059V0.484894L91.8426 10.3772V0.484894H93.4913V12.5108V14.2565L83.4051 4.26723V14.2565H81.7564V2.23059Z" fill="white"/>
<path d="M67.8879 2.23059V0.484894L77.9741 10.3772V0.484894H79.6228V12.5108V14.2565L69.5366 4.26723V14.2565H67.8879V2.23059Z" fill="white"/>
<path d="M65.1724 0.484894H63.5237V14.2565H65.1724V0.484894Z" fill="white"/>
<path d="M49.7522 0.581879H51.5949L55.8621 10.1832L60.2264 0.581879H61.9721L55.7652 14.2565L54.9893 12.0259L49.7522 0.581879Z" fill="white"/>
<path d="M38.0172 0.484894H39.666V6.40086H39.8599L46.1638 0.484894H48.4914L41.7026 6.78879L48.7823 14.2565H46.4547L39.8599 7.27371H39.666V14.2565H38.0172V0.484894Z" fill="white"/>
<path d="M16.0991 27.7371C14.5474 27.7371 13.0927 27.4461 11.7349 26.8642C10.4741 26.2823 9.31034 25.5065 8.34052 24.5367C7.37069 23.5668 6.69181 22.306 6.10991 20.9483C5.625 19.5905 5.33405 18.1358 5.33405 16.4871C5.33405 14.9354 5.625 13.3836 6.10991 12.0259C6.59483 10.6681 7.37069 9.40735 8.34052 8.43752C9.31034 7.46769 10.3772 6.59485 11.7349 6.01295C12.9957 5.43106 14.4504 5.14011 16.0991 5.14011C17.6509 5.14011 19.1056 5.43106 20.4634 6.01295C21.7241 6.59485 22.8879 7.37071 23.8578 8.43752C24.8276 9.40735 25.5065 10.6681 26.0884 12.0259C26.5733 13.3836 26.8642 14.8384 26.8642 16.4871C26.8642 18.0388 26.5733 19.5905 26.0884 20.9483C25.6034 22.306 24.8276 23.5668 23.8578 24.5367C22.8879 25.5065 21.8211 26.3793 20.4634 26.9612C19.1056 27.4461 17.6509 27.7371 16.0991 27.7371ZM22.306 41.0237V35.9806H18.6207V32.4892C19.9784 32.2953 21.3362 31.9073 22.5 31.4224C24.4396 30.6466 26.1853 29.4828 27.5431 28.028C28.9978 26.5733 30.0646 24.8276 30.9375 22.8879C31.7134 20.9483 32.1013 18.7177 32.1013 16.4871C32.1013 14.1595 31.7134 12.0259 30.9375 10.0862C30.1616 8.14657 28.9978 6.40088 27.5431 4.94614C26.0884 3.4914 24.4396 2.42459 22.403 1.55175C20.4634 0.775884 18.3297 0.29097 16.0022 0.387953C13.6746 0.387953 11.5409 0.775887 9.60129 1.64873C7.66164 2.42459 5.91595 3.58839 4.55819 5.04313C3.10345 6.49787 2.03664 8.24356 1.16379 10.1832C0.387931 12.1229 0 14.3535 0 16.5841C0 18.9117 0.387931 21.0453 1.16379 22.9849C1.93965 24.9246 3.10345 26.6703 4.55819 28.125C6.01293 29.5798 7.66164 30.6466 9.69827 31.5194C10.959 32.0043 12.2198 32.3923 13.5776 32.5862V36.0776H9.89224V41.1207H13.5776V45H18.6207V41.1207L22.306 41.0237Z" fill="#722282"/>
</svg>
