<svg width="219" height="90" viewBox="0 0 219 90" fill="none" xmlns="http://www.w3.org/2000/svg">
<path d="M211.635 75.6466H213.185L218.999 89.4181H217.061L215.705 85.9268H208.728L207.371 89.4181H205.433L211.635 75.6466ZM212.41 77.7802L209.503 84.569H215.123L212.41 77.7802ZM210.278 73.319C210.278 73.125 210.278 72.7371 210.472 72.5431C210.472 72.3492 210.666 72.1552 210.859 71.9612C211.053 71.7673 211.247 71.5733 211.441 71.5733C211.635 71.3793 212.022 71.3793 212.216 71.3793C212.798 71.3793 213.185 71.5733 213.573 71.9612C213.96 72.3492 214.154 72.7371 214.154 73.319C214.154 73.9009 213.96 74.2888 213.573 74.6767C213.185 75.0647 212.798 75.2586 212.216 75.2586C211.635 75.2586 211.247 75.0647 210.859 74.6767C210.472 74.2888 210.278 73.9009 210.278 73.319ZM211.053 73.319C211.053 73.7069 211.247 73.9009 211.441 74.0949C211.635 74.2888 211.829 74.4828 212.216 74.4828C212.41 74.4828 212.798 74.2888 212.991 74.0949C213.185 73.9009 213.379 73.7069 213.379 73.319C213.379 72.9311 213.185 72.7371 212.991 72.5431C212.798 72.3492 212.41 72.1552 212.216 72.1552C212.022 72.1552 211.635 72.3492 211.441 72.5431C211.247 72.7371 211.053 72.9311 211.053 73.319Z" fill="#231F20"/>
<path d="M195.162 75.6467H203.883V77.1985H196.906V81.4657H203.495V83.0174H196.906V87.8666H204.271V89.4183H195.162V75.6467Z" fill="#231F20"/>
<path d="M185.471 75.6467H187.216V87.8666H193.417V89.4183H185.471V75.6467Z" fill="#231F20"/>
<path d="M182.177 84.1812C182.177 84.9571 182.177 85.7329 181.983 86.3148C181.79 86.8967 181.402 87.6726 181.014 88.0605C180.627 88.6424 180.045 89.0303 179.464 89.2243C178.883 89.6122 177.914 89.6123 177.138 89.6123C176.169 89.6123 175.394 89.4183 174.813 89.2243C174.231 88.8364 173.65 88.4485 173.262 88.0605C172.875 87.4786 172.487 86.8967 172.293 86.3148C172.099 85.7329 172.099 84.9571 172.099 84.1812V75.6467H173.65V83.9872C173.65 84.5691 173.65 85.151 173.844 85.539C174.037 86.1209 174.231 86.5088 174.425 86.8967C174.619 87.2847 175.006 87.6726 175.588 87.8666C176.169 88.0605 176.557 88.2545 177.332 88.2545C178.107 88.2545 178.689 88.0605 179.076 87.8666C179.464 87.6726 179.852 87.2847 180.239 86.8967C180.433 86.5088 180.627 86.1209 180.821 85.539C181.014 84.9571 181.014 84.5691 181.014 83.9872V75.6467H182.565V84.1812H182.177Z" fill="#231F20"/>
<path d="M162.602 75.6467H164.347V87.8666H170.548V89.4183H162.602V75.6467Z" fill="#231F20"/>
<path d="M152.912 78.1681C152.718 77.7802 152.331 77.3922 151.749 77.1983C151.362 77.0043 150.78 76.8103 150.393 76.8103C150.005 76.8103 149.617 76.8103 149.23 77.0043C148.842 77.0043 148.648 77.1983 148.261 77.3922C148.067 77.5862 147.679 77.7802 147.679 78.1681C147.485 78.556 147.485 78.75 147.485 79.1379C147.485 79.5258 147.485 79.7198 147.679 79.9138C147.873 80.1077 147.873 80.3017 148.067 80.4957C148.261 80.6896 148.648 80.8836 149.036 81.0776C149.424 81.2715 149.811 81.4655 150.393 81.6595C150.974 81.8534 151.362 82.0474 151.943 82.2414C152.524 82.4353 152.912 82.6293 153.3 83.0172C153.687 83.4052 154.075 83.5991 154.269 84.181C154.462 84.5689 154.656 85.1508 154.656 85.9267C154.656 86.7026 154.462 87.2845 154.269 87.6724C154.075 88.2543 153.687 88.6422 153.106 88.8362C152.718 89.2241 152.137 89.4181 151.555 89.6121C150.974 89.806 150.199 89.806 149.617 89.806C149.23 89.806 148.842 89.806 148.455 89.6121C148.067 89.6121 147.679 89.4181 147.292 89.2241C146.904 89.0301 146.516 88.8362 146.323 88.6422C146.129 88.4483 145.741 88.0603 145.547 87.6724L146.904 86.5086C147.292 87.0905 147.679 87.4784 148.067 87.6724C148.648 87.8664 149.23 88.0603 149.811 88.0603C150.199 88.0603 150.586 88.0603 150.78 87.8664C151.168 87.6724 151.362 87.6724 151.749 87.4784C151.943 87.2845 152.331 87.0905 152.524 86.7026C152.718 86.3146 152.718 86.1207 152.718 85.7327C152.718 85.3448 152.718 84.9569 152.524 84.7629C152.331 84.5689 152.137 84.181 151.943 83.987C151.555 83.7931 151.362 83.5991 150.78 83.4051C150.393 83.2112 149.811 83.0172 149.23 82.8233C148.648 82.6293 148.261 82.4353 147.873 82.2414C147.485 82.0474 147.098 81.8534 146.71 81.4655C146.323 81.0776 146.129 80.8836 145.935 80.4957C145.741 80.1077 145.741 79.5258 145.741 78.9439C145.741 78.3621 145.935 77.7802 146.129 77.1983C146.323 76.6164 146.71 76.2284 147.098 76.0345C147.485 75.6465 148.067 75.4526 148.648 75.2586C149.23 75.0646 149.811 75.0646 150.393 75.0646C151.168 75.0646 151.943 75.2586 152.524 75.4526C153.106 75.6465 153.687 76.0345 154.269 76.6164L152.912 78.1681Z" fill="#231F20"/>
<path d="M143.028 75.6467H141.478V89.4183H143.028V75.6467Z" fill="#231F20"/>
<path d="M129.656 75.6467H133.144C133.725 75.6467 134.501 75.6467 135.082 75.8407C135.664 75.8407 136.245 76.0347 136.826 76.4226C137.408 76.6166 137.795 77.0045 138.183 77.5864C138.571 78.1683 138.764 78.7502 138.764 79.72C138.764 80.6898 138.571 81.6597 137.795 82.2416C136.633 83.2114 134.307 83.2114 133.144 83.4053L139.152 89.8062H137.214L131.4 83.5993V89.8062H129.849V75.6467H129.656ZM131.206 81.6597H132.756C133.144 81.6597 133.725 81.6597 134.113 81.6597C134.695 81.6597 135.082 81.4657 135.47 81.4657C135.857 81.2717 136.245 81.0778 136.439 80.8838C136.633 80.4959 136.826 80.1079 136.826 79.526C136.826 78.9441 136.633 78.5562 136.439 78.3622C136.245 77.9743 136.051 77.7803 135.664 77.5864C135.276 77.3924 135.082 77.3924 134.501 77.1985C134.113 77.1985 133.725 77.1985 133.338 77.1985H131.012V81.6597H131.206Z" fill="#231F20"/>
<path d="M126.166 75.6467H124.616V89.4183H126.166V75.6467Z" fill="#231F20"/>
<path d="M195.548 36.6593V33.1679L215.704 53.1464V33.3619H218.999V57.2196V60.905L199.037 40.9265H198.843V60.905H195.548V36.6593Z" fill="#231F20"/>
<path d="M171.517 33.1679H188.766V36.2714H174.812V44.9998H187.99V47.9093H174.812V57.8015H189.541V60.711H171.517V33.1679Z" fill="#231F20"/>
<path d="M146.129 33.1679H153.106C154.463 33.1679 155.82 33.1679 156.983 33.3619C158.339 33.5558 159.502 33.9438 160.471 34.3317C161.44 34.9136 162.409 35.6895 162.99 36.6593C163.572 37.6291 163.96 38.9869 163.96 40.7326C163.96 42.6722 163.378 44.4179 162.215 45.5817C160.083 47.7153 155.044 47.5214 152.913 47.9093L164.929 60.5171H160.859L149.23 48.1033V60.711H145.936V33.1679H146.129ZM149.424 45.3877H152.331C153.3 45.3877 154.269 45.3877 155.238 45.3877C156.207 45.3877 157.176 45.1938 157.952 44.8058C158.727 44.6119 159.502 44.03 159.89 43.4481C160.471 42.8662 160.665 41.8964 160.665 40.7326C160.665 39.7627 160.471 38.9869 160.083 38.405C159.696 37.8231 159.114 37.4351 158.533 37.0472C157.952 36.6593 157.176 36.4653 156.401 36.4653C155.626 36.2714 154.851 36.2714 154.075 36.2714H149.424V45.3877Z" fill="#231F20"/>
<path d="M139.346 50.2369C139.346 51.7886 139.152 53.1464 138.765 54.5041C138.377 55.8619 137.796 57.0257 137.021 57.9955C136.245 58.9653 135.082 59.7412 133.726 60.517C132.369 61.0989 130.819 61.4869 128.881 61.4869C126.943 61.4869 125.392 61.0989 124.036 60.517C122.679 59.9352 121.71 59.1593 120.741 57.9955C119.966 57.0257 119.384 55.8619 118.997 54.5041C118.609 53.1464 118.415 51.7886 118.415 50.2369V33.1679H121.71V49.655C121.71 50.8188 121.904 51.7886 122.098 52.9524C122.291 53.9222 122.679 54.892 123.26 55.6679C123.842 56.4438 124.617 57.0257 125.392 57.6076C126.361 57.9955 127.524 58.3834 128.881 58.3834C130.237 58.3834 131.4 58.1895 132.369 57.6076C133.338 57.2196 133.92 56.4438 134.501 55.6679C135.082 54.892 135.47 53.9222 135.664 52.9524C135.858 51.9826 136.051 50.8188 136.051 49.655V33.1679H139.346V50.2369Z" fill="#231F20"/>
<path d="M99.6159 61.4869C97.484 61.4869 95.546 61.099 93.8017 60.3231C92.0575 59.5472 90.507 58.5774 89.3442 57.2197C87.9876 55.8619 87.0185 54.3102 86.4371 52.5645C85.6619 50.8188 85.2743 48.8791 85.2743 46.7455C85.2743 44.6119 85.6619 42.6722 86.4371 40.9266C87.2123 39.1809 88.1814 37.6292 89.3442 36.2714C90.7008 34.9136 92.0575 33.9438 93.8017 33.1679C95.546 32.3921 97.484 32.0042 99.6159 32.0042C101.748 32.0042 103.686 32.3921 105.43 33.1679C107.174 33.9438 108.725 34.9136 109.888 36.2714C111.244 37.6292 112.213 39.1809 112.795 40.9266C113.57 42.6722 113.957 44.6119 113.957 46.7455C113.957 48.8791 113.57 50.8188 112.795 52.5645C112.019 54.3102 111.05 55.8619 109.888 57.2197C108.531 58.5774 107.174 59.5472 105.43 60.3231C103.492 61.099 101.554 61.4869 99.6159 61.4869ZM99.6159 58.3835C101.166 58.3835 102.717 57.9955 104.073 57.4136C105.43 56.8317 106.593 56.0559 107.562 54.8921C108.531 53.9223 109.306 52.5645 109.888 51.2067C110.469 49.849 110.663 48.2972 110.663 46.7455C110.663 45.1938 110.469 43.6421 109.888 42.2843C109.306 40.9266 108.531 39.7628 107.562 38.599C106.593 37.6291 105.43 36.6593 104.073 36.0774C102.717 35.4955 101.36 35.1076 99.6159 35.1076C98.0654 35.1076 96.515 35.4955 95.1583 36.0774C93.8017 36.6593 92.6389 37.4352 91.6699 38.599C90.7008 39.5688 89.9256 40.9266 89.3442 42.2843C88.7628 43.6421 88.569 45.1938 88.569 46.7455C88.569 48.2972 88.7628 49.849 89.3442 51.2067C89.9256 52.5645 90.7008 53.7283 91.6699 54.8921C92.6389 55.8619 93.8017 56.8317 95.1583 57.4136C96.515 58.1895 97.8716 58.3835 99.6159 58.3835Z" fill="#231F20"/>
<path d="M79.267 53.7283C79.267 54.6981 79.0732 55.6679 78.8793 56.4438C78.6855 57.4136 78.1041 58.1895 77.5227 58.9653C76.9413 59.7412 76.1661 60.3231 75.1971 60.711C74.228 61.0989 72.8714 61.4869 71.5148 61.4869C69.5767 61.4869 68.0263 60.905 66.6696 59.9351C65.313 58.9653 64.5378 57.4136 64.1502 55.4739L67.4449 54.892C67.6387 56.0558 68.0263 56.8317 68.8015 57.4136C69.5767 57.9955 70.3519 58.3834 71.5148 58.3834C72.4838 58.3834 73.259 58.1895 73.8404 57.8015C74.4218 57.4136 74.8095 57.0257 75.1971 56.4438C75.5847 55.8619 75.7785 55.28 75.9723 54.5041C76.1661 53.7283 76.1661 53.1464 76.1661 52.3705V33.1679H79.4608V53.7283H79.267Z" fill="#231F20"/>
<path d="M204.658 29.4828C202.527 29.4828 200.588 29.0948 198.844 28.319C197.1 27.5431 195.55 26.5733 194.387 25.2155C193.03 23.8578 192.061 22.306 191.48 20.5603C190.704 18.8146 190.317 16.875 190.317 14.7414C190.317 12.6078 190.704 10.6681 191.48 8.92241C192.255 7.17672 193.224 5.625 194.387 4.26724C195.743 2.90948 197.1 1.93965 198.844 1.16379C200.588 0.387928 202.527 0 204.658 0C206.79 0 208.728 0.387928 210.473 1.16379C212.217 1.93965 213.767 2.90948 214.93 4.26724C216.287 5.625 217.256 7.17672 217.837 8.92241C218.612 10.6681 219 12.6078 219 14.7414C219 16.875 218.612 18.8146 217.837 20.5603C217.062 22.306 216.093 23.8578 214.93 25.2155C213.573 26.5733 212.217 27.5431 210.473 28.319C208.728 29.0948 206.79 29.4828 204.658 29.4828ZM204.658 26.5733C206.209 26.5733 207.759 26.1853 209.116 25.6034C210.473 25.0216 211.635 24.2457 212.604 23.0819C213.573 22.1121 214.349 20.7543 214.93 19.3965C215.511 18.0388 215.705 16.4871 215.705 14.9353C215.705 13.3836 215.511 11.8319 214.93 10.4741C214.349 9.11637 213.573 7.95259 212.604 6.78879C211.635 5.81896 210.473 4.84914 209.116 4.26724C207.759 3.68535 206.403 3.29741 204.658 3.29741C203.108 3.29741 201.558 3.68535 200.201 4.26724C198.844 4.84914 197.681 5.625 196.712 6.78879C195.743 7.75862 194.968 9.11637 194.387 10.4741C193.805 11.8319 193.612 13.3836 193.612 14.9353C193.612 16.4871 193.805 18.0388 194.387 19.3965C194.968 20.7543 195.743 21.9181 196.712 23.0819C197.681 24.0517 198.844 25.0216 200.201 25.6034C201.558 26.1853 203.108 26.5733 204.658 26.5733Z" fill="#231F20"/>
<path d="M163.378 4.46129V0.96991L183.534 20.7544V0.96991H186.829V25.0216V28.513L166.673 8.53456V28.513H163.378V4.46129Z" fill="#231F20"/>
<path d="M135.664 4.46129V0.96991L155.819 20.7544V0.96991H159.114V25.0216V28.513L138.958 8.53456V28.513H135.664V4.46129Z" fill="#231F20"/>
<path d="M130.237 0.96991H126.942V28.513H130.237V0.96991Z" fill="#231F20"/>
<path d="M99.422 1.16376H103.104L111.632 20.3663L120.353 1.16376H123.841L111.438 28.5129L109.887 24.0517L99.422 1.16376Z" fill="#231F20"/>
<path d="M75.9715 0.96991H79.2662V12.8018H79.6538L92.2511 0.96991H96.9024L83.3361 13.5777L97.4838 28.513H92.8325L79.6538 14.5475H79.2662V28.513H75.9715V0.96991Z" fill="#231F20"/>
<path d="M32.1716 55.4741C29.0708 55.4741 26.1637 54.8923 23.4504 53.7285C20.9309 52.5647 18.6053 51.0129 16.6672 49.0733C14.7292 47.1336 13.3725 44.6121 12.2097 41.8966C11.2407 39.181 10.6593 36.2716 10.6593 32.9742C10.6593 29.8707 11.2407 26.7673 12.2097 24.0517C13.1787 21.3362 14.7292 18.8147 16.6672 16.875C18.6053 14.9354 20.7371 13.1897 23.4504 12.0259C25.9699 10.8621 28.8769 10.2802 32.1716 10.2802C35.2725 10.2802 38.1796 10.8621 40.8929 12.0259C43.4123 13.1897 45.738 14.7414 47.676 16.875C49.6141 18.8147 50.9707 21.3362 52.1336 24.0517C53.1026 26.7673 53.684 29.6767 53.684 32.9742C53.684 36.0776 53.1026 39.181 52.1336 41.8966C51.1645 44.6121 49.6141 47.1336 47.676 49.0733C45.738 51.0129 43.6061 52.7586 40.8929 53.9224C38.1796 54.8923 35.2725 55.4741 32.1716 55.4741ZM44.5752 82.0474V71.9612H37.2106V64.9784C39.9238 64.5905 42.6371 63.8147 44.9628 62.8448C48.8389 61.2931 52.3274 58.9655 55.0406 56.056C57.9477 53.1466 60.0796 49.6552 61.8238 45.7759C63.3742 41.8966 64.1495 37.4354 64.1495 32.9742C64.1495 28.319 63.3742 24.0517 61.8238 20.1724C60.2734 16.2931 57.9477 12.8017 55.0406 9.89225C52.1336 6.98277 48.8389 4.84915 44.769 3.10346C40.8929 1.55174 36.6292 0.58191 31.9778 0.775875C27.3265 0.775875 23.0628 1.55174 19.1867 3.29743C15.3106 4.84916 11.8221 7.17674 9.10884 10.0862C6.20176 12.9957 4.06991 16.4871 2.32566 20.3664C0.77522 24.2457 0 28.7069 0 33.1681C0 37.8233 0.77522 42.0905 2.32566 45.9698C3.8761 49.8492 6.20176 53.3405 9.10884 56.25C12.0159 59.1595 15.3106 61.2931 19.3805 63.0388C21.9 64.0086 24.4194 64.7845 27.1327 65.1724V72.1552H19.7681V82.2414H27.1327V90H37.2106V82.2414L44.5752 82.0474Z" fill="#722282"/>
</svg>
