<svg width="19" height="15" viewBox="0 0 19 15" fill="none" xmlns="http://www.w3.org/2000/svg">
<path d="M1.9 0H17.1C17.6039 0 18.0872 0.197544 18.4435 0.549175C18.7998 0.900805 19 1.37772 19 1.875V13.125C19 13.6223 18.7998 14.0992 18.4435 14.4508C18.0872 14.8025 17.6039 15 17.1 15H1.9C1.39609 15 0.912816 14.8025 0.556497 14.4508C0.200178 14.0992 0 13.6223 0 13.125V1.875C0 0.84375 0.855 0 1.9 0ZM17.1 3.16875V1.875H1.9V3.16875L9.5 6.91875L17.1 3.16875ZM17.1 5.26875L9.9275 8.80313C9.7949 8.86906 9.64848 8.90341 9.5 8.90341C9.35152 8.90341 9.2051 8.86906 9.0725 8.80313L1.9 5.26875V13.125H17.1V5.26875Z" fill="#CFCFCF"/>
</svg>
