<svg width="17" height="17" viewBox="0 0 17 17" fill="none" xmlns="http://www.w3.org/2000/svg">
<path d="M9.384 10.7865L10.2935 8.9675C10.385 8.78673 10.538 8.64456 10.725 8.56664C10.912 8.48872 11.1207 8.48016 11.3135 8.5425L16.4135 10.2425C16.5839 10.2981 16.7324 10.4061 16.8377 10.5511C16.9431 10.6961 16.9999 10.8708 17 11.05V15.3C17 15.7509 16.8209 16.1833 16.5021 16.5021C16.1833 16.8209 15.7509 17 15.3 17H13.6C9.99306 17 6.53384 15.5671 3.98335 13.0167C1.43285 10.4662 0 7.00695 0 3.4V1.7C0 0.765003 0.765 2.8335e-06 1.7 2.8335e-06H5.95C6.1282 -0.000457154 6.30203 0.0550989 6.44693 0.158818C6.59184 0.262538 6.70048 0.409175 6.7575 0.578003L8.4575 5.678C8.52215 5.87189 8.51477 6.08258 8.43671 6.27147C8.35866 6.46036 8.21516 6.6148 8.0325 6.7065L6.205 7.616C6.96068 8.93628 8.05522 10.0308 9.3755 10.7865H9.384ZM5.338 1.7H1.7V3.4C1.7 6.55608 2.95375 9.58289 5.18543 11.8146C7.41711 14.0463 10.4439 15.3 13.6 15.3H15.3V11.662L11.475 10.387L10.523 12.308C10.4242 12.5025 10.2544 12.6516 10.0487 12.7244C9.84298 12.7972 9.61717 12.7881 9.418 12.699C7.14757 11.6755 5.32827 9.85923 4.301 7.5905C4.21189 7.39133 4.20279 7.16552 4.27557 6.95983C4.34836 6.75413 4.49746 6.5843 4.692 6.4855L6.613 5.5165L5.338 1.7Z" fill="#CFCFCF"/>
</svg>
